<svg xmlns="http://www.w3.org/2000/svg" viewBox="0 0 89.84 88.46">
    <title>C1</title>
    <g id="Layer_2" data-name="Layer 2">
        <g id="Layer_1-2" data-name="Layer 1">
            <path id="C1" d="M82.59,85.29l4.4,3,2.7-3.9-.5-13.5-3.1-1.8,2.8-3.7-.7-2.4-2.1-2.4,2.7-2.9-1.4-5,2.3-3.7-1.9-2.9-3.7-1.6L87,39l2.4-2.6-.4-7.1-3.7-3.8-5.2-9.9-2.5.7L73.79,11,70,8l-5.8-1.9L62,4l-1.5-2.5-3.8,1.1L52.79.19l-1,2.8L42.29.89l-2.9,3.8-3.8-2.4-.2-1.1h-1.9l.3,3.2-2.4,4.3,1.2,2.9-.9,6.2-9.3,17.8,2,4.3,4.9,1.5,1.7,2-2.4,2-1.8-.1-2.6,4.4,1.2,4.2,2.5.8-.9,2.5-11.6,2-4.2,6.9L4,67.89l-3.8,2.4,7.9,8.5,4.5.5,2.4,3.1,10.7,5.2,9.5-1.4,4.7,2,10.7-4.5,3.6.9,5-3.2h8.3l4.3,1.8,9.4-.4Z" style="fill:#86c944;stroke:#666;stroke-width:0.25px;fill-rule:evenodd" />
        </g>
    </g>
</svg>