<?xml version="1.0" encoding="utf-8"?>
<!-- Generator: Adobe Illustrator 23.0.4, SVG Export Plug-In . SVG Version: 6.00 Build 0)  -->
<svg version="1.1" xmlns="http://www.w3.org/2000/svg" xmlns:xlink="http://www.w3.org/1999/xlink" x="0px" y="0px"
	 viewBox="0 0 130 240" style="enable-background:new 0 0 130 240;" xml:space="preserve">
<style type="text/css">
	.st0{fill:#7E9BAE;}
	.st1{fill:#2070A0;}
	.st2{font-family:'UNFPA-BoldCondensed';}
	.st3{font-size:12px;}
	.st4{fill:none;stroke:#374A63;stroke-linecap:round;stroke-linejoin:round;}
	.st5{fill:none;stroke:#374A63;stroke-linecap:round;stroke-linejoin:round;stroke-dasharray:0,1.9756;}
	.st6{fill:#16486D;}
</style>
<g id="marco_x5F_palabras">
	<g>
		<path class="st0" d="M118.4,2c5.3,0,9.6,4.3,9.6,9.6v216.9c0,5.3-4.3,9.6-9.6,9.6H11.6c-5.3,0-9.6-4.3-9.6-9.6V11.6
			C2,6.3,6.3,2,11.6,2H118.4 M118.4,0H11.6C5.2,0,0,5.2,0,11.6v216.9c0,6.4,5.2,11.6,11.6,11.6h106.9c6.4,0,11.6-5.2,11.6-11.6V11.6
			C130,5.2,124.8,0,118.4,0L118.4,0z"/>
	</g>
	<g>
		<text transform="matrix(1 0 0 1 6.6087 56.7577)"><tspan x="0" y="0" class="st1 st2 st3">Adultos</tspan><tspan x="-3.3" y="10" class="st1 st2 st3">mayores</tspan></text>
	</g>
	<text transform="matrix(1 0 0 1 55.2998 13.1378)" class="st1 st2 st3">Hombre</text>
	<text transform="matrix(1 0 0 1 7.2423 13.1378)"><tspan x="0" y="0" class="st1 st2 st3">Filtrar</tspan><tspan x="0" y="9" class="st1 st2 st3">por:</tspan></text>
	<text transform="matrix(1 0 0 1 95.897 13.1378)" class="st1 st2 st3">Mujer</text>
	<g>
		<text transform="matrix(1 0 0 1 6.6087 129.7582)" class="st1 st2 st3">Adultos</text>
	</g>
	<g>
		<text transform="matrix(1 0 0 1 5.721 202.7583)" class="st1 st2 st3">Jóvenes</text>
	</g>
	<g>
		<g>
			<line class="st4" x1="50.5" y1="26.4" x2="50.5" y2="26.4"/>
			<path class="st5" d="M50.5,28.4v22.2c0,0.7-0.3,1.3-0.8,1.8l-2.4,2c-1.1,0.9-1.1,2.5-0.1,3.4l2.6,2.4c0.5,0.4,0.7,1,0.7,1.7v25.6
				"/>
			<line class="st4" x1="50.5" y1="88.4" x2="50.5" y2="88.4"/>
		</g>
	</g>
	<g>
		<g>
			<line class="st4" x1="50.5" y1="98" x2="50.5" y2="98"/>
			<path class="st5" d="M50.5,100v22.2c0,0.7-0.3,1.3-0.8,1.8l-2.4,2c-1.1,0.9-1.1,2.5-0.1,3.4l2.6,2.4c0.5,0.4,0.7,1,0.7,1.7V159"
				/>
			<line class="st4" x1="50.5" y1="160" x2="50.5" y2="160"/>
		</g>
	</g>
	<g>
		<g>
			<line class="st4" x1="50.5" y1="169.6" x2="50.5" y2="169.6"/>
			<path class="st5" d="M50.5,171.6v22.2c0,0.7-0.3,1.3-0.8,1.8l-2.4,2c-1.1,0.9-1.1,2.5-0.1,3.4l2.6,2.4c0.5,0.4,0.7,1,0.7,1.7
				v25.6"/>
			<line class="st4" x1="50.5" y1="231.6" x2="50.5" y2="231.6"/>
		</g>
	</g>
</g>
<g id="joven_x5F_mujer">
	<g>
		<path class="st6" d="M111,176.7c0-2.8-2.2-4.9-4.8-4.9s-4.9,2.2-4.9,4.8s2.2,4.9,4.8,4.9C108.8,181.7,111,179.5,111,176.7z"/>
		<path class="st6" d="M96.2,202.3l2.5-8.5l-3.7-2l-2.9,9.2c0,0-0.7,2.4,1.4,3C95.6,204.6,96.2,202.3,96.2,202.3z"/>
		<path class="st6" d="M112,190.6c0.7-0.2,0.8,0.7,0.8,0.7l0.5,1.6l3.7-2l-0.9-3.1c0,0-1.5-3.9-4.7-3.9H101c-3.2,0-4.7,3.8-4.7,3.8
			l-0.9,2.9l3.7,2l0.5-1.4c0,0,0.2-0.8,0.8-0.7c0.6,0.1,0.3,1.1,0.3,1.1l-5.7,20.7h5.3v14.8c-0.1,1.4,0.9,2.6,2.4,2.8
			c1.4,0.1,2.6-0.9,2.8-2.4v-0.3v-14.7h1.5v14.8c0,1.4,1.1,2.5,2.5,2.5c1.4,0,2.5-1.1,2.5-2.5v-14.8h5.3l-5.7-20.7
			C111.5,191.8,111.3,190.8,112,190.6z"/>
		<path class="st6" d="M120,201.1l-2.8-9l-3.7,2l2.4,8.3c0,0,0.6,2.4,2.6,1.7C120.7,203.3,120,201.1,120,201.1z"/>
		<path class="st6" d="M100.7,175.1h-0.6c0.9-3.3,4.4-5.3,7.6-4.4c2.1,0.6,3.8,2.2,4.4,4.4h-0.7v3.3h1c-0.2,1.1-0.9,2.1-1.7,2.9
			c-0.2-0.2-0.5-0.3-0.8-0.2l-1.7,0.7c-0.3,0.1-0.5,0.5-0.3,0.8l0.1,0.5c0.1,0.3,0.5,0.5,0.8,0.3l1.8-0.7c0.3-0.1,0.5-0.5,0.3-0.8
			l-0.1-0.3c0.9-0.8,1.6-2,1.8-3.2h1V175h-1c-0.9-3.7-4.6-5.9-8.1-4.9c-2.4,0.6-4.4,2.5-4.9,4.9h-1v3.3h2.2V175.1z"/>
	</g>
</g>
<g id="joven_x5F_hombre">
	<g>
		<path class="st6" d="M62.9,227.1c0,1.5,1.3,2.7,2.7,2.7s2.7-1.3,2.7-2.7v-2h-5.5V227.1z"/>
		<path class="st6" d="M69.9,227.1c0.1,1.5,1.4,2.6,3,2.5c1.4-0.1,2.5-1.1,2.5-2.5v-2h-5.5V227.1z"/>
		<path class="st6" d="M64.2,189.1v-5.6h-0.5h-0.3c-3.4,0.3-5.9,3.2-5.9,6.5v13.7c0.1,1,1,1.8,2,1.7c0.9-0.1,1.7-0.8,1.7-1.7v-11.6
			c0-0.5,0.1-1,0.9-1h2V189.1z"/>
		<polygon class="st6" points="66.3,187.9 72.2,187.9 72.2,183.6 69.1,183.6 66.3,183.6 		"/>
		<path class="st6" d="M73.5,192.2H73v-3.1h-7.6v3.1h-2.5v31.5h5.5v-17.2c0-0.5,0.2-0.8,0.7-0.8h0.1c0.5,0,0.8,0.2,0.8,0.7v0.1v17.2
			h5.5v-31.5H73.5z"/>
		<path class="st6" d="M74.9,183.6h-0.3h-0.3v7.4h1.8c0.8,0,0.9,0.6,0.9,1v11.7c0.1,1,1,1.8,2,1.7c0.9-0.1,1.7-0.8,1.7-1.7V190
			C80.8,186.7,78.2,184,74.9,183.6"/>
		<path class="st6" d="M72.6,188.3c0,0.3,0.2,0.6,0.6,0.6c0.3,0,0.6-0.2,0.6-0.6c0-0.3-0.2-0.6-0.6-0.6
			C72.9,187.8,72.6,188,72.6,188.3"/>
		<path class="st6" d="M64.7,188.3c0,0.3,0.2,0.6,0.6,0.6c0.3,0,0.6-0.2,0.6-0.6c0-0.3-0.2-0.6-0.6-0.6
			C64.9,187.8,64.7,188,64.7,188.3"/>
		<path class="st6" d="M72.4,175.8c-0.5-0.3-0.8-0.7-1.5-0.3c-0.5,0.2-0.7,0.3-1.3,0.7c-1,0.5-2.2,0.8-3.2,0.9
			c-0.8,0.1-1.7,0.2-2.5,0.2c0.2,2.8,2.7,4.9,5.6,4.7c2.4-0.2,4.3-2,4.7-4.6C73.5,176.9,73,176.3,72.4,175.8"/>
		<path class="st6" d="M63.9,176.2c0.8,0,1.6-0.1,2.4-0.2c1-0.2,1.9-0.5,2.8-0.9c0.8-0.3,1.6-0.7,1.6-0.7c0.3-0.1,0.7-0.2,1-0.1
			c0.2,0.1,0.3,0.2,0.5,0.3l0.3,0.3c0,0,0.2,0.2,1.4,1.1c0.1,0.1,0.2,0.2,0.3,0.2c0.1,0,0.1-0.9,0.1-1.4c-0.1-1.4-0.6-2.6-1.4-3.6
			c-0.2-0.3-0.7-0.6-1.1-0.5c-0.7,0.1-0.7-0.3-1.1-0.7c-1.5-0.6-3.2-0.2-4.4,0.7c-1.5,1.3-2.6,2.7-3.3,4.6
			C62.7,175.8,63.2,176.2,63.9,176.2"/>
	</g>
</g>
<g id="adulto_x5F_mujer">
	<g>
		<path class="st6" d="M106.1,109.1c2.8,0,5.1-2.3,5.1-5.1c0-2.8-2.3-5.1-5.1-5.1c-2.8,0-5.1,2.3-5.1,5.1
			C101,106.8,103.3,109.1,106.1,109.1z"/>
		<path class="st6" d="M120.5,129.2l-4.2-13.7c0,0-1.5-4-4.8-4h-10.7c-3.3,0-4.8,4-4.8,4l-4.2,13.7c0,0-0.8,2.5,1.4,3.1
			c2.1,0.6,2.8-1.8,2.8-1.8l3.4-11.4c0,0,0.2-0.9,0.8-0.7c0.7,0.2,0.4,1.1,0.4,1.1L94.6,141h5.5v15.4c0,1.5,1.2,2.6,2.6,2.6
			c1.5,0,2.6-1.2,2.6-2.6V141h1.5v15.4c0,1.5,1.2,2.6,2.6,2.6c1.5,0,2.6-1.2,2.6-2.6V141h5.5l-5.9-21.4c0,0-0.3-0.9,0.4-1.1
			c0.7-0.2,0.8,0.7,0.8,0.7l3.4,11.4c0,0,0.6,2.5,2.8,1.8C121.2,131.7,120.5,129.2,120.5,129.2z"/>
	</g>
</g>
<g id="adulto_x5F_hombre">
	<g>
		<path class="st6" d="M69.1,109.2c2.8,0,5.1-2.3,5.1-5.1c0-2.8-2.3-5.1-5.1-5.1c-2.8,0-5.1,2.3-5.1,5.1
			C64,106.9,66.3,109.2,69.1,109.2z"/>
		<path class="st6" d="M75.1,111.1c-0.1,0-11.8,0-11.9,0c-3.3,0-6.2,3.2-6.2,6.8V132c0,1.1,0.9,2,2,2c1.1,0,2-0.9,2-2v-13.3
			c0,0,0-0.9,0.8-0.9c0.8,0,0.9,0.9,0.9,0.9v37.5c0,1.6,1.3,2.8,2.8,2.8c1.6,0,2.8-1.3,2.8-2.8v-20.9c0-0.2,0.1-0.8,0.8-0.8h0
			c0.7,0,0.8,0.6,0.8,0.8v20.9c0,1.6,1.3,2.8,2.8,2.8c1.6,0,2.8-1.3,2.8-2.8v-37.5c0,0,0.1-0.9,0.9-0.9c0.8,0,0.8,0.9,0.8,0.9V132
			c0,1.1,0.9,2,2,2c1.1,0,2-0.9,2-2v-14.1C81.2,114.3,78.5,111.1,75.1,111.1z"/>
	</g>
</g>
<g id="adulto_x5F_mayor_x5F_mujer">
	<g>
		<path class="st6" d="M101.1,35c0,0.2,0.1,0.5,0.2,0.7c0,0,0,0.1,0,0.1c0.1,0.2,0.2,0.4,0.3,0.6c0,0,0,0.1,0,0.1
			c0.1,0.2,0.2,0.4,0.4,0.6c0,0,0,0.1,0.1,0.1c0.3,0.4,0.6,0.7,1,1c0,0,0,0,0.1,0c0.2,0.1,0.4,0.3,0.6,0.4c0,0,0,0,0,0
			c0.4,0.2,0.9,0.4,1.4,0.5c0,0,0.1,0,0.1,0c0.2,0,0.5,0.1,0.8,0.1c0.3,0,0.5,0,0.8-0.1c0,0,0.1,0,0.1,0c0.5-0.1,1-0.3,1.4-0.5
			c0,0,0,0,0,0c0.2-0.1,0.4-0.2,0.6-0.4c0,0,0,0,0.1,0c0.4-0.3,0.7-0.6,1-1c0,0,0-0.1,0.1-0.1c0.1-0.2,0.3-0.4,0.4-0.6
			c0,0,0-0.1,0-0.1c0.1-0.2,0.2-0.4,0.3-0.6c0,0,0-0.1,0-0.1c0.1-0.2,0.1-0.5,0.2-0.7c0,0,0-0.1,0-0.2c0-0.2,0.1-0.5,0.1-0.7
			c0-1.9-1.1-3.6-2.7-4.5c0.3-0.3,0.6-0.8,0.6-1.2c0-1.1-1.2-2-2.8-2c-1.5,0-2.8,0.9-2.8,2c0,0.4,0.2,0.8,0.4,1.1
			c-1.7,0.8-2.9,2.6-2.9,4.6c0,0.3,0,0.5,0.1,0.7C101.1,34.9,101.1,35,101.1,35z"/>
		<path class="st6" d="M120.1,59.3c0.9-0.7,0.5-2.6,0.5-2.6l-4.2-13.7c0,0-1.5-4-4.8-4h-1.1c-1.1,1-2.6,1.6-4.2,1.6
			c-1.6,0-3.1-0.6-4.2-1.6h-1.1c-3.3,0-4.8,4-4.8,4l-4.2,13.7c0,0-0.8,2.5,1.4,3.1c2.1,0.6,2.8-1.8,2.8-1.8l3.4-11.5
			c0,0,0.2-0.9,0.8-0.7c0.7,0.2,0.4,1.1,0.4,1.1l-5.9,21.5h5.5v15.4c0,1.5,1.2,2.6,2.6,2.6c1.5,0,2.6-1.2,2.6-2.6V68.4h0.8h0.7v15.4
			c0,1.5,1.2,2.6,2.6,2.6c1.5,0,2.6-1.2,2.6-2.6V68.4h5.5l-5.9-21.5c0,0-0.2-0.9,0.4-1.1c0.7-0.2,0.8,0.7,0.8,0.7l3.4,11.5
			c0,0,0.5,1.9,2.1,1.9C118.5,59.9,119.2,60,120.1,59.3z"/>
	</g>
</g>
<g id="adulto_x5F_mayor_x5F_hombre">
	<g>
		<path class="st6" d="M75,29.9l-1.6,0.4l-0.7-3.1c-0.1-0.4-0.3-0.8-0.9-0.6L69.9,27c-0.4,0.1-0.8,0.1-1.2,0l-2-0.5
			c-0.4-0.1-0.7,0.2-0.9,0.6l-1,3.1l-1.6-0.4c-0.2,0-0.4,0.2-0.4,0.5c0,0.3,0.2,0.5,0.4,0.5l1.3,0.3c-0.3,0.7-0.5,1.5-0.5,2.3
			c0,2.2,1.3,4,3.1,4.8c0.6,0.3,1.3,0.4,2,0.4c0.6,0,1.3-0.1,1.8-0.4c1.9-0.7,3.3-2.6,3.3-4.8c0-0.8-0.2-1.6-0.5-2.3l1.3-0.3
			c0.2,0,0.4-0.2,0.4-0.5C75.3,30.1,75.2,29.9,75,29.9z"/>
		<path class="st6" d="M75.1,38.1c-0.1,0-0.2,0-0.4,0h-1.5c-1.1,1-2.6,1.5-4.1,1.5c-1.6,0-3-0.6-4.1-1.5h-1.5c-0.1,0-0.3,0-0.4,0
			c-3.5,0.3-6.2,3.2-6.2,6.8v1.7v0.7v11.8c0,0.7,0.3,1.3,0.9,1.6c0,0,0.6,0.4,1.6,0.3c0.8-0.1,1.5-1,1.5-1.9V46.9
			c0-0.5,0.1-1.1,1-1.1c0.6,0,0.7,0.6,0.7,1v36.7c0,1.6,1.3,2.9,2.9,2.9c1.6,0,2.9-1.3,2.9-2.9V62.4c0-0.2,0.1-0.8,0.8-0.8h0
			c0.7,0,0.8,0.6,0.8,0.8v21.1c0,1.6,1.3,2.9,2.9,2.9c1.6,0,2.9-1.3,2.9-2.9V46.9c0-0.4,0.1-1,0.7-1c0.8,0,1,0.6,1,1.1v12.2
			c0,1.1,0.9,2,2,2c1.1,0,2-0.9,2-2V47.4v-0.7v-1.7C81.3,41.3,78.6,38.4,75.1,38.1z"/>
	</g>
</g>
</svg>
