<svg xmlns="http://www.w3.org/2000/svg" viewBox="0 0 129.05 27.65"><title>Asset 1</title><g id="Layer_2" data-name="Layer 2"><g id="Capa_1" data-name="Capa 1"><path d="M77.35,18.6v1.5H63.65a6.28,6.28,0,0,0,5.8,4.8,6.59,6.59,0,0,0,5.1-2.9l1.9,1.2a8.52,8.52,0,0,1-6.9,4,8.11,8.11,0,0,1-8.1-8,8.2,8.2,0,0,1,8.1-8.1c3.9,0,7.9,3.1,7.9,7C77.35,18.5,77.35,18.4,77.35,18.6Zm-2.3-.6a6.15,6.15,0,0,0-5.6-4.8,6.28,6.28,0,0,0-5.8,4.8Z" style="fill:#1d1d1b"/><path d="M94.15,23.1a8.55,8.55,0,0,1-7,4,8.11,8.11,0,0,1-8.1-8,8.2,8.2,0,0,1,8.1-8.1,9.12,9.12,0,0,1,7,4l-2,1.1a6.16,6.16,0,0,0-5-2.8,5.89,5.89,0,0,0-5.9,5.8,5.83,5.83,0,0,0,5.9,5.8,6.57,6.57,0,0,0,5-2.9Z" style="fill:#1d1d1b"/><path d="M109.45,27.1h-2.2V18a4.69,4.69,0,0,0-4.7-4.7A4.61,4.61,0,0,0,98,18v9.1h-2.3V0H98V12.9a7.61,7.61,0,0,1,4.6-1.9,7,7,0,0,1,6.9,7Z" style="fill:#1d1d1b"/><path d="M114.85,16.8a5.5,5.5,0,0,1,.7-.9l-2.3-2.6a9,9,0,0,0-1.5,1.9Z" style="fill:#63b137"/><path d="M120.55,14.9a8.79,8.79,0,0,1,1,.6l2.3-2.6a7.43,7.43,0,0,0-2.1-1.3Z" style="fill:#e3b634"/><path d="M125.85,15.7l-3.1,1.6a3.54,3.54,0,0,1,.3,1.1l3.4-.3a6.53,6.53,0,0,0-.6-2.4" style="fill:#c41d2e"/><path d="M122.55,16.8l3.1-1.6a9.35,9.35,0,0,0-1.4-1.9L122,15.9l.6.9" style="fill:#4c9c37"/><path d="M114.15,19.1v-.2l-3.4-.3v.5A11.08,11.08,0,0,0,111,21l3.3-1c0-.3-.1-.6-.1-.9" style="fill:#3e7e46"/><path d="M122.15,21.9a3,3,0,0,1-.8.8l1.8,3A7.28,7.28,0,0,0,125,24Z" style="fill:#fac111"/><path d="M123.15,19.1a3.4,3.4,0,0,1-.1,1l3.3,1a12.25,12.25,0,0,0,.2-1.9v-.5l-3.4.3v.1" style="fill:#e7422d"/><path d="M115.25,22l-2.8,2.1a6.9,6.9,0,0,0,1.8,1.6l1.8-3c-.3-.1-.5-.4-.8-.7" style="fill:#f49c2c"/><path d="M114.25,18.4c.1-.4.2-.8.3-1.1l-3.1-1.6a8.43,8.43,0,0,0-.7,2.4Z" style="fill:#1894d2"/><path d="M122.65,26l-1.8-3a3.58,3.58,0,0,1-1.1.4l.6,3.4a5.72,5.72,0,0,0,2.3-.8" style="fill:#a11b43"/><path d="M122.85,20.5a3.13,3.13,0,0,1-.5,1l2.8,2.1a8.75,8.75,0,0,0,1-2.2Z" style="fill:#2db9de"/><path d="M119.25,23.5h-1.1l-.6,3.4a4.87,4.87,0,0,0,1.2.1,5.7,5.7,0,0,0,1.3-.1Z" style="fill:#eb6830"/><path d="M119,14.6a3.59,3.59,0,0,1,1.1.2l1.2-3.3A8.56,8.56,0,0,0,119,11Z" style="fill:#e4263d"/><path d="M117.65,23.5a3.58,3.58,0,0,1-1.1-.4l-1.8,3a9.17,9.17,0,0,0,2.3.9Z" style="fill:#dd1868"/><path d="M117.35,14.7a4.25,4.25,0,0,1,1.1-.2V11a10,10,0,0,0-2.4.4Z" style="fill:#19496b"/><path d="M115,21.6a3.7,3.7,0,0,1-.5-1.1l-3.3,1a9.06,9.06,0,0,0,1.1,2.2Z" style="fill:#c7982d"/><path d="M115.85,15.5a8.79,8.79,0,0,1,1-.6l-1.3-3.3a6.25,6.25,0,0,0-2,1.3Z" style="fill:#046a9f"/><path d="M127.45,24a1.64,1.64,0,0,1,1.6,1.6,1.5,1.5,0,0,1-1.6,1.5,1.56,1.56,0,0,1-1.6-1.5A1.72,1.72,0,0,1,127.45,24Z" style="fill:#1d1d1b"/><path d="M2.5,5.05a2.5,2.5,0,0,1,0,5A2.54,2.54,0,0,1,0,7.55a2.48,2.48,0,0,1,2.5-2.5Z" style="fill:#f8991d;fill-rule:evenodd"/><path d="M11.4,5.05a2.5,2.5,0,1,1-2.5,2.5,2.54,2.54,0,0,1,2.5-2.5Z" style="fill:#f8991d;fill-rule:evenodd"/><path d="M20.6,5.05a2.5,2.5,0,1,1-2.5,2.5,2.48,2.48,0,0,1,2.5-2.5Z" style="fill:#f8991d;fill-rule:evenodd"/><path d="M2.5,22.55a2.5,2.5,0,0,1,0,5,2.5,2.5,0,0,1,0-5Z" style="fill:#f8991d;fill-rule:evenodd"/><path d="M11.4,22.55a2.5,2.5,0,1,1-2.5,2.5,2.54,2.54,0,0,1,2.5-2.5Z" style="fill:#f8991d;fill-rule:evenodd"/><path d="M20.6,22.55a2.5,2.5,0,1,1-2.5,2.5,2.48,2.48,0,0,1,2.5-2.5Z" style="fill:#f8991d;fill-rule:evenodd"/><path d="M2.5,13.75a2.5,2.5,0,0,1,0,5,2.5,2.5,0,0,1,0-5Z" style="fill:#f8991d;fill-rule:evenodd"/><path d="M11.4,13.75a2.5,2.5,0,1,1-2.5,2.5,2.54,2.54,0,0,1,2.5-2.5Z" style="fill:#f8991d;fill-rule:evenodd"/><path d="M22.5,19.65a2.78,2.78,0,0,0-1.8-.3,1.7,1.7,0,0,0-1,0c-.5.2-1.3.6-1.9.2a1.38,1.38,0,0,0,.4.3,1.48,1.48,0,0,0,1.3,0c.4-.1.6-.6,1.1-.5a3.83,3.83,0,0,0-1.1.8l.2.2a3.13,3.13,0,0,1,1.1-.9,2.72,2.72,0,0,1,1,.8l.2-.2a4.13,4.13,0,0,0-1.1-.7h.3a4.49,4.49,0,0,0,1.2.6,1.15,1.15,0,0,0,1.2-.5l-.2.1a1,1,0,0,1-.9.1ZM18,18.15c.2.3.2.7.6.9.1.1.3.1.4.2a.9.9,0,0,1-.5-.1c-.5-.1-1.2,0-1.5-.4a1.78,1.78,0,0,0,.8.7,3.72,3.72,0,0,0,1.8-.2c-.7,0-1.1-.7-1.6-1.1Zm5.4,0a4.3,4.3,0,0,0-1,.9,1.42,1.42,0,0,1-.6.2c.5,0,.9.3,1.4.2a1.56,1.56,0,0,0,1.3-.8,2.46,2.46,0,0,1-1.5.5,4.33,4.33,0,0,0-.5.1h0c.5-.1.6-.7.9-1.1Zm-2.7-.4h0v.4a.6.6,0,0,0,.4-.1.31.31,0,0,0-.2-.1v-.2c0,.1-.1.1-.2,0Zm-1.9-.1-.3.4a4,4,0,0,0,2.1.9h0v-.5h0a3,3,0,0,1-1.8-.8Zm3.7,0c-.1.1-.2.2-.3.2-.3.1-.4.5-.7.6-.1,0-.2-.1-.3-.1s-.3.1-.5,0V19h0a3.33,3.33,0,0,0,2.1-.9,1.38,1.38,0,0,0-.3-.4Zm-3.1-.3c0,.1.1.1,0,.1s-.2,0-.3.1a.35.35,0,0,1-.2-.1,2.57,2.57,0,0,0,1.6.7h0v-.5a1.19,1.19,0,0,1-1.1-.3Zm-2.1-.1.1.2c.1.5.1,1.1.6,1.4h0a1.38,1.38,0,0,1-.4-.3c-.4-.3-1.1-.4-1.3-1a1.45,1.45,0,0,0,.7,1c.4.4,1,.3,1.4.5a1,1,0,0,1-.4-.5c-.2-.4-.3-1-.7-1.3Zm4.7-.1h0c-.2.2.1.2.1.3s-.2.1-.1.2v.1l.3-.3h-.1c.1-.1-.1-.2-.2-.3Zm2.1,0-.3.3c-.4.5-.3,1.2-.8,1.6.3-.1.5-.1.8-.2a1.73,1.73,0,0,0,1.3-1.3c-.1.3-.3.4-.6.6a4.13,4.13,0,0,0-1.1.7h0c.6-.4.4-1.2.7-1.7Zm-4.4-.4-.3.3h0a4.05,4.05,0,0,0,.9.5.22.22,0,0,1-.2-.2c0-.1.1-.1.1-.2s.1-.1.2-.1h-.1a.86.86,0,0,1-.6-.3Zm1.6-.1h0c-.1.1-.2.1-.2,0v.1H21c0,.1-.1,0-.1,0s-.1,0-.1,0a.1.1,0,0,1-.1.1.1.1,0,0,0-.1.1h.1c.1-.1.1,0,.2,0s.1,0,.2.1l.1-.1c.1,0,.2-.1.3-.2-.1,0-.1,0-.2-.1Zm-.1,0c0-.1.1,0,.1-.1s-.1,0-.1.1Zm-1-.4-.3.3.6.3v-.2h.1v-.3h-.3a.1.1,0,0,1-.1-.1Zm2,0c-.1-.1-.1.1-.2.1v-.1c0,.1-.1.1-.1.2s-.1.2-.2.1c0,.1.1,0,.1,0v-.1a.1.1,0,0,1,.1-.1v.3c0,.1,0,.2-.2.2s-.3-.1-.4-.1h0a.37.37,0,0,1,.3.1h.3c0-.1,0-.1.1-.2s0,.1.1.1a1.61,1.61,0,0,0,.4-.7c-.2.2-.2.3-.3.2Zm-5.2,0a1.27,1.27,0,0,1-.1.6,1.09,1.09,0,0,0,.2,1.1c-.1,0-.1-.1-.2-.2-.3-.5-.9-.8-1-1.4a1.27,1.27,0,0,0,.1.6c.2.7.9,1,1.4,1.4-.3-.6-.1-1.4-.4-2.1Zm4.4,0c-.1.1.1.1.1.2h0c0-.1,0-.1-.1-.2Zm3,0c-.3.6-.1,1.5-.4,2.1h.1c.7-.4,1.6-1,1.4-2,0,.1-.1.2-.1.4-.3.4-.7.8-1,1.2h0v-.1c.2-.5-.1-1.1,0-1.6Zm-4.4-.1a.1.1,0,0,1-.1.1.1.1,0,0,0,.1-.1Zm-.5-.1h0c.1.2.2.3.2.5l.1-.2v-.1a.1.1,0,0,1-.1-.1c0-.1,0,0-.1-.1Zm-1.3-.2h0c0,.2.1.5.1.7v-.1a.37.37,0,0,1,.1-.3c.1,0,.1-.1.2-.1a.1.1,0,0,1,.1.1c-.1-.1-.1-.2,0-.2a1.09,1.09,0,0,0-.5-.1Zm-.7,0a2.88,2.88,0,0,0,.9,2.1c.1-.1.2-.3.4-.4-.1,0-.1-.1-.2-.2s-.1-.1-.1-.2h0a.1.1,0,0,1-.1-.1.1.1,0,0,0-.1-.1c0-.1-.1-.1-.2-.1V17a.1.1,0,0,1-.1-.1c-.1,0-.1-.1-.1-.2a.37.37,0,0,1,.1-.3h.1c.1,0,0,0,.1-.1s.1,0,.2.1c-.4-.1-.4-.3-.4-.5Zm1.3,0c0,.1.1.2,0,.4,0-.1.1-.1,0-.2s0-.2.1-.2Zm3.9-.1V16c-.1.1.1.1,0,.2h-.1a1.37,1.37,0,0,1-.5.8h0c.1,0,.1.1.2.1h0c.1,0,.1.2.1.3a2.28,2.28,0,0,0,.6-1.2.6.6,0,0,1,.1-.4c-.1.1-.2.1-.4,0Zm.6,0h0a2.41,2.41,0,0,1-.7,1.7c.1.1.3.2.4.4a3.46,3.46,0,0,0,.8-1.6.9.9,0,0,1,.1-.5.64.64,0,0,1-.6,0Zm-1.1,0h0c.1.2.2.2.2.4a.37.37,0,0,1,.1-.3.37.37,0,0,1-.3-.1Zm-3-.2c-.1,0,0,.1,0,.2s-.1,0-.1,0c0,.2-.1.2-.1.2s.1.1,0,.2c.1.1.2.2.1.3.1.1,0,.2.1.3s.1.1.1.2a.1.1,0,0,1-.1.1v.1l.4-.4c-.1-.2-.3-.4-.3-.6h-.1c0,.1,0,.1-.1.2a.1.1,0,0,1-.1-.1h.1v-.2a.1.1,0,0,1,.1.1h.1v-.3c0-.3,0-.3-.1-.3Zm1.3-.4h0c0,.1.1.1,0,.2s-.2.1-.2.2-.1.2-.1.3a.1.1,0,0,1-.1-.1h0c-.1-.1-.1.1-.2.1h.3v-.1s0-.1.1,0v.1l-.1.1a.1.1,0,0,1-.1.1h0v.1a.1.1,0,0,1,.1-.1.1.1,0,0,0,.1-.1c.1-.1.1,0,.2,0a.1.1,0,0,1,.1.1c0,.1,0,.1-.1.2v.1c-.1.1-.1,0-.2.1a.37.37,0,0,0,.3.1c.1,0,.1-.1.2-.2H21v-.2c-.1,0,0-.1,0-.1a.1.1,0,0,0-.1-.1v-.1c.1,0-.1-.1,0-.1-.1,0-.1-.2-.3-.1,0-.4,0-.4-.1-.5h0ZM16.1,15a1.48,1.48,0,0,0,0,1.3c.1.4.5.7.7,1v-.5a7.58,7.58,0,0,0,.3-1.6c-.1.4-.4.7-.5,1.1v.5c0-.1-.1-.2-.1-.3-.1-.5-.5-.9-.4-1.5Zm9.1-.1c.1.5-.2.9-.3,1.3-.1.2,0,.4-.1.5v-.3c.1-.6-.4-.9-.5-1.4v.4c0,.6.4,1.1.3,1.7.1-.1.2-.3.3-.4a1.5,1.5,0,0,0,.3-1.8Zm-4.7-.3a.91.91,0,0,0-.7.3c.1,0,.1,0,.2.1v.1c0,.1,0,0,.1,0s.1.1.1,0h.1s.1-.1,0-.1a.1.1,0,0,1,.1-.1c0,.1.1,0,.2.1-.1-.2,0-.3-.1-.4Zm.2,0v.3h.1c0-.1.1-.1.2-.1h.1c0,.2-.1.2-.2.3h0c.1-.1.2.1.3,0s.2-.1.2-.2h-.1l.1-.1a1.45,1.45,0,0,0-.7-.2Zm-1.4-.1c-.1.1-.2.3-.3.4a1.85,1.85,0,0,0-.2.7H19v-.1c0-.1.1-.3.2-.3s0-.1.1-.1.1-.1.2-.2.1-.1.2-.1c-.2,0-.3-.2-.4-.3Zm2.7,0c-.1.2-.3.3-.5.5h0s0-.2.1-.1h.3a.1.1,0,0,1,.1.1v.1h0l.1-.1a.1.1,0,0,1,.1.1v.1c0,.1-.1.1,0,.1h.1c.1-.1,0-.2,0-.3s-.1-.1-.2-.2v-.1c.1,0,0-.1-.1-.2ZM18.8,14h0a3.29,3.29,0,0,0-.7,1.6h.5a2.11,2.11,0,0,1,.5-1.3q-.15,0-.3-.3Zm1.9-.1v.5a1.14,1.14,0,0,1,.8.3c.1-.1.2-.3.4-.3a1.66,1.66,0,0,0-1.2-.5Zm-.1,0h0a1.61,1.61,0,0,0-1.1.5,1.38,1.38,0,0,0,.4.3,1.14,1.14,0,0,1,.8-.3c-.2-.1-.2-.3-.1-.5Zm-4-.1a2,2,0,0,0-.4.8c-.1.6.2,1,.3,1.5.1-.7.8-1.1.8-1.8-.2.4-.7.6-.8,1v.2h0v-.3c.1-.4-.2-1,.1-1.4Zm8.1-.1c.2.3.1.8.1,1.2v.6c0-.1,0-.2-.1-.2-.1-.4-.6-.6-.8-1,0,.1.1.2.1.4.2.5.7.8.8,1.4,0-.5.4-.9.3-1.5a1.27,1.27,0,0,0-.4-.9Zm-6.3-.1h0a3.12,3.12,0,0,0-.9,2.1H18v-.5a2.39,2.39,0,0,1,.7-1.3l-.3-.3Zm4.6,0-.3.4h-.1a.1.1,0,0,0,.1.1l.3.3c0,.1.2.2.2.3a3.54,3.54,0,0,1,.3,1.1H24a4.1,4.1,0,0,0-1-2.2Zm-4.1.3a1.38,1.38,0,0,0,.4.3,1.9,1.9,0,0,1,1.3-.5v-.5a3.25,3.25,0,0,0-1.7.7Zm3.3-.7c-.1.1,0,.1,0,0,.1.1.1.2.2.1v-.1c-.1,0-.2.1-.2,0Zm-1.5,0v.5a1.5,1.5,0,0,1,1.1.4l-.1-.1h0c0-.1-.1-.1,0-.1s.1.1.2.2.1.3.3.3v.1a.1.1,0,0,1,.1.1c0,.1.1,0,.2,0v.1h.1v.1c0,.1.1,0,.1.1s.1.2,0,.3c.1.1,0,.2,0,.3s-.1.2-.2.2v.1h.2c-.1-.2,0-.3.1-.4s.1-.1.1,0v.5h.5a2.92,2.92,0,0,0-.2-.9h-.1c-.1-.1-.1-.2-.2-.2s-.1,0-.2-.1-.1-.2-.2-.1a.1.1,0,0,1-.1-.1c0-.1,0-.2-.1-.2h-.1c-.2-.2-.2-.3-.2-.3s0-.1,0-.2,0-.2-.2-.3a1.45,1.45,0,0,0-.7-.2.6.6,0,0,1-.4-.1Zm-4,.4c-.3.4,0,.9-.1,1.3a2.18,2.18,0,0,1,.4-.5,1.2,1.2,0,0,0,.7-1c-.2.5-.8.5-1,1.1h0c.2-.4.1-1,.5-1.3-.1,0-.3.2-.5.4Zm7.3-.5c.3.2.3.6.4.9,0,.1.1.3.1.4-.2-.5-.8-.6-1-1.1l.1.3c.2.6.8.7,1.1,1.2-.1-.4.1-.7,0-1.1a1.41,1.41,0,0,0-.7-.6Zm-2.9-.3-.2.1h-.1l.1.1c.1-.1.3,0,.4-.1a.31.31,0,0,1-.2-.1Zm-2.9-.1a1.37,1.37,0,0,0-.8.5,3,3,0,0,0-.4.8l.3-.2c.4-.3.5-.8.9-1.1Zm4.9,0,.2.2a4.3,4.3,0,0,0,.9,1c-.1-.1-.1-.3-.2-.5a1.11,1.11,0,0,0-.9-.7Zm-4.6.8.4.4a2.34,2.34,0,0,1,1.7-.7v-.5a2.46,2.46,0,0,0-2.1.8Zm2.2-.9V13h0v.1h0a1.27,1.27,0,0,1,.6.1c.2,0,.4.3.6.1.1.1.2,0,.2.1s.1.1.2.2.1.1.1.2h0l.3-.3a3,3,0,0,0-1.6-.8c0-.1-.2-.1-.4-.1Zm2.9,1.6a3.38,3.38,0,0,1-.3,3.6A3.28,3.28,0,0,1,19.7,19a3.2,3.2,0,0,1-2.4-2.8,3.32,3.32,0,0,1,4.8-3.4,2.92,2.92,0,0,1,1.5,1.4Z" style="fill:#2596d4"/><path d="M42.7,14.15h-.4v1.6h.3a.71.71,0,0,0,.8-.8,1.27,1.27,0,0,0-.1-.6C43.1,14.15,43,14.15,42.7,14.15Z" style="fill:#f8991d"/><path d="M48,19.85l-.2-1.2H46.2l-.2,1.2H44.6l1.7-7.2h1.5l1.1,4.7c0-.4.1-.7.1-1.1a11.47,11.47,0,0,0-22.3-3.6h.7v4.4a2,2,0,0,0,.2.9.6.6,0,0,0,.6.3.86.86,0,0,0,.6-.3,2,2,0,0,0,.2-.9v-4.4h1.4V17a4.87,4.87,0,0,1-.1,1.2,3,3,0,0,1-.4,1,1.7,1.7,0,0,1-.6.6,1.64,1.64,0,0,1-1,.2,1.7,1.7,0,0,1-.7-.1.91.91,0,0,1-.7-.3c-.2-.1-.3-.4-.5-.6,0-.1,0-.1-.1-.2a11.37,11.37,0,0,0,21.9,1.1Zm-12.3,0H34.4l-1.7-4v4H31.4v-7.2h1.3l1.7,4v-4h1.3Zm4.4-5.7H38v1.3h1.8V17H38v2.9H36.6v-7.2h3.5Zm3,3h-.8v2.7H40.9v-7.2h2.3a1.15,1.15,0,0,1,1.1.6,2.54,2.54,0,0,1,.4,1.6,2.86,2.86,0,0,1-.4,1.7A1.31,1.31,0,0,1,43.1,17.15Z" style="fill:#f8991d"/><polygon points="46.4 17.15 47.4 17.15 46.9 14.55 46.4 17.15" style="fill:#f8991d"/><path d="M46.2,12.65l-1.7,7.2h1.4l.2-1.2h1.6l.2,1.2h.4a10.08,10.08,0,0,0,.5-2.5l-1.1-4.7Zm.2,4.5.5-2.6.5,2.6Z" style="fill:#fff"/><path d="M44.4,13.25a1.25,1.25,0,0,0-1.1-.6H41v7.2h1.4v-2.7h.8a1.49,1.49,0,0,0,1.3-.6,2.86,2.86,0,0,0,.4-1.7A10.31,10.31,0,0,0,44.4,13.25Zm-1.2,2.3a.85.85,0,0,1-.6.2h-.3v-1.6h.4a.59.59,0,0,1,.5.2,1.08,1.08,0,0,1,.1.6A.66.66,0,0,1,43.2,15.55Z" style="fill:#fff"/><polygon points="36.7 19.85 38.1 19.85 38.1 16.95 39.8 16.95 39.8 15.45 38.1 15.45 38.1 14.15 40.1 14.15 40.1 12.65 36.7 12.65 36.7 19.85" style="fill:#fff"/><polygon points="34.4 16.65 32.7 12.65 31.4 12.65 31.4 19.85 32.7 19.85 32.7 15.95 34.4 19.85 35.7 19.85 35.7 12.65 34.4 12.65 34.4 16.65" style="fill:#fff"/><path d="M27,19.65a4.88,4.88,0,0,0,.7.3,2,2,0,0,0,.7.1,3,3,0,0,0,1-.2,1.7,1.7,0,0,0,.6-.6,3,3,0,0,0,.4-1,4.87,4.87,0,0,0,.1-1.2v-4.4H29v4.4a2,2,0,0,1-.2.9.6.6,0,0,1-.6.3.86.86,0,0,1-.6-.3,2,2,0,0,1-.2-.9v-4.4h-.7a11.48,11.48,0,0,0-.6,3.7,10.07,10.07,0,0,0,.3,2.5c0,.1,0,.1.1.2S26.8,19.45,27,19.65Z" style="fill:#fff"/></g></g></svg>