<svg xmlns="http://www.w3.org/2000/svg" viewBox="0 0 862.9 250.48"><title>p2-c-h-m-am</title><g id="Layer_2" data-name="Layer 2"><g id="Capa_1" data-name="Capa 1"><path d="M187.91,20.19H200.1V68.44h20v10.8H187.91Z" style="fill:#374a63"/><path d="M221.63,58.57c0-13.44,8.39-21.67,19.66-21.67,11.42,0,19.73,8.15,19.73,21.6s-8.39,21.6-19.81,21.6S221.63,72,221.63,58.57Zm28.67,0c0-7.38-3.26-12.66-9-12.66S232.35,51,232.35,58.5s3.19,12.58,8.94,12.58S250.3,66,250.3,58.57Z" style="fill:#374a63"/><path d="M263,76l1.39-9.25c4.67,3,10.49,4.9,15.39,4.9,4.12,0,6.14-1.4,6.14-3.73,0-2.49-1.48-3.42-7.77-5.05-10.26-2.64-14.53-5.52-14.53-13.29,0-7.46,5.75-12.59,15.69-12.59a37.92,37.92,0,0,1,14.92,3l-1.48,9.17a30.47,30.47,0,0,0-13.44-3.8c-3.49,0-5.12,1.24-5.12,3.26s1.39,3,7.38,4.58c10.87,2.88,15,5.75,15,13.52,0,8.47-6,13.29-16.86,13.29A37.56,37.56,0,0,1,263,76Z" style="fill:#374a63"/><path d="M315.41,68.6c0-9.95,8-14.38,24.63-16V51.5c0-4.27-2.48-5.9-6.91-5.9a34.44,34.44,0,0,0-13.75,3.34l-1.32-8.63A41.06,41.06,0,0,1,334.68,37c11,0,16.4,3.89,16.4,14V79.24h-9.64L340.59,74c-3.42,3.42-7.54,6.14-13.52,6.14C320.08,80.1,315.41,76,315.41,68.6ZM340,67.82V58.73c-11.11,1.4-13.75,4.66-13.75,8.55,0,3,1.87,4.66,4.82,4.66C334.3,71.94,337.33,70.38,340,67.82Z" style="fill:#374a63"/><path d="M354.89,59.66c0-15.54,8.54-22.38,18-22.38a28,28,0,0,1,9.33,1.56V18.79h11V79.24h-9.48l-.93-5.59c-2.95,3.34-6.92,6.45-12.51,6.45C361.73,80.1,354.89,73.65,354.89,59.66ZM382.24,65V47.7a16.21,16.21,0,0,0-7.38-1.56c-5.13,0-8.86,4-8.86,12.82,0,7.77,3.18,11.35,7.54,11.35C377,70.31,379.67,68.21,382.24,65Z" style="fill:#374a63"/><path d="M399.18,67.51V37.75h11V64.56c0,3.42,1.48,5.75,5,5.75,3,0,6-1.87,8.78-4.74V37.75h11V79.24h-9.48l-.93-5.75c-3.81,3.65-8.16,6.61-13.6,6.61C403.22,80.1,399.18,75.36,399.18,67.51Z" style="fill:#374a63"/><path d="M441.53,18.79h11V79.24h-11Z" style="fill:#374a63"/><path d="M461.18,67V46.76h-5.75v-9h5.75V24.15h11v13.6h8.93v9h-8.93v18.5c0,3.34,1.55,5.12,5.36,5.12a18.81,18.81,0,0,0,3.81-.38v9.32a22.33,22.33,0,0,1-6,.62C466.93,79.94,461.18,76.83,461.18,67Z" style="fill:#374a63"/><path d="M483.25,58.57c0-13.44,8.39-21.67,19.66-21.67s19.73,8.15,19.73,21.6-8.39,21.6-19.81,21.6C491.57,80.1,483.25,72,483.25,58.57Zm28.67,0c0-7.38-3.26-12.66-9-12.66S494,51,494,58.5s3.19,12.58,8.94,12.58S511.92,66,511.92,58.57Z" style="fill:#374a63"/><path d="M524.59,76l1.4-9.25c4.66,3,10.49,4.9,15.38,4.9,4.12,0,6.14-1.4,6.14-3.73,0-2.49-1.48-3.42-7.77-5.05-10.26-2.64-14.53-5.52-14.53-13.29C525.21,42.1,531,37,540.91,37a37.87,37.87,0,0,1,14.91,3l-1.47,9.17a30.47,30.47,0,0,0-13.44-3.8c-3.5,0-5.13,1.24-5.13,3.26s1.4,3,7.38,4.58c10.88,2.88,15,5.75,15,13.52,0,8.47-6,13.29-16.87,13.29A37.6,37.6,0,0,1,524.59,76Z" style="fill:#374a63"/><path d="M579.21,37.75h9.48l.93,5.75c3.89-3.73,7.93-6.6,13.52-6.6,5.75,0,8.94,2.72,10.49,6.68,3.73-3.73,8.16-6.68,13.6-6.68C635,36.9,639,41.64,639,49.48V79.24h-11V52.44c0-3.42-1.24-5.75-4.74-5.75-3,0-5.83,1.86-8.55,4.74V79.24h-11V52.44c0-3.42-1.32-5.75-4.82-5.75-2.95,0-5.75,1.86-8.54,4.74V79.24h-11Z" style="fill:#374a63"/><path d="M642.7,68.6c0-9.95,8-14.38,24.63-16V51.5c0-4.27-2.49-5.9-6.92-5.9a34.44,34.44,0,0,0-13.75,3.34l-1.32-8.63A41.11,41.11,0,0,1,662,37c10.95,0,16.39,3.89,16.39,14V79.24h-9.64L667.87,74c-3.42,3.42-7.54,6.14-13.52,6.14C647.36,80.1,642.7,76,642.7,68.6Zm24.63-.78V58.73c-11.11,1.4-13.76,4.66-13.76,8.55,0,3,1.87,4.66,4.82,4.66C661.58,71.94,664.61,70.38,667.33,67.82Z" style="fill:#374a63"/><path d="M684.58,94.39l-1.48-9A16.66,16.66,0,0,0,688,86a6.75,6.75,0,0,0,6.68-4.35l.85-2.25L680.15,37.75h12.12l9,28,8.78-28h10.88L705.48,81.11c-3.73,10.33-8.55,13.67-16.86,13.67A15.87,15.87,0,0,1,684.58,94.39Z" style="fill:#374a63"/><path d="M721,58.57c0-13.44,8.39-21.67,19.66-21.67,11.42,0,19.73,8.15,19.73,21.6S752,80.1,740.6,80.1C729.34,80.1,721,72,721,58.57Zm28.67,0c0-7.38-3.26-12.66-9-12.66S731.74,51,731.74,58.5s3.19,12.58,8.94,12.58S749.69,66,749.69,58.57Z" style="fill:#374a63"/><path d="M764.38,37.75h9.48l1.32,8.31c2.64-4.81,6.6-8.85,13-9.16l1.79,11a19.4,19.4,0,0,0-14.53,7.69V79.24h-11Z" style="fill:#374a63"/><path d="M790,58.57c0-13.52,8.16-21.67,19.11-21.67,12.59,0,18.11,9.4,18.11,21.21,0,1,0,2.25-.08,3.34h-26c.55,6.91,4.66,10.26,10.8,10.26,5.05,0,9.56-1.87,14.07-4.9l1.24,8.31a28.42,28.42,0,0,1-16.55,5C798.8,80.1,790,73.49,790,58.57Zm26.57-4.35c-.54-6.37-3-9.86-7.69-9.86-4,0-7.07,3.26-7.77,9.86Z" style="fill:#374a63"/><path d="M829.34,76l1.4-9.25c4.66,3,10.49,4.9,15.38,4.9,4.12,0,6.14-1.4,6.14-3.73,0-2.49-1.48-3.42-7.77-5.05C834.23,60.21,830,57.33,830,49.56,830,42.1,835.71,37,845.66,37a37.9,37.9,0,0,1,14.91,3l-1.47,9.17a30.5,30.5,0,0,0-13.44-3.8c-3.5,0-5.13,1.24-5.13,3.26s1.4,3,7.38,4.58c10.88,2.88,15,5.75,15,13.52,0,8.47-6,13.29-16.86,13.29A37.6,37.6,0,0,1,829.34,76Z" style="fill:#374a63"/><path d="M198.42,106.73H205l.64,3.89c2.05-2.32,4.8-4.48,8.69-4.48,6,0,10.73,4.48,10.73,14.24,0,10.73-5.93,15.48-12.51,15.48a19.53,19.53,0,0,1-6.47-1.08v11.06h-7.66Zm19,14.08c0-5.39-2.26-7.87-5.23-7.87-2.43,0-4.31,1.45-6.09,3.66v12a11.21,11.21,0,0,0,5.12,1.08C214.76,129.71,217.4,126.91,217.4,120.81Z" style="fill:#14486d"/><path d="M227.6,97.83a4.42,4.42,0,1,1,4.42,4.26A4.19,4.19,0,0,1,227.6,97.83Zm.59,8.9h7.66v28.81h-7.66Z" style="fill:#14486d"/><path d="M238.87,121.19c0-9.39,5.66-15,13.27-15,8.74,0,12.57,6.53,12.57,14.72,0,.71,0,1.57-.06,2.32H246.58c.38,4.8,3.24,7.12,7.5,7.12a17.24,17.24,0,0,0,9.76-3.39l.87,5.77a19.72,19.72,0,0,1-11.49,3.45C245,136.13,238.87,131.55,238.87,121.19Zm18.45-3c-.38-4.42-2.11-6.85-5.34-6.85-2.75,0-4.91,2.26-5.4,6.85Z" style="fill:#14486d"/><path d="M267.56,106.73h6.58l.65,4c2.7-2.53,5.66-4.58,9.44-4.58,5.39,0,8.25,3.29,8.25,8.74v20.66h-7.66V116.93c0-2.38-1-4-3.5-4-2.11,0-4.16,1.29-6.1,3.29v19.31h-7.66Z" style="fill:#14486d"/><path d="M295.13,133.27l1-6.42a21.24,21.24,0,0,0,10.68,3.4c2.86,0,4.26-1,4.26-2.59s-1-2.37-5.4-3.5c-7.12-1.84-10.08-3.83-10.08-9.23,0-5.18,4-8.74,10.89-8.74a26.19,26.19,0,0,1,10.36,2.11l-1,6.36a21.1,21.1,0,0,0-9.33-2.64c-2.42,0-3.56.86-3.56,2.26s1,2.11,5.13,3.19c7.55,2,10.41,4,10.41,9.38,0,5.88-4.16,9.23-11.71,9.23A26,26,0,0,1,295.13,133.27Z" style="fill:#14486d"/><path d="M319.56,128.15c0-6.91,5.55-10,17.1-11.11v-.76c0-3-1.73-4.1-4.8-4.1a23.86,23.86,0,0,0-9.55,2.32l-.92-6a28.63,28.63,0,0,1,11.55-2.32c7.6,0,11.38,2.7,11.38,9.71v19.64h-6.69l-.6-3.67c-2.37,2.37-5.23,4.26-9.38,4.26C322.79,136.13,319.56,133.27,319.56,128.15Zm17.1-.54V121.3c-7.72,1-9.55,3.23-9.55,5.93a3,3,0,0,0,3.34,3.24A9.19,9.19,0,0,0,336.66,127.61Z" style="fill:#14486d"/><path d="M348.36,106.73h6.58l.65,4c2.7-2.53,5.66-4.58,9.44-4.58,5.39,0,8.25,3.29,8.25,8.74v20.66h-7.66V116.93c0-2.38-1-4-3.5-4-2.11,0-4.16,1.29-6.1,3.29v19.31h-7.66Z" style="fill:#14486d"/><path d="M406.67,132.35a11.1,11.1,0,0,1-8,3.78c-6,0-10.73-4.48-10.73-14.19,0-10.62,5.77-15.58,14.45-15.58a35.53,35.53,0,0,1,12,2v37.49h-7.66Zm0-6.47V113.31a10.74,10.74,0,0,0-4.16-.7c-4.2,0-6.9,2.54-6.9,8.85,0,5.39,2.16,7.87,5.18,7.87C403.05,129.33,404.94,127.88,406.67,125.88Z" style="fill:#14486d"/><path d="M418.43,127.39V106.73h7.65v18.61c0,2.38,1,4,3.46,4,2.1,0,4.15-1.29,6.09-3.29V106.73h7.66v28.81h-6.58l-.65-4c-2.64,2.53-5.66,4.58-9.44,4.58C421.23,136.13,418.43,132.84,418.43,127.39Z" style="fill:#14486d"/><path d="M446,121.19c0-9.39,5.66-15,13.27-15,8.74,0,12.57,6.53,12.57,14.72,0,.71,0,1.57-.06,2.32H453.75c.38,4.8,3.24,7.12,7.5,7.12a17.24,17.24,0,0,0,9.76-3.39l.87,5.77a19.72,19.72,0,0,1-11.49,3.45C452.14,136.13,446,131.55,446,121.19Zm18.45-3c-.38-4.42-2.11-6.85-5.34-6.85-2.75,0-4.91,2.26-5.4,6.85Z" style="fill:#14486d"/><path d="M225.44,173.51c0-9.39,5.66-15,13.27-15,8.74,0,12.57,6.53,12.57,14.73,0,.7,0,1.56-.06,2.32H233.15c.38,4.8,3.24,7.12,7.5,7.12a17.25,17.25,0,0,0,9.76-3.4l.87,5.77a19.72,19.72,0,0,1-11.49,3.45C231.53,188.45,225.44,183.87,225.44,173.51Zm18.45-3c-.38-4.42-2.11-6.85-5.34-6.85-2.75,0-4.91,2.26-5.4,6.85Z" style="fill:#14486d"/><path d="M254.46,145.89h7.66v42h-7.66Z" style="fill:#14486d"/><path d="M278.57,159.05h6.58l.64,3.89c2-2.32,4.8-4.48,8.69-4.48,6,0,10.73,4.48,10.73,14.24,0,10.74-5.93,15.48-12.51,15.48a19.38,19.38,0,0,1-6.48-1.08v11.06h-7.65Zm19,14.08c0-5.39-2.26-7.87-5.23-7.87-2.43,0-4.31,1.45-6.1,3.67v12a11.29,11.29,0,0,0,5.13,1.08C294.91,182,297.55,179.23,297.55,173.13Z" style="fill:#14486d"/><path d="M308,159.05h6.58l.91,5.78c1.84-3.35,4.59-6.15,9-6.37l1.24,7.66a13.45,13.45,0,0,0-10.08,5.34v16.4H308Z" style="fill:#14486d"/><path d="M327,150.15a4.43,4.43,0,0,1,8.85,0,4.43,4.43,0,0,1-8.85,0Zm.59,8.9h7.66v28.81h-7.66Z" style="fill:#14486d"/><path d="M339.73,159.05h6.58l.65,4c2.69-2.54,5.66-4.59,9.44-4.59,5.39,0,8.25,3.29,8.25,8.74v20.66H357V169.25c0-2.37-1-4-3.51-4-2.1,0-4.15,1.29-6.09,3.29v19.31h-7.66Z" style="fill:#14486d"/><path d="M367.24,173.62c0-10.09,6.31-15.1,14.08-15.1a16.35,16.35,0,0,1,8.84,2.31l-1.08,6.85a11.45,11.45,0,0,0-7.28-2.58c-3.94,0-6.85,2.85-6.85,8.36s3.13,8.36,7.28,8.36a11.46,11.46,0,0,0,7.23-2.59l1,6.42A16,16,0,0,1,381,188.4C372.9,188.4,367.24,183,367.24,173.62Z" style="fill:#14486d"/><path d="M392.8,150.15a4.43,4.43,0,0,1,8.85,0,4.43,4.43,0,0,1-8.85,0Zm.6,8.9h7.66v28.81H393.4Z" style="fill:#14486d"/><path d="M405.53,159.05h6.58l.65,3.89c2.05-2.32,4.8-4.48,8.69-4.48,6,0,10.73,4.48,10.73,14.24,0,10.74-5.93,15.48-12.51,15.48a19.34,19.34,0,0,1-6.48-1.08v11.06h-7.66Zm19,14.08c0-5.39-2.26-7.87-5.23-7.87-2.43,0-4.32,1.45-6.1,3.67v12a11.29,11.29,0,0,0,5.13,1.08C421.88,182,424.52,179.23,424.52,173.13Z" style="fill:#14486d"/><path d="M433.47,180.47c0-6.91,5.56-10,17.1-11.11v-.76c0-3-1.72-4.1-4.8-4.1a23.9,23.9,0,0,0-9.55,2.32l-.91-6a28.55,28.55,0,0,1,11.54-2.31c7.61,0,11.38,2.69,11.38,9.7v19.64h-6.69l-.59-3.67c-2.37,2.37-5.23,4.26-9.39,4.26C436.71,188.45,433.47,185.59,433.47,180.47Zm17.1-.54v-6.31c-7.71,1-9.55,3.23-9.55,5.93a3,3,0,0,0,3.35,3.24A9.19,9.19,0,0,0,450.57,179.93Z" style="fill:#14486d"/><path d="M462.6,145.89h7.66v42H462.6Z" style="fill:#14486d"/><path d="M135.2,211.38h6.58l.65,3.88c2-2.32,4.8-4.48,8.68-4.48,6,0,10.74,4.48,10.74,14.24,0,10.74-5.93,15.48-12.52,15.48a19.6,19.6,0,0,1-6.47-1.07v11H135.2Zm19,14.07c0-5.39-2.27-7.87-5.23-7.87-2.43,0-4.32,1.46-6.1,3.67v12a11.29,11.29,0,0,0,5.13,1.08C151.55,234.36,154.19,231.55,154.19,225.45Z" style="fill:#14486d"/><path d="M164.65,211.38h6.58l.92,5.77c1.83-3.35,4.58-6.15,9-6.37l1.24,7.66a13.45,13.45,0,0,0-10.09,5.34v16.4h-7.66Z" style="fill:#14486d"/><path d="M182.45,225.83c0-9.33,5.83-15.05,13.65-15.05s13.7,5.67,13.7,15-5.83,15-13.76,15S182.45,235.16,182.45,225.83Zm19.9,0c0-5.12-2.26-8.79-6.25-8.79s-6.21,3.56-6.21,8.74,2.22,8.74,6.21,8.74S202.35,231,202.35,225.83Z" style="fill:#14486d"/><path d="M212.55,238.56V198.22h7.66v16.34a11.24,11.24,0,0,1,8-3.78c6,0,10.74,4.48,10.74,14.24,0,10.58-5.77,15.54-14.46,15.54A35.68,35.68,0,0,1,212.55,238.56Zm18.77-13.11c0-5.39-2.21-7.87-5.18-7.87-2.27,0-4.21,1.46-5.93,3.45V233.6a10.88,10.88,0,0,0,4.15.7C228.57,234.3,231.32,231.77,231.32,225.45Z" style="fill:#14486d"/><path d="M242.1,198.22h7.66v42H242.1Z" style="fill:#14486d"/><path d="M252.78,225.83c0-9.38,5.67-15.05,13.27-15.05,8.74,0,12.57,6.53,12.57,14.73,0,.7,0,1.56-.05,2.32H260.5c.38,4.8,3.23,7.12,7.5,7.12a17.3,17.3,0,0,0,9.76-3.4l.86,5.77a19.7,19.7,0,0,1-11.49,3.45C258.88,240.77,252.78,236.19,252.78,225.83Zm18.45-3c-.38-4.42-2.1-6.85-5.34-6.85-2.75,0-4.91,2.27-5.39,6.85Z" style="fill:#14486d"/><path d="M281.48,211.38h6.58l.65,4c2.69-2.59,5.5-4.59,9.38-4.59s6.2,1.89,7.28,4.64c2.59-2.59,5.67-4.64,9.44-4.64,5.4,0,8.15,3.29,8.15,8.74v20.66H315.3V221.57c0-2.37-.87-4-3.29-4-2.05,0-4.05,1.29-5.94,3.29v19.31h-7.65V221.57c0-2.37-.92-4-3.35-4-2.05,0-4,1.29-5.93,3.29v19.31h-7.66Z" style="fill:#14486d"/><path d="M325.54,232.79c0-6.9,5.56-10,17.1-11.11v-.76c0-3-1.72-4.1-4.8-4.1a24,24,0,0,0-9.54,2.32l-.92-6a28.38,28.38,0,0,1,11.54-2.32c7.61,0,11.38,2.69,11.38,9.71v19.63h-6.69l-.59-3.67a12.71,12.71,0,0,1-9.38,4.26C328.78,240.77,325.54,237.91,325.54,232.79Zm17.1-.54v-6.31c-7.71,1-9.54,3.24-9.54,5.93a3,3,0,0,0,3.34,3.24A9.17,9.17,0,0,0,342.64,232.25Z" style="fill:#14486d"/><path d="M364.92,226.59c0-10.79,5.93-15.54,12.51-15.54a19.48,19.48,0,0,1,6.47,1.08V198.22h7.66v42H385l-.64-3.88c-2,2.32-4.8,4.47-8.69,4.47C369.67,240.77,364.92,236.3,364.92,226.59Zm19,3.72v-12a11.21,11.21,0,0,0-5.12-1.08c-3.56,0-6.15,2.81-6.15,8.9,0,5.4,2.21,7.88,5.23,7.88C380.24,234,382.13,232.52,383.9,230.31Z" style="fill:#14486d"/><path d="M394.31,225.83c0-9.38,5.67-15.05,13.27-15.05,8.74,0,12.57,6.53,12.57,14.73,0,.7,0,1.56,0,2.32H402c.37,4.8,3.23,7.12,7.49,7.12a17.31,17.31,0,0,0,9.77-3.4l.86,5.77a19.7,19.7,0,0,1-11.49,3.45C400.41,240.77,394.31,236.19,394.31,225.83Zm18.45-3c-.38-4.42-2.1-6.85-5.34-6.85-2.75,0-4.91,2.27-5.39,6.85Z" style="fill:#14486d"/><path d="M435.3,198.22H443v42H435.3Z" style="fill:#14486d"/><path d="M445.93,232.79c0-6.9,5.56-10,17.1-11.11v-.76c0-3-1.73-4.1-4.8-4.1a24.07,24.07,0,0,0-9.55,2.32l-.92-6a28.47,28.47,0,0,1,11.55-2.32c7.6,0,11.38,2.69,11.38,9.71v19.63H464l-.59-3.67c-2.38,2.38-5.24,4.26-9.39,4.26C449.17,240.77,445.93,237.91,445.93,232.79Zm17.1-.54v-6.31c-7.72,1-9.55,3.24-9.55,5.93a3,3,0,0,0,3.35,3.24A9.19,9.19,0,0,0,463,232.25Z" style="fill:#14486d"/><path d="M499,230.4c0-8,4.83-12.84,11.31-12.84,7.46,0,10.72,5.57,10.72,12.56,0,.6,0,1.34,0,2H505.59c.33,4.1,2.76,6.07,6.4,6.07a14.7,14.7,0,0,0,8.33-2.9l.73,4.93a16.83,16.83,0,0,1-9.8,2.94C504.21,243.14,499,239.23,499,230.4Zm15.73-2.58c-.32-3.77-1.79-5.84-4.56-5.84-2.34,0-4.18,1.93-4.6,5.84Z" style="fill:#14486d"/><path d="M522.29,240.7l.83-5.47a18.12,18.12,0,0,0,9.11,2.9c2.44,0,3.63-.83,3.63-2.21s-.87-2-4.6-3c-6.07-1.57-8.6-3.27-8.6-7.87,0-4.41,3.4-7.45,9.29-7.45a22.51,22.51,0,0,1,8.84,1.79l-.88,5.43a18,18,0,0,0-8-2.25c-2.07,0-3,.73-3,1.93s.82,1.79,4.37,2.71c6.44,1.71,8.88,3.41,8.88,8,0,5-3.55,7.87-10,7.87A22.21,22.21,0,0,1,522.29,240.7Z" style="fill:#14486d"/><g id="adulto_mayor_mujer"><path d="M120.83,28.31a6.12,6.12,0,0,0,.66,2.3v.33l1,2v.33a7.07,7.07,0,0,0,1.31,2,.32.32,0,0,0,.33.33,16,16,0,0,0,3.29,3.29h.33c.66.33,1.32,1,2,1.31h0a18.85,18.85,0,0,0,4.61,1.65h.33c.65,0,1.64.33,2.63.33a7.21,7.21,0,0,0,2.63-.33h.33a19,19,0,0,0,4.61-1.65h0a6.5,6.5,0,0,0,2-1.31h.33a15.55,15.55,0,0,0,3.29-3.29.32.32,0,0,1,.33-.33c.33-.66,1-1.32,1.32-2v-.33l1-2v-.33c.33-.66.33-1.65.66-2.3v-.66c0-.66.32-1.65.32-2.31a17.19,17.19,0,0,0-8.88-14.81,6.45,6.45,0,0,0,2-3.95C147.16,3,143.21,0,138,0c-4.94,0-9.22,3-9.22,6.58a6.86,6.86,0,0,0,1.32,3.62,16.9,16.9,0,0,0-9.55,15.14,4.89,4.89,0,0,0,.33,2.31Z" style="fill:#14486d"/><path d="M183.37,108.29c3-2.31,1.64-8.56,1.64-8.56L171.19,54.64s-4.94-13.17-15.8-13.17h-3.62a20.77,20.77,0,0,1-27.65,0H120.5c-10.86,0-15.8,13.17-15.8,13.17L90.88,99.73s-2.63,8.23,4.61,10.2c6.91,2,9.21-5.92,9.21-5.92l11.19-37.85s.66-3,2.64-2.31c2.3.66,1.31,3.62,1.31,3.62l-19.42,70.77h18.11v50.69a8.56,8.56,0,0,0,17.11,0V138.24h4.94v50.69a8.56,8.56,0,0,0,17.12,0V138.24h18.1L156.38,67.47s-.66-3,1.32-3.62c2.3-.66,2.63,2.31,2.63,2.31L171.52,104s1.64,6.25,6.91,6.25C178.1,110.26,180.41,110.59,183.37,108.29Z" style="fill:#14486d"/></g><g id="adulto_mayor_hombre"><path d="M59.57,11.52l-5.26,1.32L52,2.63c-.33-1.31-1-2.63-3-2L42.79,2a8,8,0,0,1-3.95,0L32.26.33c-1.32-.33-2.31.66-3,2L26,12.51l-5.26-1.32a1.51,1.51,0,0,0-1.32,1.65,1.51,1.51,0,0,0,1.32,1.64l4.27,1A19.65,19.65,0,0,0,23.37,23a17.17,17.17,0,0,0,10.2,15.8,14.73,14.73,0,0,0,6.59,1.32,12,12,0,0,0,5.92-1.32A16.91,16.91,0,0,0,56.94,23a19.65,19.65,0,0,0-1.64-7.57l4.27-1a1.51,1.51,0,0,0,1.32-1.64C60.56,12.18,60.23,11.52,59.57,11.52Z" style="fill:#14486d"/><path d="M59.9,38.51H53.65a20.1,20.1,0,0,1-13.5,4.94,21.19,21.19,0,0,1-13.49-4.94H20.41A22.29,22.29,0,0,0,0,60.89v46.74a5.58,5.58,0,0,0,3,5.26,8.52,8.52,0,0,0,5.27,1c2.63-.33,4.94-3.29,4.94-6.25V67.47c0-1.64.32-3.62,3.29-3.62,2,0,2.3,2,2.3,3.29v120.8a9.55,9.55,0,0,0,19.09,0V118.49a2.51,2.51,0,0,1,2.63-2.63h0a2.52,2.52,0,0,1,2.64,2.63v69.45a9.55,9.55,0,0,0,19.09,0V67.47c0-1.31.33-3.29,2.3-3.29,2.63,0,3.29,2,3.29,3.62V108A6.59,6.59,0,0,0,81,108V61.22C80.31,49,71.42,39.5,59.9,38.51Z" style="fill:#14486d"/></g><path d="M498.45,123.73c0-16.14,9.89-27.06,24.72-27.06a27.29,27.29,0,0,1,14.56,3.71l-1.58,10a20.39,20.39,0,0,0-12.43-4.47c-8.79,0-14.35,6.66-14.35,17.72s6,17.72,14.83,17.72A23.62,23.62,0,0,0,537,137.19l1.52,9.2a28.7,28.7,0,0,1-15.18,4.26C507.93,150.65,498.45,140,498.45,123.73Z" style="fill:#de1f26"/><path d="M541,131.49c0-11.88,7.42-19.16,17.38-19.16s17.45,7.21,17.45,19.09-7.42,19.1-17.52,19.1S541,143.37,541,131.49Zm25.35,0c0-6.52-2.89-11.19-8-11.19s-7.9,4.53-7.9,11.12,2.82,11.13,7.9,11.13S566.37,138,566.37,131.49Z" style="fill:#4c9b45"/><path d="M579.35,113.09h8.37l.83,5.08c3.43-3.3,7-5.84,12-5.84s7.9,2.4,9.27,5.91c3.3-3.3,7.21-5.91,12-5.91,6.87,0,10.37,4.19,10.37,11.12v26.31h-9.75v-23.7c0-3-1.1-5.08-4.19-5.08-2.61,0-5.15,1.65-7.56,4.19v24.59h-9.75v-23.7c0-3-1.17-5.08-4.26-5.08-2.61,0-5.08,1.65-7.55,4.19v24.59h-9.75Z" style="fill:#03a5d4"/><path d="M637.24,139.39v-26.3H647v23.69c0,3,1.3,5.08,4.39,5.08,2.68,0,5.29-1.65,7.76-4.19V113.09h9.76v36.67h-8.38l-.83-5.08c-3.36,3.22-7.21,5.84-12,5.84C640.81,150.52,637.24,146.33,637.24,139.39Z" style="fill:#ea6524"/><path d="M674.25,113.09h8.38l.82,5.08c3.44-3.23,7.22-5.84,12-5.84,6.87,0,10.51,4.19,10.51,11.12v26.31h-9.75v-23.7c0-3-1.31-5.08-4.47-5.08-2.67,0-5.28,1.65-7.76,4.19v24.59h-9.75Z" style="fill:#4c7838"/><path d="M709.2,140.35c0-8.79,7.08-12.71,21.78-14.15v-1c0-3.78-2.2-5.22-6.12-5.22a30.48,30.48,0,0,0-12.15,3l-1.17-7.62a36.45,36.45,0,0,1,14.7-2.95c9.68,0,14.49,3.43,14.49,12.36v25h-8.52l-.75-4.67c-3,3-6.66,5.43-12,5.43C713.33,150.52,709.2,146.87,709.2,140.35Zm21.78-.69v-8c-9.82,1.23-12.16,4.12-12.16,7.55,0,2.61,1.65,4.12,4.26,4.12C725.89,143.3,728.57,141.93,731,139.66Z" style="fill:#094c81"/><text transform="translate(495.15 206.68)" style="font-size:68.67402648925781px;fill:#067dba;font-family:UNFPA-Bold;font-weight:700;letter-spacing:-0.0499984335495035em">Popular</text></g></g></svg>