<svg xmlns="http://www.w3.org/2000/svg" viewBox="0 0 493.32 281.6"><title>p2_co_m</title><g id="Layer_2" data-name="Layer 2"><g id="Capa_1" data-name="Capa 1"><path d="M57.08,4H68.27V48.25H86.6v9.91H57.08Z" style="fill:#df1a82"/><path d="M88,48.39c0-9.13,7.35-13.19,22.61-14.69v-1c0-3.92-2.28-5.42-6.35-5.42A31.44,31.44,0,0,0,91.6,30.35l-1.22-7.92a37.86,37.86,0,0,1,15.27-3.07c10,0,15,3.57,15,12.84v26h-8.85l-.78-4.85C107.93,56.45,104.15,59,98.66,59,92.24,59,88,55.17,88,48.39Zm22.61-.71V39.33c-10.2,1.29-12.63,4.28-12.63,7.85,0,2.71,1.72,4.28,4.43,4.28C105.29,51.46,108.07,50,110.57,47.68Z" style="fill:#df1a82"/><path d="M124.19,55.17l1.29-8.49a28.12,28.12,0,0,0,14.12,4.49c3.78,0,5.63-1.28,5.63-3.42s-1.35-3.14-7.13-4.64c-9.41-2.42-13.34-5.06-13.34-12.19,0-6.85,5.28-11.56,14.41-11.56a34.75,34.75,0,0,1,13.69,2.78l-1.35,8.42a28,28,0,0,0-12.34-3.49c-3.21,0-4.71,1.14-4.71,3s1.29,2.78,6.78,4.21c10,2.64,13.76,5.28,13.76,12.41,0,7.77-5.49,12.19-15.47,12.19A34.57,34.57,0,0,1,124.19,55.17Z" style="fill:#df1a82"/><path d="M174.33,20.08H183l.86,5.27c3.57-3.42,7.28-6.06,12.41-6.06s8.2,2.5,9.63,6.14c3.42-3.43,7.49-6.14,12.48-6.14,7.13,0,10.77,4.35,10.77,11.56V58.16H219.05V33.56c0-3.14-1.14-5.28-4.35-5.28-2.71,0-5.35,1.71-7.84,4.35V58.16H196.73V33.56c0-3.14-1.21-5.28-4.42-5.28-2.71,0-5.28,1.71-7.85,4.35V58.16H174.33Z" style="fill:#df1a82"/><path d="M234.46,47.39V20.08h10.13v24.6c0,3.14,1.35,5.28,4.56,5.28,2.78,0,5.49-1.71,8.06-4.35V20.08h10.13V58.16h-8.7l-.86-5.28C254.29,56.24,250.29,59,245.3,59,238.17,59,234.46,54.59,234.46,47.39Z" style="fill:#df1a82"/><path d="M267.41,72.14,266.13,64a12,12,0,0,0,3,.36c2.5,0,4.21-1.22,4.21-4.64V20.08h10.13V60.51c0,8.56-5,11.91-12.27,11.91A18.06,18.06,0,0,1,267.41,72.14Zm5.14-63.83a5.85,5.85,0,1,1,5.85,5.63A5.57,5.57,0,0,1,272.55,8.31Z" style="fill:#df1a82"/><path d="M287.45,39.19c0-12.41,7.49-19.9,17.55-19.9,11.55,0,16.62,8.63,16.62,19.47,0,.93,0,2.07-.07,3.07h-23.9c.5,6.35,4.28,9.41,9.92,9.41,4.63,0,8.77-1.71,12.91-4.49l1.14,7.63A26.11,26.11,0,0,1,306.43,59C295.51,59,287.45,52.88,287.45,39.19Zm24.4-4c-.5-5.85-2.79-9.06-7.07-9.06-3.63,0-6.48,3-7.13,9.06Z" style="fill:#df1a82"/><path d="M325.4,20.08h8.7l1.21,7.63c2.43-4.42,6.06-8.13,11.91-8.42l1.64,10.13a17.8,17.8,0,0,0-13.33,7.06V58.16H325.4Z" style="fill:#df1a82"/><path d="M348.94,39.19c0-12.41,7.49-19.9,17.54-19.9,11.55,0,16.62,8.63,16.62,19.47,0,.93,0,2.07-.07,3.07H359.14c.49,6.35,4.27,9.41,9.91,9.41,4.63,0,8.77-1.71,12.91-4.49l1.14,7.63A26.11,26.11,0,0,1,367.91,59C357,59,348.94,52.88,348.94,39.19Zm24.39-4c-.5-5.85-2.78-9.06-7.06-9.06-3.64,0-6.49,3-7.13,9.06Z" style="fill:#df1a82"/><path d="M385,55.17l1.28-8.49a28.12,28.12,0,0,0,14.12,4.49c3.78,0,5.64-1.28,5.64-3.42s-1.36-3.14-7.14-4.64c-9.41-2.42-13.33-5.06-13.33-12.19,0-6.85,5.27-11.56,14.4-11.56a34.8,34.8,0,0,1,13.7,2.78l-1.36,8.42A28,28,0,0,0,400,27.07c-3.21,0-4.7,1.14-4.7,3s1.28,2.78,6.77,4.21c10,2.64,13.77,5.28,13.77,12.41,0,7.77-5.49,12.19-15.48,12.19A34.53,34.53,0,0,1,385,55.17Z" style="fill:#df1a82"/><path d="M55.69,89c0-8,5-12.84,11.64-12.84S79,81,79,89s-5,12.79-11.73,12.79S55.69,97,55.69,89Zm17,0c0-4.37-1.93-7.5-5.33-7.5S62,84.58,62,89s1.89,7.46,5.3,7.46S72.66,93.41,72.66,89Z" style="fill:#374a63"/><path d="M81.35,76.71H87L87.52,80c1.75-2,4.09-3.82,7.41-3.82,5.1,0,9.15,3.82,9.15,12.15,0,9.15-5.06,13.2-10.67,13.2a16.47,16.47,0,0,1-5.52-.92v9.43H81.35Zm16.2,12c0-4.6-1.93-6.72-4.46-6.72-2.08,0-3.69,1.24-5.2,3.13V95.39a9.55,9.55,0,0,0,4.37.92C95.29,96.31,97.55,93.91,97.55,88.72Z" style="fill:#374a63"/><path d="M106.24,69.12a3.77,3.77,0,0,1,7.54,0,3.77,3.77,0,0,1-7.54,0Zm.51,7.59h6.53v24.57h-6.53Z" style="fill:#374a63"/><path d="M117.1,76.71h5.61l.55,3.4c2.3-2.16,4.83-3.91,8-3.91,4.6,0,7,2.81,7,7.46v17.62h-6.53V85.4c0-2-.88-3.4-3-3.4-1.8,0-3.55,1.1-5.2,2.81v16.47H117.1Z" style="fill:#374a63"/><path d="M140.51,95c0-5.89,4.74-8.51,14.58-9.47v-.65c0-2.53-1.47-3.49-4.09-3.49a20.42,20.42,0,0,0-8.15,2l-.78-5.1a24.28,24.28,0,0,1,9.85-2c6.48,0,9.7,2.3,9.7,8.28v16.75h-5.7l-.51-3.13a10.87,10.87,0,0,1-8,3.63C143.27,101.78,140.51,99.34,140.51,95Zm14.58-.46V89.13c-6.58.83-8.14,2.76-8.14,5.06A2.58,2.58,0,0,0,149.8,97,7.82,7.82,0,0,0,155.09,94.51Z" style="fill:#374a63"/><path d="M165.07,76.71h5.61l.56,3.4c2.3-2.16,4.83-3.91,8-3.91,4.6,0,7,2.81,7,7.46v17.62h-6.54V85.4c0-2-.87-3.4-3-3.4-1.79,0-3.54,1.1-5.19,2.81v16.47h-6.54Z" style="fill:#374a63"/><path d="M198.79,99.34l.83-5.47a18.12,18.12,0,0,0,9.11,2.9c2.44,0,3.63-.83,3.63-2.21s-.87-2-4.6-3c-6.07-1.57-8.6-3.27-8.6-7.87,0-4.41,3.4-7.45,9.29-7.45A22.46,22.46,0,0,1,217.28,78l-.87,5.43a18.07,18.07,0,0,0-8-2.25c-2.07,0-3,.73-3,1.93s.83,1.79,4.37,2.71c6.45,1.71,8.88,3.41,8.88,8,0,5-3.54,7.87-10,7.87A22.21,22.21,0,0,1,198.79,99.34Z" style="fill:#374a63"/><path d="M219.67,89c0-8,5-12.84,11.64-12.84S243,81,243,89s-5,12.79-11.73,12.79S219.67,97,219.67,89Zm17,0c0-4.37-1.93-7.5-5.34-7.5S226,84.58,226,89s1.89,7.46,5.29,7.46S236.65,93.41,236.65,89Z" style="fill:#374a63"/><path d="M245.34,99.9V65.48h6.53V79.42a9.63,9.63,0,0,1,6.86-3.22c5.15,0,9.15,3.82,9.15,12.15,0,9-4.92,13.25-12.33,13.25A30.67,30.67,0,0,1,245.34,99.9Zm16-11.18c0-4.6-1.88-6.72-4.42-6.72-1.93,0-3.58,1.24-5.06,2.94V95.66a9.31,9.31,0,0,0,3.55.6C259,96.26,261.35,94.1,261.35,88.72Z" style="fill:#374a63"/><path d="M270.27,76.71h5.62l.78,4.92c1.56-2.85,3.91-5.24,7.68-5.43l1.06,6.54a11.47,11.47,0,0,0-8.6,4.55v14h-6.54Z" style="fill:#374a63"/><path d="M285.45,89c0-8,4.83-12.84,11.32-12.84,7.45,0,10.72,5.57,10.72,12.56,0,.6,0,1.34-.05,2H292c.32,4.1,2.76,6.07,6.4,6.07a14.67,14.67,0,0,0,8.32-2.9l.74,4.93a16.83,16.83,0,0,1-9.8,2.94C290.65,101.78,285.45,97.87,285.45,89Zm15.74-2.58c-.33-3.77-1.8-5.84-4.56-5.84-2.34,0-4.18,1.93-4.6,5.84Z" style="fill:#374a63"/><path d="M318.89,89c0-8,4.83-12.84,11.32-12.84,7.45,0,10.72,5.57,10.72,12.56,0,.6,0,1.34-.05,2H325.47c.32,4.1,2.76,6.07,6.4,6.07a14.67,14.67,0,0,0,8.32-2.9l.74,4.93a16.83,16.83,0,0,1-9.8,2.94C324.09,101.78,318.89,97.87,318.89,89Zm15.74-2.58c-.33-3.77-1.8-5.84-4.56-5.84-2.34,0-4.18,1.93-4.6,5.84Z" style="fill:#374a63"/><path d="M343.64,65.48h6.53v35.8h-6.53Z" style="fill:#374a63"/><g id="adulto_mujer"><path d="M23.87,16.86a8.43,8.43,0,1,0-8.43-8.43A8.46,8.46,0,0,0,23.87,16.86Z" style="fill:#a71f65"/><path d="M47.67,50.08,40.73,27.44s-2.48-6.62-7.94-6.62H15.11c-5.45,0-7.93,6.62-7.93,6.62L.23,50.08s-1.32,4.13,2.32,5.12c3.47,1,4.63-3,4.63-3L12.8,33.39s.33-1.49,1.32-1.16c1.15.33.66,1.82.66,1.82L4.86,69.58H14V95a4.3,4.3,0,0,0,8.6,0V69.58H25V95a4.3,4.3,0,1,0,8.59,0V69.58h9.09L33,34.21s-.5-1.49.66-1.82,1.32,1.16,1.32,1.16l5.62,18.84s1,4.13,4.63,3S47.67,50.08,47.67,50.08Z" style="fill:#a71f65"/></g><path d="M10.76,119h5.62l.55,3.31c1.75-2,4.09-3.82,7.4-3.82,5.11,0,9.16,3.82,9.16,12.14,0,9.16-5.06,13.21-10.67,13.21a16.73,16.73,0,0,1-5.52-.92v9.43H10.76ZM27,131c0-4.6-1.94-6.71-4.47-6.71-2.07,0-3.68,1.24-5.19,3.12v10.26a9.55,9.55,0,0,0,4.37.92C24.7,138.54,27,136.15,27,131Z" style="fill:#374a63"/><path d="M35.88,119h5.61l.78,4.92c1.57-2.85,3.91-5.25,7.69-5.43L51,125a11.49,11.49,0,0,0-8.6,4.56v14H35.88Z" style="fill:#374a63"/><path d="M52.07,111.36a3.78,3.78,0,0,1,7.55,0,3.78,3.78,0,0,1-7.55,0Zm.51,7.59h6.53v24.56H52.58Z" style="fill:#374a63"/><path d="M62.93,119h5.61l.55,3.4c2.3-2.16,4.83-3.91,8-3.91,4.6,0,7,2.81,7,7.45v17.62H77.65V127.64c0-2-.88-3.4-3-3.4-1.8,0-3.54,1.1-5.2,2.8v16.47H62.93Z" style="fill:#374a63"/><path d="M86.39,131.37c0-8.61,5.38-12.88,12-12.88a14,14,0,0,1,7.55,2l-.92,5.85a9.79,9.79,0,0,0-6.21-2.21c-3.36,0-5.85,2.44-5.85,7.13s2.67,7.13,6.22,7.13a9.73,9.73,0,0,0,6.16-2.21l.83,5.48a13.72,13.72,0,0,1-8,2.34C91.22,144,86.39,139.37,86.39,131.37Z" style="fill:#374a63"/><path d="M108.19,111.36A3.77,3.77,0,1,1,112,115,3.58,3.58,0,0,1,108.19,111.36Zm.51,7.59h6.53v24.56H108.7Z" style="fill:#374a63"/><path d="M119.05,119h5.61l.55,3.31c1.75-2,4.09-3.82,7.41-3.82,5.1,0,9.15,3.82,9.15,12.14,0,9.16-5.06,13.21-10.67,13.21a16.73,16.73,0,0,1-5.52-.92v9.43h-6.53Zm16.19,12c0-4.6-1.93-6.71-4.46-6.71-2.07,0-3.68,1.24-5.2,3.12v10.26a9.58,9.58,0,0,0,4.37.92C133,138.54,135.24,136.15,135.24,131Z" style="fill:#374a63"/><path d="M142.87,137.21c0-5.89,4.74-8.51,14.59-9.48v-.64c0-2.53-1.48-3.5-4.1-3.5a20.38,20.38,0,0,0-8.14,2l-.78-5.11a24.44,24.44,0,0,1,9.84-2c6.49,0,9.71,2.3,9.71,8.28v16.74h-5.71l-.5-3.13a10.86,10.86,0,0,1-8,3.64C145.63,144,142.87,141.58,142.87,137.21Zm14.59-.46v-5.38c-6.58.83-8.15,2.76-8.15,5.06a2.59,2.59,0,0,0,2.86,2.76A7.84,7.84,0,0,0,157.46,136.75Z" style="fill:#374a63"/><path d="M167.71,107.72h6.54v35.79h-6.54Z" style="fill:#374a63"/><path d="M188.27,119h5.62l.55,3.31c1.75-2,4.09-3.82,7.41-3.82,5.1,0,9.15,3.82,9.15,12.14,0,9.16-5.06,13.21-10.67,13.21a16.73,16.73,0,0,1-5.52-.92v9.43h-6.54Zm16.2,12c0-4.6-1.93-6.71-4.46-6.71-2.08,0-3.69,1.24-5.2,3.12v10.26a9.55,9.55,0,0,0,4.37.92C202.21,138.54,204.47,136.15,204.47,131Z" style="fill:#374a63"/><path d="M213.39,119H219l.78,4.92c1.57-2.85,3.91-5.25,7.69-5.43l1.06,6.53a11.5,11.5,0,0,0-8.61,4.56v14h-6.53Z" style="fill:#374a63"/><path d="M228.57,131.28c0-8,5-12.84,11.64-12.84s11.68,4.83,11.68,12.79-5,12.79-11.73,12.79S228.57,139.23,228.57,131.28Zm17,0c0-4.38-1.94-7.5-5.34-7.5s-5.29,3-5.29,7.45,1.88,7.45,5.29,7.45S245.55,135.65,245.55,131.28Z" style="fill:#374a63"/><path d="M254.24,142.13V107.72h6.53v13.94a9.62,9.62,0,0,1,6.85-3.22c5.16,0,9.16,3.82,9.16,12.14,0,9-4.92,13.25-12.33,13.25A30.37,30.37,0,0,1,254.24,142.13Zm16-11.18c0-4.6-1.89-6.71-4.42-6.71-1.93,0-3.59,1.24-5.06,2.94V137.9a9.45,9.45,0,0,0,3.54.6C267.9,138.5,270.25,136.34,270.25,131Z" style="fill:#374a63"/><path d="M279.44,107.72H286v35.79h-6.54Z" style="fill:#374a63"/><path d="M288.55,131.28c0-8,4.83-12.84,11.32-12.84,7.45,0,10.72,5.57,10.72,12.56,0,.6,0,1.33,0,2H295.13c.32,4.09,2.76,6.07,6.4,6.07a14.67,14.67,0,0,0,8.32-2.9l.74,4.92a16.84,16.84,0,0,1-9.8,3C293.75,144,288.55,140.11,288.55,131.28Zm15.74-2.58c-.33-3.77-1.8-5.84-4.56-5.84-2.34,0-4.18,1.93-4.6,5.84Z" style="fill:#374a63"/><path d="M313,119h5.62l.55,3.4c2.3-2.21,4.69-3.91,8-3.91s5.29,1.61,6.21,4c2.21-2.21,4.84-4,8.06-4,4.6,0,6.94,2.81,6.94,7.45v17.62h-6.53V127.64c0-2-.74-3.4-2.81-3.4-1.75,0-3.45,1.1-5.06,2.8v16.47h-6.53V127.64c0-2-.78-3.4-2.85-3.4-1.75,0-3.41,1.1-5.06,2.8v16.47H313Z" style="fill:#374a63"/><path d="M350.61,137.21c0-5.89,4.73-8.51,14.58-9.48v-.64c0-2.53-1.47-3.5-4.09-3.5a20.39,20.39,0,0,0-8.15,2l-.78-5.11a24.44,24.44,0,0,1,9.84-2c6.49,0,9.71,2.3,9.71,8.28v16.74H366l-.51-3.13a10.84,10.84,0,0,1-8,3.64C353.37,144,350.61,141.58,350.61,137.21Zm14.58-.46v-5.38c-6.58.83-8.14,2.76-8.14,5.06a2.58,2.58,0,0,0,2.85,2.76A7.84,7.84,0,0,0,365.19,136.75Z" style="fill:#374a63"/><path d="M9.57,172.92c0-9.2,5.06-13.25,10.67-13.25a16.52,16.52,0,0,1,5.52.92V148.72h6.53v35.79H26.68l-.55-3.31c-1.75,2-4.1,3.82-7.41,3.82C13.62,185,9.57,181.2,9.57,172.92Zm16.19,3.17V165.83a9.71,9.71,0,0,0-4.37-.92c-3,0-5.24,2.4-5.24,7.59,0,4.61,1.88,6.72,4.46,6.72C22.63,179.22,24.24,178,25.76,176.09Z" style="fill:#374a63"/><path d="M34.64,172.28c0-8,4.83-12.84,11.31-12.84,7.46,0,10.72,5.57,10.72,12.56,0,.6,0,1.33,0,2H41.22c.32,4.09,2.76,6.07,6.39,6.07a14.7,14.7,0,0,0,8.33-2.9l.73,4.92a16.84,16.84,0,0,1-9.8,3C39.84,185,34.64,181.11,34.64,172.28Zm15.73-2.58c-.32-3.77-1.79-5.84-4.55-5.84-2.35,0-4.19,1.93-4.6,5.84Z" style="fill:#374a63"/><path d="M58.77,150H65.3v35.8H58.77Z" style="fill:#374a63"/><text id="svg_nombre_comuna" transform="translate(266.35 267.45)" style="font-size:68.67402648925781px;fill:#067dba;font-family:UNFPA-Bold;font-weight:700;letter-spacing:-0.05000554367941668em">Popular</text><path d="M71.81,182c0-16,9.79-26.78,24.48-26.78a27.11,27.11,0,0,1,14.41,3.67l-1.56,9.92a20.23,20.23,0,0,0-12.31-4.42c-8.7,0-14.21,6.6-14.21,17.55s6,17.54,14.69,17.54A23.35,23.35,0,0,0,110,195.36l1.5,9.11a28.37,28.37,0,0,1-15,4.22C81.19,208.69,71.81,198.15,71.81,182Z" style="fill:#de1f26"/><path d="M114,189.72c0-11.76,7.34-19,17.2-19s17.27,7.14,17.27,18.9-7.34,18.9-17.33,18.9S114,201.48,114,189.72Zm25.09,0c0-6.46-2.85-11.08-7.89-11.08s-7.82,4.48-7.82,11,2.79,11,7.82,11S139.06,196.18,139.06,189.72Z" style="fill:#4c9b45"/><path d="M151.91,171.5h8.3l1.16,7.27c2.31-4.21,5.77-7.75,11.35-8l1.56,9.65a17,17,0,0,0-12.71,6.73V207.8h-9.66Z" style="fill:#03a5d4"/><path d="M176.19,171.5h8.29l1.16,7.27c2.31-4.21,5.78-7.75,11.36-8l1.56,9.65a17,17,0,0,0-12.71,6.73V207.8h-9.66Z" style="fill:#03a5d4"/><path d="M198.63,189.72c0-11.83,7.14-19,16.73-19,11,0,15.84,8.23,15.84,18.56,0,.88,0,2-.07,2.92H208.35c.48,6.05,4.08,9,9.45,9,4.42,0,8.37-1.63,12.31-4.28l1.09,7.27a24.84,24.84,0,0,1-14.48,4.35C206.31,208.55,198.63,202.77,198.63,189.72Zm23.25-3.81c-.47-5.57-2.65-8.63-6.73-8.63-3.47,0-6.18,2.85-6.8,8.63Z" style="fill:#ea6524"/><path d="M235.35,218.75l1.43-7.75a25,25,0,0,0,11.69,3c5.51,0,8.23-2.58,8.23-7.48v-3.67c-2.31,2.38-5.58,4.76-10.13,4.76C239,207.6,233,202,233,190.13c0-12.92,7.27-19.11,18.22-19.11a44.53,44.53,0,0,1,15.09,2.52V206.1c0,9.8-5.57,15.3-17.13,15.3A35.84,35.84,0,0,1,235.35,218.75ZM256.7,195V179.79a13.46,13.46,0,0,0-5.24-.88c-5.3,0-8.7,3.26-8.7,10.81,0,6.46,2.72,9.59,6.53,9.59C252.14,199.31,254.52,197.47,256.7,195Z" style="fill:#4c7838"/><path d="M271.32,160.28a5.58,5.58,0,1,1,5.58,5.37A5.3,5.3,0,0,1,271.32,160.28Zm.75,11.22h9.65v36.3h-9.65Z" style="fill:#094c81"/><path d="M287.37,171.5h8.29l.82,5c3.4-3.27,6.93-5.78,11.83-5.78s7.82,2.38,9.18,5.85c3.26-3.27,7.14-5.85,11.9-5.85,6.8,0,10.27,4.15,10.27,11v26H330V184.35c0-3-1.09-5-4.15-5-2.58,0-5.1,1.63-7.48,4.14V207.8h-9.65V184.35c0-3-1.16-5-4.22-5-2.58,0-5,1.63-7.48,4.14V207.8h-9.65Z" style="fill:#f89c26"/><path d="M344.49,160.28a5.58,5.58,0,0,1,11.15,0,5.58,5.58,0,0,1-11.15,0Zm.75,11.22h9.65v36.3h-9.65Z" style="fill:#ee4128"/><path d="M358.7,189.72c0-11.83,7.14-19,16.73-19,11,0,15.84,8.23,15.84,18.56,0,.88,0,2-.07,2.92H368.42c.48,6.05,4.08,9,9.45,9,4.42,0,8.37-1.63,12.31-4.28l1.09,7.27a24.89,24.89,0,0,1-14.48,4.35C366.38,208.55,358.7,202.77,358.7,189.72ZM382,185.91c-.47-5.57-2.65-8.63-6.73-8.63-3.47,0-6.19,2.85-6.8,8.63Z" style="fill:#02acd7"/><path d="M394.87,171.5h8.3l.82,5c3.4-3.2,7.13-5.78,11.89-5.78,6.8,0,10.41,4.15,10.41,11v26h-9.66V184.35c0-3-1.29-5-4.42-5-2.65,0-5.23,1.63-7.68,4.14V207.8h-9.66Z" style="fill:#49773d"/><path d="M433.29,197.13V179.38h-5V171.5h5V159.6h9.59v11.9h7.82v7.88h-7.82v16.19c0,2.92,1.36,4.48,4.69,4.48a15.73,15.73,0,0,0,3.33-.34v8.16a19.47,19.47,0,0,1-5.23.55C438.33,208.42,433.29,205.7,433.29,197.13Z" style="fill:#f26e26"/><path d="M452.61,189.72c0-11.76,7.34-19,17.2-19s17.27,7.14,17.27,18.9-7.35,18.9-17.34,18.9S452.61,201.48,452.61,189.72Zm25.09,0c0-6.46-2.86-11.08-7.89-11.08s-7.82,4.48-7.82,11,2.79,11,7.82,11S477.7,196.18,477.7,189.72Z" style="fill:#8e1939"/></g></g></svg>