<svg xmlns="http://www.w3.org/2000/svg" viewBox="0 0 857.86 339.05">
    <title>p2_co_h_a</title>
    <g id="Layer_2" data-name="Layer 2">
        <g id="Capa_1" data-name="Capa 1">
            <g id="adulto_hombre">
                <path d="M51.68,32.26A16.13,16.13,0,1,0,35.55,16.13,16.2,16.2,0,0,0,51.68,32.26Z" style="fill:#216734" />
                <path d="M70.66,38.27H33c-10.44,0-19.61,10.12-19.61,21.51v44.59a6.33,6.33,0,1,0,12.65,0V62.31s0-2.85,2.53-2.85,2.85,2.85,2.85,2.85v118.6a8.86,8.86,0,1,0,17.71,0v-66.1a2.41,2.41,0,0,1,2.53-2.53h0a2.42,2.42,0,0,1,2.53,2.53v66.1a8.86,8.86,0,1,0,17.71,0V62.31s.32-2.85,2.85-2.85,2.53,2.85,2.53,2.85v42.06a6.33,6.33,0,1,0,12.65,0V59.78C90,48.39,81.41,38.27,70.66,38.27Z" style="fill:#216734" />
            </g>
            <path d="M108,25.82h10.74V68.3h17.58v9.52H108Z" style="fill:#3fad49" />
            <path d="M137.64,68.44c0-8.76,7-12.66,21.68-14.09v-1c0-3.76-2.18-5.2-6.08-5.2a30.33,30.33,0,0,0-12.12,2.94L140,43.54a36.18,36.18,0,0,1,14.64-2.95C164.25,40.59,169,44,169,52.91V77.82h-8.48l-.76-4.66c-3,3-6.63,5.41-11.9,5.41C141.74,78.57,137.64,74.94,137.64,68.44Zm21.68-.68v-8c-9.78,1.23-12.11,4.11-12.11,7.53,0,2.6,1.65,4.1,4.25,4.1C154.26,71.38,156.93,70,159.32,67.76Z" style="fill:#3fad49" />
            <path d="M172.4,74.94l1.23-8.14a26.94,26.94,0,0,0,13.54,4.31c3.63,0,5.41-1.23,5.41-3.28s-1.3-3-6.84-4.45c-9-2.33-12.8-4.86-12.8-11.7,0-6.57,5.07-11.09,13.82-11.09a33.36,33.36,0,0,1,13.14,2.67l-1.3,8.08A26.76,26.76,0,0,0,186.76,48c-3.08,0-4.51,1.1-4.51,2.88s1.23,2.67,6.5,4C198.33,57.43,202,60,202,66.8c0,7.46-5.27,11.7-14.84,11.7A33,33,0,0,1,172.4,74.94Z" style="fill:#3fad49" />
            <path d="M220.5,24.58h9.71V45.86c3.08-2.8,6.78-5.33,11.5-5.33,6.91,0,10.53,4.17,10.53,11.08V77.82h-9.71V54.21c0-3-1.3-5.06-4.52-5.06-2.67,0-5.34,1.64-7.8,4.17v24.5H220.5Z" style="fill:#3fad49" />
            <path d="M255.53,59.62c0-11.84,7.39-19.09,17.31-19.09s17.38,7.18,17.38,19-7.39,19-17.45,19S255.53,71.45,255.53,59.62Zm25.25,0c0-6.5-2.88-11.16-7.94-11.16S265,53,265,59.55s2.81,11.08,7.87,11.08S280.78,66.12,280.78,59.62Z" style="fill:#3fad49" />
            <path d="M293.71,41.28h8.35l.82,5.06c3.42-3.28,7-5.81,11.9-5.81,5.07,0,7.87,2.39,9.24,5.88,3.28-3.28,7.18-5.88,12-5.88,6.85,0,10.33,4.17,10.33,11.08V77.82h-9.71V54.21c0-3-1.1-5.06-4.17-5.06-2.6,0-5.14,1.64-7.53,4.17v24.5h-9.72V54.21c0-3-1.16-5.06-4.24-5.06-2.6,0-5.06,1.64-7.52,4.17v24.5h-9.72Z" style="fill:#3fad49" />
            <path d="M351.53,75.76V24.58h9.71V45.32c2.4-2.4,5.68-4.79,10.2-4.79,7.66,0,13.61,5.68,13.61,18.06,0,13.41-7.32,19.7-18.33,19.7A45.09,45.09,0,0,1,351.53,75.76Zm23.81-16.62c0-6.84-2.81-10-6.57-10-2.87,0-5.34,1.85-7.53,4.38V69.47a14.06,14.06,0,0,0,5.27.89C371.85,70.36,375.34,67.14,375.34,59.14Z" style="fill:#3fad49" />
            <path d="M388.61,41.28H397l1.16,7.32c2.33-4.24,5.82-7.8,11.43-8.07l1.57,9.71A17.06,17.06,0,0,0,398.33,57v20.8h-9.72Z" style="fill:#3fad49" />
            <path d="M411.19,59.62c0-11.91,7.19-19.09,16.83-19.09,11.09,0,16,8.28,16,18.68,0,.88,0,2-.07,2.94H421c.48,6.09,4.1,9,9.51,9,4.45,0,8.41-1.64,12.38-4.31l1.1,7.32a25,25,0,0,1-14.58,4.38C418.93,78.57,411.19,72.75,411.19,59.62Zm23.4-3.84c-.48-5.61-2.67-8.69-6.77-8.69-3.49,0-6.23,2.88-6.84,8.69Z" style="fill:#3fad49" />
            <path d="M445.82,74.94l1.23-8.14a27,27,0,0,0,13.55,4.31c3.62,0,5.4-1.23,5.4-3.28s-1.3-3-6.84-4.45c-9-2.33-12.8-4.86-12.8-11.7,0-6.57,5.07-11.09,13.82-11.09a33.36,33.36,0,0,1,13.14,2.67L472,51.34A26.76,26.76,0,0,0,460.18,48c-3.07,0-4.51,1.1-4.51,2.88s1.23,2.67,6.5,4c9.58,2.54,13.2,5.07,13.2,11.91,0,7.46-5.26,11.7-14.84,11.7A33,33,0,0,1,445.82,74.94Z" style="fill:#3fad49" />
            <path d="M492,68.44c0-8.76,7.05-12.66,21.69-14.09v-1c0-3.76-2.19-5.2-6.09-5.2a30.32,30.32,0,0,0-12.11,2.94l-1.16-7.59A36.15,36.15,0,0,1,509,40.59c9.65,0,14.44,3.43,14.44,12.32V77.82h-8.49l-.75-4.66c-3,3-6.64,5.41-11.91,5.41C496.11,78.57,492,74.94,492,68.44Zm21.69-.68v-8c-9.78,1.23-12.11,4.11-12.11,7.53,0,2.6,1.64,4.1,4.24,4.1C508.63,71.38,511.3,70,513.69,67.76Z" style="fill:#3fad49" />
            <path d="M526.76,60.57c0-13.68,7.53-19.7,15.87-19.7a24.43,24.43,0,0,1,8.21,1.37V24.58h9.72V77.82h-8.35l-.82-4.93c-2.6,2.94-6.09,5.68-11,5.68C532.78,78.57,526.76,72.89,526.76,60.57Zm24.08,4.73V50a14.24,14.24,0,0,0-6.5-1.37c-4.51,0-7.8,3.56-7.8,11.29,0,6.84,2.81,10,6.64,10C546.19,70,548.59,68.1,550.84,65.3Z" style="fill:#3fad49" />
            <path d="M565.76,67.48V41.28h9.72v23.6c0,3,1.3,5.07,4.38,5.07,2.66,0,5.26-1.65,7.73-4.18V41.28h9.71V77.82H589l-.83-5.07c-3.35,3.22-7.18,5.82-12,5.82C569.32,78.57,565.76,74.39,565.76,67.48Z" style="fill:#3fad49" />
            <path d="M603.05,24.58h9.72V77.82h-9.72Z" style="fill:#3fad49" />
            <path d="M620.36,67.07V49.22H615.3V41.28h5.06v-12H630v12h7.87v7.94H630V65.5c0,2.94,1.37,4.52,4.72,4.52a15.81,15.81,0,0,0,3.35-.35v8.21a19.7,19.7,0,0,1-5.26.55C625.43,78.43,620.36,75.69,620.36,67.07Z" style="fill:#3fad49" />
            <path d="M639.79,59.62c0-11.84,7.39-19.09,17.32-19.09s17.37,7.18,17.37,19-7.39,19-17.44,19S639.79,71.45,639.79,59.62Zm25.25,0c0-6.5-2.87-11.16-7.93-11.16s-7.87,4.52-7.87,11.09,2.8,11.08,7.87,11.08S665,66.12,665,59.62Z" style="fill:#3fad49" />
            <path d="M676.2,74.94l1.23-8.14A27,27,0,0,0,691,71.11c3.62,0,5.4-1.23,5.4-3.28s-1.3-3-6.84-4.45c-9-2.33-12.8-4.86-12.8-11.7,0-6.57,5.07-11.09,13.83-11.09a33.35,33.35,0,0,1,13.13,2.67l-1.3,8.08A26.75,26.75,0,0,0,690.57,48c-3.08,0-4.52,1.1-4.52,2.88s1.23,2.67,6.5,4c9.58,2.54,13.2,5.07,13.2,11.91,0,7.46-5.26,11.7-14.84,11.7A33,33,0,0,1,676.2,74.94Z" style="fill:#3fad49" />
            <path d="M596.25,176.6c0-6.95,5.59-10,17.21-11.19v-.76c0-3-1.73-4.13-4.83-4.13a24,24,0,0,0-9.61,2.34l-.93-6a28.79,28.79,0,0,1,11.63-2.33c7.66,0,11.46,2.71,11.46,9.77v19.78h-6.74l-.6-3.7a12.8,12.8,0,0,1-9.45,4.29C599.5,184.64,596.25,181.76,596.25,176.6Zm17.21-.54v-6.35c-7.76,1-9.61,3.26-9.61,6a3.06,3.06,0,0,0,3.37,3.26A9.24,9.24,0,0,0,613.46,176.06Z" style="fill:#374a63" />
            <path d="M625.25,155h6.63l.65,4c2.72-2.55,5.71-4.62,9.51-4.62,5.43,0,8.31,3.31,8.31,8.8v20.81h-7.71V165.3c0-2.38-1-4-3.53-4-2.12,0-4.19,1.3-6.14,3.31v19.45h-7.72ZM638,150c-2.28-1.09-3-1.41-3.91-1.41s-1.31.49-1.79,2.39h-4.13c.59-5.81,2.55-8.2,5.48-8.2a9.32,9.32,0,0,1,4.24,1.19c2.28,1.09,3,1.41,3.91,1.41s1.31-.49,1.79-2.39h4.13c-.59,5.82-2.55,8.21-5.48,8.21A9.14,9.14,0,0,1,638,150Z" style="fill:#374a63" />
            <path d="M653,169.6c0-9.4,5.87-15.16,13.74-15.16s13.8,5.7,13.8,15.1-5.87,15.1-13.85,15.1S653,179,653,169.6Zm20,0c0-5.16-2.28-8.86-6.3-8.86s-6.24,3.59-6.24,8.8,2.22,8.8,6.24,8.8S673,174.76,673,169.6Z" style="fill:#374a63" />
            <path d="M681.86,181.76l1-6.46a21.45,21.45,0,0,0,10.75,3.42c2.88,0,4.29-1,4.29-2.6s-1-2.4-5.43-3.54c-7.17-1.84-10.16-3.85-10.16-9.28,0-5.22,4-8.8,11-8.8a26.54,26.54,0,0,1,10.43,2.11l-1,6.41a21.28,21.28,0,0,0-9.39-2.66c-2.45,0-3.59.87-3.59,2.28s1,2.12,5.16,3.21c7.61,2,10.49,4,10.49,9.45,0,5.92-4.19,9.29-11.79,9.29A26.11,26.11,0,0,1,681.86,181.76Z" style="fill:#374a63" />
            <path d="M103,113.11c0-9.45,5.7-15.15,13.36-15.15,8.8,0,12.66,6.57,12.66,14.83,0,.7,0,1.57-.06,2.33h-18.2c.38,4.84,3.26,7.17,7.55,7.17a17.39,17.39,0,0,0,9.84-3.42l.87,5.81a19.92,19.92,0,0,1-11.57,3.48C109.12,128.16,103,123.54,103,113.11Zm18.57-3c-.38-4.46-2.12-6.9-5.37-6.9-2.77,0-5,2.28-5.44,6.9Z" style="fill:#374a63" />
            <path d="M131.89,98.55h6.62l.65,4c2.72-2.55,5.71-4.61,9.51-4.61,5.43,0,8.31,3.31,8.31,8.8v20.8h-7.71V108.82c0-2.39-1-4-3.53-4-2.12,0-4.19,1.3-6.14,3.31v19.45h-7.71Z" style="fill:#374a63" />
            <path d="M162.58,119V104.85h-4v-6.3h4v-9.5h7.66v9.5h6.24v6.3h-6.24v12.93c0,2.34,1.08,3.59,3.75,3.59a13.2,13.2,0,0,0,2.66-.27v6.52a16,16,0,0,1-4.19.43C166.6,128.05,162.58,125.88,162.58,119Z" style="fill:#374a63" />
            <path d="M179.47,98.55h6.63l.92,5.82c1.85-3.37,4.62-6.2,9.07-6.41l1.25,7.71a13.53,13.53,0,0,0-10.15,5.38v16.51h-7.72Z" style="fill:#374a63" />
            <path d="M197.4,113.11c0-9.45,5.7-15.15,13.36-15.15,8.8,0,12.66,6.57,12.66,14.83,0,.7,0,1.57-.06,2.33H205.17c.38,4.84,3.26,7.17,7.55,7.17a17.36,17.36,0,0,0,9.83-3.42l.87,5.81a19.88,19.88,0,0,1-11.57,3.48C203.54,128.16,197.4,123.54,197.4,113.11Zm18.58-3c-.38-4.46-2.12-6.9-5.38-6.9-2.77,0-4.94,2.28-5.43,6.9Z" style="fill:#374a63" />
            <path d="M230.64,169.17l29.64-30.65c6.74-6.85,10-11.68,10-17.52,0-7.52-4.61-11.34-12.69-11.34s-15.61,3.71-22.8,9.1l-2.24-14.94a44.21,44.21,0,0,1,27.4-9c17.07,0,27.28,9,27.28,24.48,0,11.11-5.27,18.19-15.72,28.52l-19.65,19.65h35.82v14.15h-57Z" style="fill:#01a5d4" />
            <path d="M303.52,169.51c16.84-3.48,29.87-11,34.25-25a35.22,35.22,0,0,1-20.1,6.51c-15.05,0-25.49-9-25.49-26.61,0-18.08,13-29.64,30.76-29.64,18.87,0,32,12.46,32,36,0,30.32-20.55,47.16-49.19,52.67Zm35.59-37.95v-.23C339,115.84,332.26,108,322.83,108c-8.42,0-14.26,5.72-14.26,15.49,0,9.21,4.72,14.38,14.15,14.38C328.67,137.85,334.06,135.49,339.11,131.56Z" style="fill:#01a5d4" />
            <path d="M387.06,203.54l-2.13-13a24.14,24.14,0,0,0,7.07.9c4.27,0,7.86-1.91,9.66-6.29l1.23-3.26-22.23-60.18h17.52l13,40.42,12.69-40.42h15.72l-22.34,62.65c-5.39,14.94-12.35,19.77-24.37,19.77A23.81,23.81,0,0,1,387.06,203.54Z" style="fill:#01a5d4" />
            <path d="M465.1,177l2.47-15.16A45.14,45.14,0,0,0,491,169c9,0,15.61-4.49,15.61-13.47s-6.74-13.48-17-13.48a38.79,38.79,0,0,0-10.89,1.68l-10.33-2.35,3-45H520v14.15H485L483.52,129a49.06,49.06,0,0,1,9.09-.89c19,0,30.66,9.43,30.66,26.61,0,18.64-13,28.52-32,28.52C481.05,183.21,471.84,180.74,465.1,177Z" style="fill:#01a5d4" />
            <path d="M537.75,169.51c16.85-3.48,29.87-11,34.25-25A35.17,35.17,0,0,1,551.9,151c-15,0-25.49-9-25.49-26.61,0-18.08,13-29.64,30.77-29.64,18.86,0,32,12.46,32,36,0,30.32-20.55,47.16-49.18,52.67Zm35.6-37.95v-.23c-.11-15.49-6.85-23.35-16.28-23.35-8.42,0-14.26,5.72-14.26,15.49,0,9.21,4.71,14.38,14.15,14.38C562.91,137.85,568.3,135.49,573.35,131.56Z" style="fill:#01a5d4" />
            <path d="M0,212c0-8,5-12.84,11.64-12.84S23.33,204,23.33,212s-5,12.78-11.74,12.78S0,220,0,212Zm17,0c0-4.37-1.94-7.5-5.34-7.5s-5.29,3-5.29,7.46,1.89,7.45,5.29,7.45S17,216.38,17,212Z" style="fill:#374a63" />
            <path d="M25.67,199.68h5.61l.55,3.31c1.75-2,4.1-3.82,7.41-3.82,5.11,0,9.15,3.82,9.15,12.15,0,9.16-5.06,13.2-10.67,13.2a16.52,16.52,0,0,1-5.52-.92V233H25.67Zm16.19,12c0-4.6-1.93-6.72-4.46-6.72-2.07,0-3.68,1.24-5.2,3.13v10.26a9.58,9.58,0,0,0,4.37.92C39.61,219.28,41.86,216.89,41.86,211.69Z" style="fill:#374a63" />
            <path d="M50.55,192.09a3.78,3.78,0,1,1,3.78,3.63A3.58,3.58,0,0,1,50.55,192.09Zm.51,7.59h6.53v24.57H51.06Z" style="fill:#374a63" />
            <path d="M61.41,199.68H67l.55,3.41c2.3-2.17,4.83-3.92,8.05-3.92,4.61,0,7,2.81,7,7.46v17.62H76.13V208.38c0-2-.87-3.41-3-3.41-1.79,0-3.54,1.11-5.2,2.81v16.47H61.41Z" style="fill:#374a63" />
            <path d="M84.82,218c0-5.89,4.74-8.52,14.59-9.48v-.65c0-2.53-1.48-3.49-4.1-3.49a20.38,20.38,0,0,0-8.14,2l-.78-5.11a24.27,24.27,0,0,1,9.84-2c6.49,0,9.71,2.3,9.71,8.28v16.75h-5.7l-.51-3.13a10.87,10.87,0,0,1-8,3.63C87.58,224.75,84.82,222.32,84.82,218Zm14.59-.46V212.1c-6.58.83-8.15,2.76-8.15,5.06a2.59,2.59,0,0,0,2.86,2.76A7.87,7.87,0,0,0,99.41,217.49Z" style="fill:#374a63" />
            <path d="M109.39,199.68H115l.55,3.41c2.3-2.17,4.83-3.92,8-3.92,4.6,0,7,2.81,7,7.46v17.62h-6.53V208.38c0-2-.87-3.41-3-3.41-1.79,0-3.54,1.11-5.2,2.81v16.47h-6.53Z" style="fill:#374a63" />
            <path d="M143.11,222.32l.82-5.48a18.12,18.12,0,0,0,9.11,2.9c2.44,0,3.64-.83,3.64-2.21s-.88-2-4.6-3c-6.08-1.56-8.61-3.27-8.61-7.87,0-4.41,3.41-7.45,9.3-7.45a22.29,22.29,0,0,1,8.83,1.8l-.87,5.42a18.07,18.07,0,0,0-8-2.25c-2.07,0-3,.74-3,1.93s.83,1.8,4.37,2.72c6.44,1.7,8.88,3.4,8.88,8,0,5-3.54,7.87-10,7.87A22.28,22.28,0,0,1,143.11,222.32Z" style="fill:#374a63" />
            <path d="M164,212c0-8,5-12.84,11.64-12.84S187.31,204,187.31,212s-5,12.78-11.73,12.78S164,220,164,212Zm17,0c0-4.37-1.93-7.5-5.33-7.5s-5.29,3-5.29,7.46,1.88,7.45,5.29,7.45S181,216.38,181,212Z" style="fill:#374a63" />
            <path d="M189.66,222.87V188.46h6.53V202.4a9.63,9.63,0,0,1,6.85-3.23c5.16,0,9.16,3.82,9.16,12.15,0,9-4.92,13.25-12.33,13.25A30.37,30.37,0,0,1,189.66,222.87Zm16-11.18c0-4.6-1.89-6.72-4.42-6.72-1.93,0-3.59,1.24-5.06,2.95v10.72a9.42,9.42,0,0,0,3.54.59C203.32,219.23,205.67,217.07,205.67,211.69Z" style="fill:#374a63" />
            <path d="M214.59,199.68h5.61l.78,4.92c1.57-2.85,3.91-5.24,7.69-5.43l1.05,6.54a11.49,11.49,0,0,0-8.6,4.55v14h-6.53Z" style="fill:#374a63" />
            <path d="M229.77,212c0-8,4.83-12.84,11.31-12.84,7.46,0,10.72,5.57,10.72,12.56,0,.6,0,1.34,0,2H236.35c.32,4.1,2.76,6.08,6.39,6.08a14.77,14.77,0,0,0,8.33-2.9l.73,4.92a16.78,16.78,0,0,1-9.8,2.94C235,224.75,229.77,220.84,229.77,212Zm15.73-2.58c-.32-3.77-1.79-5.84-4.55-5.84-2.35,0-4.19,1.93-4.6,5.84Z" style="fill:#374a63" />
            <path d="M263.21,212c0-8,4.83-12.84,11.32-12.84,7.45,0,10.71,5.57,10.71,12.56,0,.6,0,1.34,0,2H269.79c.32,4.1,2.76,6.08,6.39,6.08a14.77,14.77,0,0,0,8.33-2.9l.73,4.92a16.78,16.78,0,0,1-9.79,2.94C268.41,224.75,263.21,220.84,263.21,212Zm15.73-2.58c-.32-3.77-1.79-5.84-4.55-5.84-2.35,0-4.19,1.93-4.6,5.84Z" style="fill:#374a63" />
            <path d="M288,188.46h6.53v35.79H288Z" style="fill:#374a63" />
            <path d="M1.24,240.68H6.85L7.41,244c1.75-2,4.09-3.82,7.4-3.82,5.11,0,9.16,3.82,9.16,12.15,0,9.16-5.06,13.2-10.67,13.2a16.47,16.47,0,0,1-5.52-.92V274H1.24Zm16.2,12c0-4.6-1.94-6.72-4.47-6.72-2.07,0-3.68,1.24-5.19,3.13v10.26a9.55,9.55,0,0,0,4.37.92C15.18,260.28,17.44,257.89,17.44,252.69Z" style="fill:#374a63" />
            <path d="M26.36,240.68H32l.78,4.92c1.57-2.85,3.91-5.24,7.69-5.43l1.05,6.54a11.49,11.49,0,0,0-8.6,4.55v14H26.36Z" style="fill:#374a63" />
            <path d="M42.55,233.09a3.77,3.77,0,1,1,3.77,3.63A3.58,3.58,0,0,1,42.55,233.09Zm.51,7.59h6.53v24.57H43.06Z" style="fill:#374a63" />
            <path d="M53.41,240.68H59l.55,3.41c2.3-2.17,4.83-3.92,8.05-3.92,4.6,0,7,2.81,7,7.46v17.62H68.13V249.38c0-2-.88-3.41-3-3.41-1.8,0-3.55,1.11-5.2,2.81v16.47H53.41Z" style="fill:#374a63" />
            <path d="M76.87,253.1c0-8.6,5.38-12.88,12-12.88a13.92,13.92,0,0,1,7.55,2L95.5,248a9.79,9.79,0,0,0-6.21-2.21c-3.36,0-5.85,2.44-5.85,7.14s2.67,7.13,6.21,7.13a9.81,9.81,0,0,0,6.17-2.21l.83,5.47a13.66,13.66,0,0,1-8.05,2.35C81.7,265.71,76.87,261.11,76.87,253.1Z" style="fill:#374a63" />
            <path d="M98.67,233.09a3.77,3.77,0,1,1,3.77,3.63A3.58,3.58,0,0,1,98.67,233.09Zm.51,7.59h6.53v24.57H99.18Z" style="fill:#374a63" />
            <path d="M109.53,240.68h5.61l.55,3.31c1.75-2,4.09-3.82,7.41-3.82,5.1,0,9.15,3.82,9.15,12.15,0,9.16-5.06,13.2-10.67,13.2a16.47,16.47,0,0,1-5.52-.92V274h-6.53Zm16.19,12c0-4.6-1.93-6.72-4.46-6.72-2.07,0-3.68,1.24-5.2,3.13v10.26a9.58,9.58,0,0,0,4.37.92C123.46,260.28,125.72,257.89,125.72,252.69Z" style="fill:#374a63" />
            <path d="M133.35,259c0-5.89,4.74-8.52,14.59-9.48v-.65c0-2.53-1.48-3.49-4.1-3.49a20.38,20.38,0,0,0-8.14,2l-.78-5.11a24.27,24.27,0,0,1,9.84-2c6.49,0,9.71,2.3,9.71,8.28v16.75h-5.7l-.51-3.13a10.87,10.87,0,0,1-8,3.63C136.11,265.75,133.35,263.32,133.35,259Zm14.59-.46V253.1c-6.58.83-8.15,2.76-8.15,5.06a2.59,2.59,0,0,0,2.86,2.76A7.87,7.87,0,0,0,147.94,258.49Z" style="fill:#374a63" />
            <path d="M158.19,229.46h6.54v35.79h-6.54Z" style="fill:#374a63" />
            <path d="M178.75,240.68h5.62l.55,3.31c1.75-2,4.09-3.82,7.41-3.82,5.1,0,9.15,3.82,9.15,12.15,0,9.16-5.06,13.2-10.67,13.2a16.47,16.47,0,0,1-5.52-.92V274h-6.54Zm16.2,12c0-4.6-1.93-6.72-4.46-6.72-2.07,0-3.68,1.24-5.2,3.13v10.26a9.58,9.58,0,0,0,4.37.92C192.69,260.28,195,257.89,195,252.69Z" style="fill:#374a63" />
            <path d="M203.87,240.68h5.61l.79,4.92c1.56-2.85,3.91-5.24,7.68-5.43l1.06,6.54a11.49,11.49,0,0,0-8.61,4.55v14h-6.53Z" style="fill:#374a63" />
            <path d="M219.05,253c0-8,5-12.84,11.64-12.84S242.38,245,242.38,253s-5,12.78-11.74,12.78S219.05,261,219.05,253Zm17,0c0-4.37-1.94-7.5-5.34-7.5s-5.29,3-5.29,7.46,1.89,7.45,5.29,7.45S236,257.38,236,253Z" style="fill:#374a63" />
            <path d="M244.72,263.87V229.46h6.53V243.4a9.63,9.63,0,0,1,6.86-3.23c5.15,0,9.15,3.82,9.15,12.15,0,9-4.92,13.25-12.33,13.25A30.37,30.37,0,0,1,244.72,263.87Zm16-11.18c0-4.6-1.89-6.72-4.42-6.72-1.93,0-3.59,1.24-5.06,2.95v10.72a9.45,9.45,0,0,0,3.54.59C258.38,260.23,260.73,258.07,260.73,252.69Z" style="fill:#374a63" />
            <path d="M269.93,229.46h6.53v35.79h-6.53Z" style="fill:#374a63" />
            <path d="M279,253c0-8,4.83-12.84,11.32-12.84,7.45,0,10.72,5.57,10.72,12.56,0,.6,0,1.34-.05,2H285.61c.32,4.1,2.76,6.08,6.4,6.08a14.71,14.71,0,0,0,8.32-2.9l.74,4.92a16.83,16.83,0,0,1-9.8,2.94C284.23,265.75,279,261.84,279,253Zm15.74-2.58c-.32-3.77-1.8-5.84-4.56-5.84-2.34,0-4.18,1.93-4.6,5.84Z" style="fill:#374a63" />
            <path d="M303.5,240.68h5.62l.55,3.41c2.3-2.21,4.69-3.92,8-3.92s5.29,1.62,6.21,4c2.21-2.21,4.84-4,8.06-4,4.6,0,6.94,2.81,6.94,7.46v17.62h-6.53V249.38c0-2-.74-3.41-2.81-3.41-1.74,0-3.45,1.11-5.06,2.81v16.47H318V249.38c0-2-.78-3.41-2.85-3.41-1.75,0-3.41,1.11-5.06,2.81v16.47H303.5Z" style="fill:#374a63" />
            <path d="M341.09,259c0-5.89,4.74-8.52,14.58-9.48v-.65c0-2.53-1.47-3.49-4.09-3.49a20.43,20.43,0,0,0-8.15,2l-.78-5.11a24.28,24.28,0,0,1,9.85-2c6.48,0,9.7,2.3,9.7,8.28v16.75h-5.7l-.51-3.13a10.87,10.87,0,0,1-8,3.63C343.85,265.75,341.09,263.32,341.09,259Zm14.58-.46V253.1c-6.58.83-8.14,2.76-8.14,5.06a2.58,2.58,0,0,0,2.85,2.76A7.85,7.85,0,0,0,355.67,258.49Z" style="fill:#374a63" />
            <path d="M374.67,253.65c0-9.2,5.06-13.24,10.67-13.24a16.52,16.52,0,0,1,5.52.92V229.46h6.53v35.79h-5.61l-.55-3.31c-1.75,2-4.1,3.81-7.41,3.81C378.71,265.75,374.67,261.94,374.67,253.65Zm16.19,3.18V246.57a9.58,9.58,0,0,0-4.37-.92c-3,0-5.24,2.39-5.24,7.59,0,4.6,1.88,6.72,4.46,6.72C387.73,260,389.34,258.72,390.86,256.83Z" style="fill:#374a63" />
            <path d="M399.74,253c0-8,4.83-12.84,11.31-12.84,7.46,0,10.72,5.57,10.72,12.56,0,.6,0,1.34,0,2H406.32c.32,4.1,2.76,6.08,6.39,6.08a14.77,14.77,0,0,0,8.33-2.9l.73,4.92a16.83,16.83,0,0,1-9.8,2.94C404.93,265.75,399.74,261.84,399.74,253Zm15.73-2.58c-.32-3.77-1.79-5.84-4.55-5.84-2.35,0-4.19,1.93-4.6,5.84Z" style="fill:#374a63" />
            <path d="M424.48,229.46H431v35.79h-6.54Z" style="fill:#374a63" />
            <path d="M442.59,239.81c0-16,9.79-26.79,24.48-26.79a27.12,27.12,0,0,1,14.42,3.67l-1.57,9.93a20.17,20.17,0,0,0-12.31-4.42c-8.7,0-14.21,6.59-14.21,17.54s6,17.54,14.69,17.54a23.42,23.42,0,0,0,12.71-4.14l1.5,9.11a28.43,28.43,0,0,1-15,4.21C452,266.46,442.59,255.92,442.59,239.81Z" style="fill:#de1f26" />
            <path d="M484.75,247.49c0-11.76,7.35-19,17.21-19s17.27,7.14,17.27,18.9-7.35,18.91-17.34,18.91S484.75,259.26,484.75,247.49Zm25.09,0c0-6.46-2.85-11.08-7.88-11.08s-7.82,4.49-7.82,11,2.78,11,7.82,11S509.84,254,509.84,247.49Z" style="fill:#4c9b45" />
            <path d="M522.7,229.27H531l1.16,7.28c2.31-4.22,5.78-7.76,11.35-8l1.57,9.66a17,17,0,0,0-12.72,6.73v20.67H522.7Z" style="fill:#03a5d4" />
            <path d="M547,229.27h8.3l1.15,7.28c2.31-4.22,5.78-7.76,11.36-8l1.56,9.66a17,17,0,0,0-12.71,6.73v20.67H547Z" style="fill:#03a5d4" />
            <path d="M569.41,247.49c0-11.83,7.14-19,16.73-19,11,0,15.84,8.23,15.84,18.56,0,.89,0,2-.07,2.93H579.14c.47,6.05,4.07,9,9.45,9,4.42,0,8.36-1.63,12.3-4.28L602,262a24.85,24.85,0,0,1-14.48,4.36C577.1,266.33,569.41,260.55,569.41,247.49Zm23.26-3.81c-.48-5.57-2.66-8.63-6.74-8.63-3.46,0-6.18,2.86-6.79,8.63Z" style="fill:#ea6524" />
            <path d="M606.13,276.53l1.43-7.76a25.06,25.06,0,0,0,11.69,3c5.51,0,8.23-2.59,8.23-7.48v-3.68c-2.31,2.38-5.57,4.76-10.13,4.76-7.55,0-13.53-5.64-13.53-17.47,0-12.92,7.27-19.11,18.22-19.11a44.83,44.83,0,0,1,15.1,2.52v32.57c0,9.79-5.58,15.3-17.14,15.3A36.1,36.1,0,0,1,606.13,276.53Zm21.35-23.8V237.56a13.41,13.41,0,0,0-5.23-.88c-5.31,0-8.71,3.26-8.71,10.81,0,6.46,2.72,9.59,6.53,9.59C622.92,257.08,625.3,255.24,627.48,252.73Z" style="fill:#4c7838" />
            <path d="M642.1,218.05a5.58,5.58,0,1,1,5.58,5.37A5.29,5.29,0,0,1,642.1,218.05Zm.75,11.22h9.66v36.31h-9.66Z" style="fill:#094c81" />
            <path d="M658.15,229.27h8.3l.81,5c3.4-3.26,6.94-5.78,11.83-5.78s7.82,2.38,9.18,5.85c3.27-3.26,7.14-5.85,11.9-5.85,6.8,0,10.27,4.15,10.27,11v26h-9.66V242.12c0-3-1.09-5-4.15-5-2.58,0-5.09,1.63-7.47,4.15v24.34H679.5V242.12c0-3-1.16-5-4.22-5-2.58,0-5,1.63-7.47,4.15v24.34h-9.66Z" style="fill:#f89c26" />
            <path d="M715.27,218.05a5.58,5.58,0,0,1,11.15,0,5.58,5.58,0,0,1-11.15,0Zm.75,11.22h9.65v36.31H716Z" style="fill:#ee4128" />
            <path d="M729.48,247.49c0-11.83,7.14-19,16.73-19,11,0,15.84,8.23,15.84,18.56,0,.89,0,2-.07,2.93H739.2c.48,6.05,4.08,9,9.46,9,4.42,0,8.36-1.63,12.3-4.28l1.09,7.27a24.85,24.85,0,0,1-14.48,4.36C737.17,266.33,729.48,260.55,729.48,247.49Zm23.26-3.81c-.48-5.57-2.66-8.63-6.74-8.63-3.46,0-6.18,2.86-6.8,8.63Z" style="fill:#02acd7" />
            <path d="M765.66,229.27H774l.82,5c3.4-3.19,7.14-5.78,11.9-5.78,6.8,0,10.4,4.15,10.4,11v26h-9.66V242.12c0-3-1.29-5-4.42-5-2.65,0-5.23,1.63-7.68,4.15v24.34h-9.65Z" style="fill:#49773d" />
            <path d="M804.08,254.9V237.16h-5v-7.89h5v-11.9h9.58v11.9h7.82v7.89h-7.82v16.18c0,2.92,1.36,4.49,4.69,4.49a16.59,16.59,0,0,0,3.34-.34v8.16a20,20,0,0,1-5.24.54C809.11,266.19,804.08,263.47,804.08,254.9Z" style="fill:#f26e26" />
            <path d="M823.39,247.49c0-11.76,7.34-19,17.2-19s17.27,7.14,17.27,18.9-7.34,18.91-17.34,18.91S823.39,259.26,823.39,247.49Zm25.09,0c0-6.46-2.86-11.08-7.89-11.08s-7.82,4.49-7.82,11,2.79,11,7.82,11S848.48,254,848.48,247.49Z" style="fill:#8e1939" />
            <text id="svg_nombre_comuna" transform="translate(437.3 325.04)" style="font-size:68px;fill:#067dba;font-family:UNFPA-Bold;font-weight:700;letter-spacing:-0.04999138327205882em">Altavista</text>
        </g>
    </g>
</svg>