<svg xmlns="http://www.w3.org/2000/svg" viewBox="0 0 694.16 277.78"><title>p2_co_m_j</title><g id="Layer_2" data-name="Layer 2"><g id="Capa_1" data-name="Capa 1"><g id="joven_mujer"><path d="M48.79,155.61a8.07,8.07,0,0,0-8-8.19,8.11,8.11,0,1,0-.16,16.21A7.76,7.76,0,0,0,48.79,155.61Z" style="fill:#a71f65"/><path d="M24.05,198.41l4.18-14.22L22,180.85l-4.85,15.38s-1.17,4,2.34,5S24.05,198.41,24.05,198.41Z" style="fill:#a71f65"/><path d="M50.46,178.85c1.17-.34,1.34,1.17,1.34,1.17l.83,2.67,6.19-3.34-1.5-5.19s-2.51-6.52-7.86-6.52H32.07c-5.35,0-7.86,6.36-7.86,6.36l-1.5,4.85,6.18,3.34.84-2.34s.33-1.34,1.34-1.17.5,1.84.5,1.84L22,215.12H30.9v24.75a4.36,4.36,0,1,0,8.69.66V215.46H42.1V240.2a4.18,4.18,0,0,0,8.36,0V215.46h8.86l-9.53-34.61C49.62,180.85,49.29,179.18,50.46,178.85Z" style="fill:#a71f65"/><path d="M63.84,196.4l-4.69-15.05L53,184.7l4,13.87s1,4,4.35,2.84A4,4,0,0,0,63.84,196.4Z" style="fill:#a71f65"/><path d="M31.57,152.93h-1a10.38,10.38,0,0,1,20.06,0H49.46v5.52h1.67a9.65,9.65,0,0,1-2.84,4.85A1.31,1.31,0,0,0,47,163l-2.84,1.17a.92.92,0,0,0-.5,1.34l.16.84a.93.93,0,0,0,1.34.5l3-1.17a.92.92,0,0,0,.5-1.34l-.17-.5a9.51,9.51,0,0,0,3-5.35h1.68v-5.68H51.46a11.19,11.19,0,0,0-21.73,0H28.06v5.51h3.68v-5.35Z" style="fill:#a71f65"/></g><path d="M85.08,125.31c0-14.37,8.81-24.1,22-24.1a24.4,24.4,0,0,1,13,3.3l-1.41,8.94a18.14,18.14,0,0,0-11.07-4c-7.83,0-12.79,5.93-12.79,15.78S100.19,141,108,141a21,21,0,0,0,11.44-3.73l1.34,8.2a25.59,25.59,0,0,1-13.52,3.79C93.52,149.29,85.08,139.81,85.08,125.31Z" style="fill:#de1f26"/><path d="M123,132.23c0-10.59,6.61-17.07,15.48-17.07s15.54,6.42,15.54,17-6.61,17-15.6,17S123,142.81,123,132.23Zm22.57,0c0-5.82-2.57-10-7.09-10s-7,4-7,9.91,2.51,9.91,7,9.91S145.57,138,145.57,132.23Z" style="fill:#4c9b45"/><path d="M157.13,115.83h7.47l1,6.55c2.08-3.8,5.19-7,10.21-7.22l1.41,8.68a15.28,15.28,0,0,0-11.44,6.06v18.6h-8.69Z" style="fill:#03a5d4"/><path d="M179,115.83h7.46l1,6.55c2.08-3.8,5.2-7,10.22-7.22l1.4,8.68a15.32,15.32,0,0,0-11.44,6.06v18.6H179Z" style="fill:#03a5d4"/><path d="M199.15,132.23c0-10.65,6.43-17.07,15-17.07,9.91,0,14.26,7.4,14.26,16.7,0,.79,0,1.77-.07,2.63H207.9c.43,5.44,3.67,8.07,8.5,8.07,4,0,7.53-1.47,11.08-3.85l1,6.54a22.35,22.35,0,0,1-13,3.92C206.07,149.17,199.15,144,199.15,132.23Zm20.92-3.43c-.42-5-2.38-7.77-6-7.77-3.12,0-5.57,2.57-6.12,7.77Z" style="fill:#ea6524"/><path d="M232.18,158.35l1.29-7A22.6,22.6,0,0,0,244,154.06c4.95,0,7.4-2.32,7.4-6.73V144a12.55,12.55,0,0,1-9.11,4.28c-6.79,0-12.18-5.07-12.18-15.72,0-11.62,6.55-17.19,16.4-17.19a40.14,40.14,0,0,1,13.58,2.27V147c0,8.81-5,13.76-15.42,13.76A32.56,32.56,0,0,1,232.18,158.35Zm19.21-21.41V123.29a12.06,12.06,0,0,0-4.71-.79c-4.77,0-7.83,2.93-7.83,9.73,0,5.81,2.45,8.62,5.87,8.62C247.29,140.85,249.43,139.2,251.39,136.94Z" style="fill:#4c7838"/><path d="M264.54,105.74a5,5,0,0,1,10,0,5,5,0,0,1-10,0Zm.67,10.09h8.69V148.5h-8.69Z" style="fill:#094c81"/><path d="M279,115.83h7.46l.73,4.53c3.06-2.94,6.24-5.2,10.65-5.2s7,2.14,8.26,5.26c2.93-2.94,6.42-5.26,10.7-5.26,6.12,0,9.24,3.73,9.24,9.91V148.5h-8.69V127.39c0-2.69-1-4.52-3.73-4.52-2.33,0-4.59,1.46-6.73,3.73v21.9h-8.69V127.39c0-2.69-1-4.52-3.79-4.52-2.32,0-4.53,1.46-6.73,3.73v21.9H279Z" style="fill:#f89c26"/><path d="M330.36,105.74a5,5,0,0,1,10,0,5,5,0,0,1-10,0Zm.67,10.09h8.69V148.5H331Z" style="fill:#ee4128"/><path d="M343.14,132.23c0-10.65,6.42-17.07,15.05-17.07,9.91,0,14.25,7.4,14.25,16.7,0,.79,0,1.77-.06,2.63H351.89c.42,5.44,3.67,8.07,8.5,8.07,4,0,7.52-1.47,11.07-3.85l1,6.54a22.35,22.35,0,0,1-13,3.92C350.05,149.17,343.14,144,343.14,132.23Zm20.92-3.43c-.43-5-2.39-7.77-6.06-7.77-3.12,0-5.56,2.57-6.11,7.77Z" style="fill:#02acd7"/><path d="M375.68,115.83h7.46l.74,4.53c3.06-2.88,6.42-5.2,10.7-5.2,6.12,0,9.36,3.73,9.36,9.91V148.5h-8.69V127.39c0-2.69-1.16-4.52-4-4.52-2.39,0-4.71,1.46-6.91,3.73v21.9h-8.69Z" style="fill:#49773d"/><path d="M410.24,138.89v-16h-4.53v-7.1h4.53v-10.7h8.62v10.7h7v7.1h-7v14.56c0,2.63,1.23,4,4.22,4a14.84,14.84,0,0,0,3-.3v7.34a18,18,0,0,1-4.71.49C414.77,149.05,410.24,146.6,410.24,138.89Z" style="fill:#f26e26"/><path d="M427.61,132.23c0-10.59,6.61-17.07,15.48-17.07s15.53,6.42,15.53,17-6.6,17-15.6,17S427.61,142.81,427.61,132.23Zm22.57,0c0-5.82-2.57-10-7.09-10s-7,4-7,9.91,2.51,9.91,7,9.91S450.18,138,450.18,132.23Z" style="fill:#8e1939"/><path d="M84.31,20c0-11.75,7.2-19.7,18-19.7A19.92,19.92,0,0,1,112.92,3l-1.15,7.3A14.86,14.86,0,0,0,102.71,7c-6.4,0-10.45,4.85-10.45,12.9s4.41,12.9,10.81,12.9a17.2,17.2,0,0,0,9.35-3l1.1,6.7a20.9,20.9,0,0,1-11.06,3.1C91.21,39.55,84.31,31.8,84.31,20Z" style="fill:#374a63"/><path d="M116.56,31.35V12.2h7.1V29.45c0,2.2,1,3.7,3.2,3.7,2,0,3.85-1.2,5.65-3V12.2h7.11V38.9h-6.11l-.59-3.7c-2.46,2.35-5.25,4.25-8.76,4.25C119.16,39.45,116.56,36.4,116.56,31.35Z" style="fill:#374a63"/><path d="M142.11,32.05c0-6.4,5.15-9.25,15.85-10.3v-.7c0-2.75-1.6-3.8-4.45-3.8a22.15,22.15,0,0,0-8.85,2.15l-.85-5.55a26.46,26.46,0,0,1,10.7-2.15c7.05,0,10.56,2.5,10.56,9V38.9h-6.21l-.55-3.4a11.81,11.81,0,0,1-8.7,4C145.11,39.45,142.11,36.8,142.11,32.05Zm15.85-.5V25.7c-7.15.9-8.85,3-8.85,5.5a2.81,2.81,0,0,0,3.1,3A8.51,8.51,0,0,0,158,31.55ZM154.46.9h8.6v.45L155.51,8.8h-4.7Z" style="fill:#374a63"/><path d="M169.11,0h7.1V38.9h-7.1Z" style="fill:#374a63"/><path d="M190.11,25.6c0-8.7,5.25-13.95,12.3-13.95,8.1,0,11.65,6,11.65,13.65,0,.65,0,1.45-.05,2.15H197.26c.35,4.45,3,6.6,7,6.6a16,16,0,0,0,9-3.15l.8,5.35a18.28,18.28,0,0,1-10.65,3.2C195.76,39.45,190.11,35.2,190.11,25.6Zm17.1-2.8c-.35-4.1-2-6.35-5-6.35-2.55,0-4.55,2.1-5,6.35Z" style="fill:#374a63"/><path d="M215.41,36.8l.9-5.95a19.71,19.71,0,0,0,9.9,3.15c2.65,0,3.95-.9,3.95-2.4s-.95-2.2-5-3.25c-6.6-1.7-9.35-3.55-9.35-8.55,0-4.8,3.7-8.1,10.1-8.1a24.35,24.35,0,0,1,9.6,2l-.95,5.9a19.61,19.61,0,0,0-8.65-2.45c-2.25,0-3.3.8-3.3,2.1s.9,1.95,4.75,2.95c7,1.85,9.65,3.7,9.65,8.7,0,5.45-3.85,8.55-10.85,8.55A24.16,24.16,0,0,1,215.41,36.8Z" style="fill:#374a63"/><path d="M249.21,25.6c0-8.7,5.25-13.95,12.3-13.95,8.1,0,11.65,6,11.65,13.65,0,.65,0,1.45-.05,2.15H256.36c.35,4.45,3,6.6,6.95,6.6a16,16,0,0,0,9.05-3.15l.8,5.35a18.28,18.28,0,0,1-10.65,3.2C254.86,39.45,249.21,35.2,249.21,25.6Zm17.1-2.8c-.35-4.1-1.95-6.35-4.95-6.35-2.55,0-4.55,2.1-5,6.35Z" style="fill:#374a63"/><path d="M276.11,0h7.1V38.9h-7.1Z" style="fill:#374a63"/><path d="M298.46,12.2h6.1l.6,3.6c1.9-2.15,4.45-4.15,8-4.15,5.55,0,10,4.15,10,13.2,0,9.95-5.5,14.35-11.6,14.35a18.05,18.05,0,0,1-6-1V48.45h-7.1Zm17.6,13.05c0-5-2.1-7.3-4.85-7.3-2.25,0-4,1.35-5.65,3.4V32.5a10.43,10.43,0,0,0,4.75,1C313.61,33.5,316.06,30.9,316.06,25.25Z" style="fill:#374a63"/><path d="M325.76,12.2h6.1l.85,5.35c1.7-3.1,4.25-5.7,8.35-5.9l1.15,7.1a12.48,12.48,0,0,0-9.35,4.95V38.9h-7.1Z" style="fill:#374a63"/><path d="M343.36,4a4.1,4.1,0,1,1,4.1,4A3.9,3.9,0,0,1,343.36,4Zm.55,8.25H351V38.9h-7.1Z" style="fill:#374a63"/><path d="M355.16,12.2h6.1l.6,3.7c2.5-2.35,5.25-4.25,8.75-4.25,5,0,7.65,3,7.65,8.1V38.9h-7.1V21.65c0-2.2-1-3.7-3.25-3.7-2,0-3.85,1.2-5.65,3.05V38.9h-7.1Z" style="fill:#374a63"/><path d="M380.66,25.7c0-9.35,5.85-14,13-14a15.17,15.17,0,0,1,8.2,2.15l-1,6.35a10.64,10.64,0,0,0-6.75-2.4c-3.65,0-6.35,2.65-6.35,7.75s2.9,7.75,6.75,7.75a10.61,10.61,0,0,0,6.7-2.4l.9,6a14.85,14.85,0,0,1-8.75,2.55C385.91,39.4,380.66,34.4,380.66,25.7Z" style="fill:#374a63"/><path d="M404.36,4a4.1,4.1,0,1,1,4.1,4A3.9,3.9,0,0,1,404.36,4Zm.55,8.25H412V38.9h-7.1Z" style="fill:#374a63"/><path d="M416.16,12.2h6.1l.6,3.6c1.9-2.15,4.45-4.15,8.05-4.15,5.55,0,9.95,4.15,9.95,13.2,0,9.95-5.5,14.35-11.6,14.35a18.05,18.05,0,0,1-6-1V48.45h-7.1Zm17.6,13.05c0-5-2.1-7.3-4.85-7.3-2.25,0-4,1.35-5.65,3.4V32.5a10.43,10.43,0,0,0,4.75,1C431.31,33.5,433.76,30.9,433.76,25.25Z" style="fill:#374a63"/><path d="M442.06,32.05c0-6.4,5.15-9.25,15.85-10.3v-.7c0-2.75-1.6-3.8-4.45-3.8a22.15,22.15,0,0,0-8.85,2.15l-.85-5.55a26.46,26.46,0,0,1,10.7-2.15c7.05,0,10.55,2.5,10.55,9V38.9h-6.2l-.55-3.4a11.81,11.81,0,0,1-8.7,4C445.06,39.45,442.06,36.8,442.06,32.05Zm15.85-.5V25.7c-7.15.9-8.85,3-8.85,5.5a2.81,2.81,0,0,0,3.1,3A8.51,8.51,0,0,0,457.91,31.55Z" style="fill:#374a63"/><path d="M469.06,0h7.1V38.9h-7.1Z" style="fill:#374a63"/><path d="M85.11,55.2h6.1l.6,3.6c1.9-2.15,4.45-4.15,8.06-4.15,5.55,0,9.95,4.15,9.95,13.2,0,10-5.5,14.35-11.61,14.35a18.05,18.05,0,0,1-6-1V91.45h-7.1Zm17.6,13c0-5-2.09-7.3-4.84-7.3-2.25,0-4,1.35-5.66,3.4V75.5a10.46,10.46,0,0,0,4.75,1C100.27,76.5,102.71,73.9,102.71,68.25Z" style="fill:#374a63"/><path d="M112.41,55.2h6.1l.85,5.35c1.7-3.1,4.26-5.7,8.35-5.9l1.16,7.1a12.49,12.49,0,0,0-9.36,5V81.9h-7.1Z" style="fill:#374a63"/><path d="M128.91,68.6c0-8.65,5.4-13.95,12.65-13.95s12.71,5.25,12.71,13.9-5.4,13.9-12.76,13.9S128.91,77.25,128.91,68.6Zm18.45,0c0-4.75-2.1-8.15-5.8-8.15s-5.75,3.3-5.75,8.1,2.05,8.1,5.75,8.1S147.36,73.35,147.36,68.6Z" style="fill:#374a63"/><path d="M156.81,80.4V43h7.1V58.15a10.46,10.46,0,0,1,7.45-3.5c5.6,0,10,4.15,10,13.2,0,9.8-5.36,14.4-13.41,14.4A33.09,33.09,0,0,1,156.81,80.4Zm17.4-12.15c0-5-2.05-7.3-4.8-7.3-2.1,0-3.9,1.35-5.5,3.2V75.8a10.19,10.19,0,0,0,3.85.65C171.66,76.45,174.21,74.1,174.21,68.25Z" style="fill:#374a63"/><path d="M184.21,43h7.1V81.9h-7.1Z" style="fill:#374a63"/><path d="M194.11,68.6c0-8.7,5.25-13.95,12.3-13.95,8.1,0,11.65,6.05,11.65,13.65,0,.65,0,1.45-.05,2.15H201.26c.35,4.45,3,6.6,7,6.6a16,16,0,0,0,9-3.15l.8,5.35a18.28,18.28,0,0,1-10.65,3.2C199.76,82.45,194.11,78.2,194.11,68.6Zm17.1-2.8c-.35-4.1-2-6.35-5-6.35-2.55,0-4.55,2.1-5,6.35Z" style="fill:#374a63"/><path d="M220.71,55.2h6.1l.6,3.7c2.5-2.4,5.1-4.25,8.7-4.25s5.75,1.75,6.75,4.3c2.4-2.4,5.25-4.3,8.76-4.3,5,0,7.55,3.05,7.55,8.1V81.9h-7.11V64.65c0-2.2-.8-3.7-3.05-3.7-1.9,0-3.75,1.2-5.5,3V81.9h-7.1V64.65c0-2.2-.85-3.7-3.1-3.7-1.9,0-3.7,1.2-5.5,3V81.9h-7.1Z" style="fill:#374a63"/><path d="M261.56,75.05c0-6.4,5.15-9.25,15.85-10.3v-.7c0-2.75-1.6-3.8-4.45-3.8a22.15,22.15,0,0,0-8.85,2.15l-.85-5.55A26.46,26.46,0,0,1,274,54.7c7.05,0,10.55,2.5,10.55,9V81.9h-6.2l-.55-3.4a11.81,11.81,0,0,1-8.7,4C264.56,82.45,261.56,79.8,261.56,75.05Zm15.85-.5V68.7c-7.15.9-8.85,3-8.85,5.5a2.81,2.81,0,0,0,3.1,3A8.51,8.51,0,0,0,277.41,74.55Z" style="fill:#374a63"/><path d="M315.46,79a10.27,10.27,0,0,1-7.45,3.5c-5.55,0-9.95-4.15-9.95-13.15,0-9.85,5.35-14.45,13.4-14.45a32.87,32.87,0,0,1,11.1,1.85V91.45h-7.1Zm0-6V61.3a9.85,9.85,0,0,0-3.85-.65c-3.9,0-6.4,2.35-6.4,8.2,0,5,2,7.3,4.8,7.3C312.11,76.15,313.86,74.8,315.46,73Z" style="fill:#374a63"/><path d="M326.36,74.35V55.2h7.1V72.45c0,2.2,1,3.7,3.2,3.7,1.95,0,3.85-1.2,5.65-3.05V55.2h7.1V81.9h-6.1l-.6-3.7c-2.45,2.35-5.25,4.25-8.75,4.25C329,82.45,326.36,79.4,326.36,74.35Z" style="fill:#374a63"/><path d="M352,68.6c0-8.7,5.25-13.95,12.3-13.95,8.1,0,11.65,6.05,11.65,13.65,0,.65,0,1.45-.05,2.15H359.11c.35,4.45,3,6.6,6.95,6.6a16,16,0,0,0,9.05-3.15l.8,5.35a18.28,18.28,0,0,1-10.65,3.2C357.61,82.45,352,78.2,352,68.6Zm17.1-2.8c-.35-4.1-1.95-6.35-4.95-6.35-2.55,0-4.55,2.1-5,6.35Z" style="fill:#374a63"/><path d="M388.31,68.6c0-8.7,5.25-13.95,12.3-13.95,8.1,0,11.65,6.05,11.65,13.65,0,.65,0,1.45-.05,2.15H395.46c.35,4.45,3,6.6,7,6.6a16,16,0,0,0,9-3.15l.8,5.35a18.28,18.28,0,0,1-10.65,3.2C394,82.45,388.31,78.2,388.31,68.6Zm17.1-2.8c-.35-4.1-2-6.35-5-6.35-2.55,0-4.55,2.1-5,6.35Z" style="fill:#374a63"/><path d="M414.91,55.2H421l.6,3.7c2.5-2.35,5.25-4.25,8.75-4.25,5,0,7.65,3.05,7.65,8.1V81.9h-7.1V64.65c0-2.2-1-3.7-3.25-3.7-2,0-3.85,1.2-5.65,3V81.9h-7.1Z" style="fill:#374a63"/><path d="M443.36,61h-3.8V55.2h3.8V51.1c0-6.15,3.55-8.55,9.25-8.55a23.56,23.56,0,0,1,3.55.3v5.7a8.3,8.3,0,0,0-2.5-.3,3,3,0,0,0-3.3,3.3V55.2h5.5V61h-5.5V81.9h-7Z" style="fill:#374a63"/><path d="M457.46,55.2h6.1l.85,5.35c1.7-3.1,4.25-5.7,8.35-5.9l1.15,7.1a12.48,12.48,0,0,0-9.35,5V81.9h-7.1Z" style="fill:#374a63"/><path d="M474,68.6c0-8.7,5.25-13.95,12.3-13.95,8.1,0,11.65,6.05,11.65,13.65,0,.65,0,1.45-.05,2.15H481.11c.35,4.45,3,6.6,6.95,6.6a16,16,0,0,0,9.05-3.15l.8,5.35a18.28,18.28,0,0,1-10.65,3.2C479.61,82.45,474,78.2,474,68.6Zm17.1-2.8c-.35-4.1-1.95-6.35-4.95-6.35-2.55,0-4.55,2.1-5,6.35Z" style="fill:#374a63"/><path d="M500.56,55.2h6.1l.6,3.7c2.5-2.35,5.25-4.25,8.75-4.25,5,0,7.65,3.05,7.65,8.1V81.9h-7.1V64.65c0-2.2-.95-3.7-3.25-3.7-1.95,0-3.85,1.2-5.65,3V81.9h-7.1Z" style="fill:#374a63"/><path d="M528.81,74.05V61h-3.7V55.2h3.7V46.45h7.05V55.2h5.75V61h-5.75V72.9c0,2.15,1,3.3,3.45,3.3a11.92,11.92,0,0,0,2.45-.25v6a14.45,14.45,0,0,1-3.85.4C532.51,82.35,528.81,80.35,528.81,74.05Z" style="fill:#374a63"/><path d="M543,75.05c0-6.4,5.15-9.25,15.85-10.3v-.7c0-2.75-1.6-3.8-4.45-3.8a22.15,22.15,0,0,0-8.85,2.15l-.85-5.55a26.46,26.46,0,0,1,10.7-2.15c7,0,10.55,2.5,10.55,9V81.9h-6.2l-.55-3.4a11.81,11.81,0,0,1-8.7,4C546,82.45,543,79.8,543,75.05Zm15.85-.5V68.7c-7.15.9-8.85,3-8.85,5.5a2.81,2.81,0,0,0,3.1,3A8.51,8.51,0,0,0,558.81,74.55Z" style="fill:#374a63"/><path d="M579.41,68.6c0-8.7,5.25-13.95,12.3-13.95,8.1,0,11.65,6.05,11.65,13.65,0,.65,0,1.45-.05,2.15H586.56c.35,4.45,3,6.6,7,6.6a16,16,0,0,0,9-3.15l.8,5.35a18.28,18.28,0,0,1-10.65,3.2C585.06,82.45,579.41,78.2,579.41,68.6Zm17.1-2.8c-.35-4.1-2-6.35-5-6.35-2.55,0-4.55,2.1-5,6.35Z" style="fill:#374a63"/><path d="M606.31,43h7.1V81.9h-7.1Z" style="fill:#374a63"/><path d="M49.75,71.93l-1,.35C32.76,77.65,25.83,86,25.83,98.11c0,9.53,6.41,14.91,15.43,14.91,9.36,0,18-4.86,27.22-12.14l3.29,22.37c-9,7.45-20.11,12.65-35.54,12.65C14,135.9,0,122.9,0,99.67,0,80.6,11.62,66.21,30.34,59.45l1.38-14.21H47.33Zm3.12-41.26H26.7V1.72H52.87Z" style="fill:#a71f65"/><path d="M661.59,231.81l.68-.23c9.65-4,15-9,15-16.91,0-6.24-4.2-9.76-10.1-9.76-6.13,0-11.8,3.18-17.82,8l-2.16-14.64a34.85,34.85,0,0,1,23.27-8.29c14.53,0,23.72,8.51,23.72,23.72,0,12.49-7.6,21.91-19.86,26.33l-.91,9.31H663.18Zm-2.05,27h17.14v19H659.54Z" style="fill:#a71f65"/><path d="M85.81,242.46l.9-6a19.72,19.72,0,0,0,9.91,3.15c2.64,0,3.95-.9,3.95-2.4s-.95-2.2-5-3.25c-6.6-1.7-9.35-3.55-9.35-8.55,0-4.8,3.7-8.1,10.1-8.1a24.36,24.36,0,0,1,9.61,1.95l-1,5.9a19.62,19.62,0,0,0-8.66-2.45c-2.25,0-3.3.8-3.3,2.1s.91,1.95,4.75,2.95c7,1.85,9.66,3.7,9.66,8.7,0,5.45-3.85,8.55-10.86,8.55A24.16,24.16,0,0,1,85.81,242.46Z" style="fill:#df1a82"/><path d="M108.51,231.26c0-8.7,5.25-13.95,12.3-13.95,8.1,0,11.65,6.05,11.65,13.65,0,.65,0,1.45,0,2.15H115.66c.35,4.45,3,6.6,7,6.6a16.06,16.06,0,0,0,9.06-3.15l.79,5.35a18.28,18.28,0,0,1-10.65,3.2C114.16,245.11,108.51,240.86,108.51,231.26Zm17.1-2.8c-.35-4.1-2-6.35-5-6.35-2.55,0-4.55,2.1-5,6.35Z" style="fill:#df1a82"/><path d="M135.51,252.61l1.05-5.7a18.45,18.45,0,0,0,8.6,2.2c4.05,0,6.05-1.9,6.05-5.5v-2.7a10.27,10.27,0,0,1-7.45,3.5c-5.55,0-9.95-4.15-9.95-12.85,0-9.5,5.35-14.05,13.4-14.05a32.87,32.87,0,0,1,11.1,1.85v23.95c0,7.2-4.1,11.25-12.6,11.25A26.47,26.47,0,0,1,135.51,252.61Zm15.7-17.5V224a9.85,9.85,0,0,0-3.85-.65c-3.9,0-6.4,2.4-6.4,7.95,0,4.75,2,7.05,4.8,7.05C147.86,238.31,149.61,237,151.21,235.11Z" style="fill:#df1a82"/><path d="M162.11,237V217.86h7.1v17.25c0,2.2.95,3.7,3.2,3.7,2,0,3.85-1.2,5.65-3.05v-17.9h7.1v26.7h-6.1l-.6-3.7c-2.45,2.35-5.25,4.25-8.75,4.25C164.71,245.11,162.11,242.06,162.11,237ZM174,206.56h8.6V207L175,214.46h-4.7Z" style="fill:#df1a82"/><path d="M189.06,217.86h6.1l.6,3.7c2.5-2.35,5.25-4.25,8.75-4.25,5,0,7.65,3.05,7.65,8.1v19.15h-7.1V227.31c0-2.2-.95-3.7-3.25-3.7-1.95,0-3.85,1.2-5.65,3v17.9h-7.1Z" style="fill:#df1a82"/><path d="M227.31,205.66h7.1v38.9h-7.1Z" style="fill:#df1a82"/><path d="M237.16,237.71c0-6.4,5.15-9.25,15.85-10.3v-.7c0-2.75-1.6-3.8-4.45-3.8a22.15,22.15,0,0,0-8.85,2.15l-.85-5.55a26.46,26.46,0,0,1,10.7-2.15c7.05,0,10.55,2.5,10.55,9v18.2h-6.2l-.55-3.4a11.81,11.81,0,0,1-8.7,4C240.16,245.11,237.16,242.46,237.16,237.71Zm15.85-.5v-5.85c-7.15.9-8.85,3-8.85,5.5a2.81,2.81,0,0,0,3.1,3A8.51,8.51,0,0,0,253,237.21Z" style="fill:#df1a82"/><path d="M262.56,242.46l.9-6a19.71,19.71,0,0,0,9.9,3.15c2.65,0,3.95-.9,3.95-2.4s-.95-2.2-5-3.25c-6.6-1.7-9.35-3.55-9.35-8.55,0-4.8,3.7-8.1,10.1-8.1a24.35,24.35,0,0,1,9.6,1.95l-1,5.9a19.61,19.61,0,0,0-8.65-2.45c-2.25,0-3.3.8-3.3,2.1s.9,1.95,4.75,2.95c7,1.85,9.65,3.7,9.65,8.7,0,5.45-3.85,8.55-10.85,8.55A24.16,24.16,0,0,1,262.56,242.46Z" style="fill:#df1a82"/><path d="M297.71,217.86h6.1l.6,3.7c2.5-2.4,5.1-4.25,8.7-4.25s5.75,1.75,6.75,4.3c2.4-2.4,5.25-4.3,8.75-4.3,5,0,7.55,3.05,7.55,8.1v19.15h-7.1V227.31c0-2.2-.8-3.7-3.05-3.7-1.9,0-3.75,1.2-5.5,3v17.9h-7.1V227.31c0-2.2-.85-3.7-3.1-3.7-1.9,0-3.7,1.2-5.5,3v17.9h-7.1Z" style="fill:#df1a82"/><path d="M339.86,237V217.86H347v17.25c0,2.2,1,3.7,3.2,3.7,1.95,0,3.85-1.2,5.65-3.05v-17.9h7.1v26.7h-6.1l-.6-3.7c-2.45,2.35-5.25,4.25-8.75,4.25C342.46,245.11,339.86,242.06,339.86,237Z" style="fill:#df1a82"/><path d="M363,254.36l-.9-5.7a8.33,8.33,0,0,0,2.1.25c1.75,0,2.95-.85,2.95-3.25v-27.8h7.1v28.35c0,6-3.5,8.35-8.6,8.35A12.37,12.37,0,0,1,363,254.36Zm3.6-44.75a4.1,4.1,0,1,1,4.1,3.95A3.89,3.89,0,0,1,366.56,209.61Z" style="fill:#df1a82"/><path d="M377,231.26c0-8.7,5.25-13.95,12.3-13.95,8.1,0,11.65,6.05,11.65,13.65,0,.65,0,1.45,0,2.15H384.16c.35,4.45,3,6.6,6.95,6.6a16,16,0,0,0,9.05-3.15l.8,5.35a18.28,18.28,0,0,1-10.65,3.2C382.66,245.11,377,240.86,377,231.26Zm17.1-2.8c-.35-4.1-1.95-6.35-4.95-6.35-2.55,0-4.55,2.1-5,6.35Z" style="fill:#df1a82"/><path d="M403.61,217.86h6.1l.85,5.35c1.7-3.1,4.25-5.7,8.35-5.9l1.15,7.1a12.48,12.48,0,0,0-9.35,5v15.2h-7.1Z" style="fill:#df1a82"/><path d="M420.11,231.26c0-8.7,5.25-13.95,12.3-13.95,8.1,0,11.65,6.05,11.65,13.65,0,.65,0,1.45-.05,2.15H427.26c.35,4.45,3,6.6,6.95,6.6a16,16,0,0,0,9.05-3.15l.8,5.35a18.28,18.28,0,0,1-10.65,3.2C425.76,245.11,420.11,240.86,420.11,231.26Zm17.1-2.8c-.35-4.1-1.95-6.35-4.95-6.35-2.55,0-4.55,2.1-5,6.35Z" style="fill:#df1a82"/><path d="M445.41,242.46l.9-6a19.71,19.71,0,0,0,9.9,3.15c2.65,0,4-.9,4-2.4s-1-2.2-5-3.25c-6.6-1.7-9.35-3.55-9.35-8.55,0-4.8,3.7-8.1,10.1-8.1a24.35,24.35,0,0,1,9.6,1.95l-.95,5.9a19.61,19.61,0,0,0-8.65-2.45c-2.25,0-3.3.8-3.3,2.1s.9,1.95,4.75,2.95c7,1.85,9.65,3.7,9.65,8.7,0,5.45-3.85,8.55-10.85,8.55A24.16,24.16,0,0,1,445.41,242.46Z" style="fill:#df1a82"/><path d="M476.71,254.36l-.9-5.7a8.33,8.33,0,0,0,2.1.25c1.75,0,2.95-.85,2.95-3.25v-27.8H488v28.35c0,6-3.5,8.35-8.6,8.35A12.37,12.37,0,0,1,476.71,254.36Zm3.6-44.75a4.1,4.1,0,1,1,4.1,3.95A3.89,3.89,0,0,1,480.31,209.61Z" style="fill:#df1a82"/><path d="M490.76,231.26c0-8.65,5.4-13.95,12.65-13.95s12.7,5.25,12.7,13.9-5.4,13.9-12.75,13.9S490.76,239.91,490.76,231.26Zm18.45,0c0-4.75-2.1-8.15-5.8-8.15s-5.75,3.3-5.75,8.1,2,8.1,5.75,8.1S509.21,236,509.21,231.26Zm-4.65-24.7h8.6V207l-7.55,7.45h-4.7Z" style="fill:#df1a82"/><path d="M516.21,217.86H524l5.6,17.95,5.5-17.95h7l-9.4,26.8h-7Z" style="fill:#df1a82"/><path d="M542.21,231.26c0-8.7,5.25-13.95,12.29-13.95,8.11,0,11.66,6.05,11.66,13.65,0,.65,0,1.45,0,2.15H549.36c.35,4.45,3,6.6,6.95,6.6a16,16,0,0,0,9.05-3.15l.8,5.35a18.28,18.28,0,0,1-10.65,3.2C547.85,245.11,542.21,240.86,542.21,231.26Zm17.1-2.8c-.35-4.1-1.95-6.35-4.95-6.35-2.55,0-4.56,2.1-5,6.35Z" style="fill:#df1a82"/><path d="M568.8,217.86h6.11l.59,3.7c2.5-2.35,5.26-4.25,8.76-4.25,5,0,7.65,3.05,7.65,8.1v19.15h-7.1V227.31c0-2.2-.95-3.7-3.25-3.7-1.95,0-3.85,1.2-5.65,3v17.9H568.8Z" style="fill:#df1a82"/><path d="M594.3,231.26c0-8.7,5.25-13.95,12.3-13.95,8.11,0,11.66,6.05,11.66,13.65,0,.65,0,1.45,0,2.15H601.46c.34,4.45,3,6.6,6.95,6.6a16,16,0,0,0,9.05-3.15l.8,5.35a18.28,18.28,0,0,1-10.65,3.2C600,245.11,594.3,240.86,594.3,231.26Zm17.11-2.8c-.35-4.1-1.95-6.35-4.95-6.35-2.55,0-4.56,2.1-5,6.35Z" style="fill:#df1a82"/><path d="M619.6,242.46l.9-6a19.72,19.72,0,0,0,9.91,3.15c2.64,0,4-.9,4-2.4s-1-2.2-5-3.25c-6.6-1.7-9.35-3.55-9.35-8.55,0-4.8,3.7-8.1,10.1-8.1a24.36,24.36,0,0,1,9.61,1.95l-1,5.9a19.62,19.62,0,0,0-8.66-2.45c-2.25,0-3.3.8-3.3,2.1s.91,1.95,4.75,2.95c7,1.85,9.66,3.7,9.66,8.7,0,5.45-3.85,8.55-10.86,8.55A24.16,24.16,0,0,1,619.6,242.46Z" style="fill:#df1a82"/><text id="svg_nombre_comuna" transform="translate(81.49 201.41)" style="font-size:61.16727828979492px;fill:#067dba;font-family:UNFPA-Bold;font-weight:700;letter-spacing:-0.05000375749120575em">Altavista</text></g></g></svg>