<svg xmlns="http://www.w3.org/2000/svg" viewBox="0 0 857.86 351.19"><title>p2_co_h_m_a</title><g id="Layer_2" data-name="Layer 2"><g id="Capa_1" data-name="Capa 1"><path d="M201.58,32H211V69.35h15.48v8.37H201.58Z" style="fill:#374a63"/><path d="M227.65,69.47c0-7.7,6.2-11.14,19.08-12.4v-.84c0-3.32-1.92-4.58-5.35-4.58a26.57,26.57,0,0,0-10.66,2.59l-1-6.68A31.83,31.83,0,0,1,242.58,45c8.49,0,12.7,3,12.7,10.83V77.72h-7.46l-.66-4.09c-2.65,2.65-5.85,4.75-10.48,4.75C231.26,78.38,227.65,75.19,227.65,69.47Zm19.08-.6v-7c-8.61,1.08-10.65,3.61-10.65,6.62a3.38,3.38,0,0,0,3.73,3.61A10.21,10.21,0,0,0,246.73,68.87Z" style="fill:#374a63"/><path d="M258.23,75.19,259.32,68a23.68,23.68,0,0,0,11.92,3.79c3.19,0,4.75-1.08,4.75-2.89s-1.14-2.65-6-3.91c-7.94-2-11.26-4.28-11.26-10.3,0-5.78,4.46-9.75,12.17-9.75a29.28,29.28,0,0,1,11.56,2.35l-1.15,7.1a23.54,23.54,0,0,0-10.41-3c-2.71,0-4,1-4,2.53s1.09,2.35,5.72,3.55C281.05,59.78,284.24,62,284.24,68c0,6.56-4.63,10.29-13.06,10.29A29,29,0,0,1,258.23,75.19Z" style="fill:#374a63"/><path d="M300.56,45.57h7.34l.72,4.33c2.29-2.58,5.36-5,9.7-5,6.68,0,12,5,12,15.89,0,12-6.62,17.28-14,17.28a21.75,21.75,0,0,1-7.22-1.2V89.22h-8.55Zm21.19,15.71c0-6-2.53-8.79-5.84-8.79-2.71,0-4.82,1.63-6.8,4.1V70a12.45,12.45,0,0,0,5.72,1.21C318.8,71.22,321.75,68.09,321.75,61.28Z" style="fill:#374a63"/><path d="M331.8,61.71c0-10.48,6.32-16.8,14.81-16.8,9.76,0,14,7.28,14,16.43,0,.79,0,1.75-.06,2.59H340.41c.42,5.36,3.62,7.95,8.37,7.95,3.92,0,7.41-1.44,10.9-3.79l1,6.44a22,22,0,0,1-12.82,3.85C338.61,78.38,331.8,73.27,331.8,61.71Zm20.59-3.38c-.42-4.93-2.34-7.64-6-7.64-3.07,0-5.48,2.53-6,7.64Z" style="fill:#374a63"/><path d="M363.83,45.57h7.35l1,6.44c2.05-3.73,5.12-6.86,10.06-7.1l1.38,8.55a15,15,0,0,0-11.26,6v18.3h-8.55Z" style="fill:#374a63"/><path d="M383.76,75.19,384.84,68a23.75,23.75,0,0,0,11.93,3.79c3.19,0,4.75-1.08,4.75-2.89s-1.14-2.65-6-3.91c-7.95-2-11.26-4.28-11.26-10.3,0-5.78,4.46-9.75,12.16-9.75A29.21,29.21,0,0,1,408,47.32l-1.14,7.1a23.54,23.54,0,0,0-10.42-3c-2.71,0-4,1-4,2.53s1.08,2.35,5.72,3.55C406.58,59.78,409.77,62,409.77,68c0,6.56-4.63,10.29-13.06,10.29A29,29,0,0,1,383.76,75.19Z" style="fill:#374a63"/><path d="M411.09,61.71c0-10.42,6.51-16.8,15.24-16.8s15.29,6.32,15.29,16.74-6.5,16.73-15.35,16.73S411.09,72.12,411.09,61.71Zm22.22,0c0-5.72-2.53-9.82-7-9.82s-6.93,4-6.93,9.76,2.47,9.75,6.93,9.75S433.31,67.43,433.31,61.71Z" style="fill:#374a63"/><path d="M444.69,45.57H452l.73,4.45c3-2.83,6.32-5.11,10.53-5.11,6,0,9.22,3.67,9.22,9.75V77.72H464V57c0-2.65-1.15-4.46-3.92-4.46-2.35,0-4.63,1.45-6.8,3.68V77.72h-8.55Z" style="fill:#374a63"/><path d="M475.33,69.47c0-7.7,6.2-11.14,19.09-12.4v-.84c0-3.32-1.93-4.58-5.36-4.58a26.65,26.65,0,0,0-10.66,2.59l-1-6.68A31.79,31.79,0,0,1,490.27,45c8.48,0,12.7,3,12.7,10.83V77.72H495.5l-.66-4.09c-2.65,2.65-5.84,4.75-10.48,4.75C479,78.38,475.33,75.19,475.33,69.47Zm19.09-.6v-7c-8.61,1.08-10.66,3.61-10.66,6.62a3.39,3.39,0,0,0,3.74,3.61A10.25,10.25,0,0,0,494.42,68.87Z" style="fill:#374a63"/><path d="M505.92,75.19,507,68a23.71,23.71,0,0,0,11.92,3.79c3.2,0,4.76-1.08,4.76-2.89s-1.14-2.65-6-3.91c-7.95-2-11.26-4.28-11.26-10.3,0-5.78,4.46-9.75,12.16-9.75a29.21,29.21,0,0,1,11.56,2.35L529,54.42a23.58,23.58,0,0,0-10.42-3c-2.71,0-4,1-4,2.53s1.08,2.35,5.72,3.55C528.74,59.78,531.93,62,531.93,68c0,6.56-4.64,10.29-13.07,10.29A29,29,0,0,1,505.92,75.19Z" style="fill:#374a63"/><path d="M546.62,61.71c0-10.48,6.32-16.8,14.81-16.8,9.75,0,14,7.28,14,16.43,0,.79,0,1.75-.06,2.59H555.23c.42,5.36,3.61,7.95,8.37,7.95,3.91,0,7.4-1.44,10.89-3.79l1,6.44a22,22,0,0,1-12.83,3.85C553.42,78.38,546.62,73.27,546.62,61.71Zm20.59-3.38c-.42-4.93-2.35-7.64-6-7.64-3.07,0-5.48,2.53-6,7.64Z" style="fill:#374a63"/><path d="M578.65,45.57H586l.72,4.45c3-2.83,6.33-5.11,10.54-5.11,6,0,9.21,3.67,9.21,9.75V77.72h-8.55V57c0-2.65-1.14-4.46-3.91-4.46-2.35,0-4.64,1.45-6.8,3.68V77.72h-8.55Z" style="fill:#374a63"/><path d="M612.66,68.27V52.55h-4.45v-7h4.45V35h8.49V45.57h6.93v7h-6.93V66.88c0,2.59,1.21,4,4.16,4a14.48,14.48,0,0,0,3-.3v7.22a17.5,17.5,0,0,1-4.64.48C617.12,78.26,612.66,75.86,612.66,68.27Z" style="fill:#374a63"/><path d="M631.39,45.57h7.34l1,6.44c2-3.73,5.12-6.86,10.06-7.1l1.39,8.55a15,15,0,0,0-11.26,6v18.3h-8.55Z" style="fill:#374a63"/><path d="M651.25,61.71c0-10.48,6.33-16.8,14.82-16.8,9.75,0,14,7.28,14,16.43,0,.79,0,1.75-.05,2.59H659.86c.43,5.36,3.62,7.95,8.37,7.95,3.92,0,7.41-1.44,10.9-3.79l1,6.44a22,22,0,0,1-12.82,3.85C658.06,78.38,651.25,73.27,651.25,61.71Zm20.6-3.38c-.43-4.93-2.35-7.64-6-7.64-3.07,0-5.47,2.53-6,7.64Z" style="fill:#374a63"/><path d="M0,217.3c0-8,5-12.84,11.64-12.84s11.69,4.84,11.69,12.79S18.36,230,11.59,230,0,225.26,0,217.3Zm17,0c0-4.37-1.94-7.5-5.34-7.5s-5.29,3-5.29,7.45,1.89,7.46,5.29,7.46S17,221.67,17,217.3Z" style="fill:#374a63"/><path d="M25.67,205h5.61l.55,3.31c1.75-2,4.1-3.82,7.41-3.82,5.11,0,9.15,3.82,9.15,12.15,0,9.16-5.06,13.2-10.67,13.2a16.52,16.52,0,0,1-5.52-.92v9.43H25.67Zm16.19,12c0-4.6-1.93-6.72-4.46-6.72-2.07,0-3.68,1.24-5.2,3.13v10.26a9.58,9.58,0,0,0,4.37.92C39.61,224.57,41.86,222.18,41.86,217Z" style="fill:#374a63"/><path d="M50.55,197.38A3.78,3.78,0,1,1,54.33,201,3.58,3.58,0,0,1,50.55,197.38Zm.51,7.59h6.53v24.57H51.06Z" style="fill:#374a63"/><path d="M61.41,205H67l.55,3.41c2.3-2.17,4.83-3.92,8.05-3.92,4.61,0,7,2.81,7,7.46v17.62H76.13V213.67c0-2-.87-3.41-3-3.41-1.79,0-3.54,1.11-5.2,2.81v16.47H61.41Z" style="fill:#374a63"/><path d="M84.82,223.23c0-5.88,4.74-8.51,14.59-9.47v-.65c0-2.53-1.48-3.49-4.1-3.49a20.38,20.38,0,0,0-8.14,2l-.78-5.11a24.27,24.27,0,0,1,9.84-2c6.49,0,9.71,2.3,9.71,8.28v16.75h-5.7l-.51-3.13a10.87,10.87,0,0,1-8,3.63C87.58,230,84.82,227.61,84.82,223.23Zm14.59-.45v-5.39c-6.58.83-8.15,2.76-8.15,5.06a2.59,2.59,0,0,0,2.86,2.76A7.87,7.87,0,0,0,99.41,222.78Z" style="fill:#374a63"/><path d="M109.39,205H115l.55,3.41c2.3-2.17,4.83-3.92,8-3.92,4.6,0,7,2.81,7,7.46v17.62h-6.53V213.67c0-2-.87-3.41-3-3.41-1.79,0-3.54,1.11-5.2,2.81v16.47h-6.53Z" style="fill:#374a63"/><path d="M143.11,227.61l.82-5.48A18.12,18.12,0,0,0,153,225c2.44,0,3.64-.83,3.64-2.21s-.88-2-4.6-3c-6.08-1.56-8.61-3.27-8.61-7.87,0-4.41,3.41-7.45,9.3-7.45a22.29,22.29,0,0,1,8.83,1.8l-.87,5.42a18.07,18.07,0,0,0-8-2.25c-2.07,0-3,.74-3,1.93s.83,1.8,4.37,2.72c6.44,1.7,8.88,3.4,8.88,8,0,5-3.54,7.87-10,7.87A22.28,22.28,0,0,1,143.11,227.61Z" style="fill:#374a63"/><path d="M164,217.3c0-8,5-12.84,11.64-12.84s11.68,4.84,11.68,12.79-5,12.79-11.73,12.79S164,225.26,164,217.3Zm17,0c0-4.37-1.93-7.5-5.33-7.5s-5.29,3-5.29,7.45,1.88,7.46,5.29,7.46S181,221.67,181,217.3Z" style="fill:#374a63"/><path d="M189.66,228.16V193.75h6.53v13.94a9.59,9.59,0,0,1,6.85-3.23c5.16,0,9.16,3.82,9.16,12.15,0,9-4.92,13.25-12.33,13.25A30.37,30.37,0,0,1,189.66,228.16Zm16-11.18c0-4.6-1.89-6.72-4.42-6.72-1.93,0-3.59,1.24-5.06,3v10.72a9.42,9.42,0,0,0,3.54.59C203.32,224.52,205.67,222.36,205.67,217Z" style="fill:#374a63"/><path d="M214.59,205h5.61l.78,4.92c1.57-2.85,3.91-5.24,7.69-5.43l1.05,6.54a11.49,11.49,0,0,0-8.6,4.55v14h-6.53Z" style="fill:#374a63"/><path d="M229.77,217.3c0-8,4.83-12.84,11.31-12.84,7.46,0,10.72,5.57,10.72,12.56,0,.6,0,1.34,0,2H236.35c.32,4.1,2.76,6.07,6.39,6.07a14.76,14.76,0,0,0,8.33-2.89l.73,4.92A16.78,16.78,0,0,1,242,230C235,230,229.77,226.13,229.77,217.3Zm15.73-2.58c-.32-3.77-1.79-5.84-4.55-5.84-2.35,0-4.19,1.93-4.6,5.84Z" style="fill:#374a63"/><path d="M263.21,217.3c0-8,4.83-12.84,11.32-12.84,7.45,0,10.71,5.57,10.71,12.56,0,.6,0,1.34,0,2H269.79c.32,4.1,2.76,6.07,6.39,6.07a14.76,14.76,0,0,0,8.33-2.89l.73,4.92a16.78,16.78,0,0,1-9.79,2.94C268.41,230,263.21,226.13,263.21,217.3Zm15.73-2.58c-.32-3.77-1.79-5.84-4.55-5.84-2.35,0-4.19,1.93-4.6,5.84Z" style="fill:#374a63"/><path d="M288,193.75h6.53v35.79H288Z" style="fill:#374a63"/><path d="M1.24,246H6.85l.56,3.31c1.75-2,4.09-3.82,7.4-3.82,5.11,0,9.16,3.82,9.16,12.15,0,9.16-5.06,13.2-10.67,13.2a16.47,16.47,0,0,1-5.52-.92v9.43H1.24Zm16.2,12c0-4.6-1.94-6.72-4.47-6.72-2.07,0-3.68,1.24-5.19,3.13v10.26a9.55,9.55,0,0,0,4.37.92C15.18,265.57,17.44,263.18,17.44,258Z" style="fill:#374a63"/><path d="M26.36,246H32l.78,4.92c1.57-2.85,3.91-5.24,7.69-5.43L41.49,252a11.49,11.49,0,0,0-8.6,4.55v14H26.36Z" style="fill:#374a63"/><path d="M42.55,238.38A3.77,3.77,0,1,1,46.32,242,3.58,3.58,0,0,1,42.55,238.38Zm.51,7.59h6.53v24.57H43.06Z" style="fill:#374a63"/><path d="M53.41,246H59l.55,3.41c2.3-2.17,4.83-3.92,8.05-3.92,4.6,0,7,2.81,7,7.46v17.62H68.13V254.67c0-2-.88-3.41-3-3.41-1.8,0-3.55,1.11-5.2,2.81v16.47H53.41Z" style="fill:#374a63"/><path d="M76.87,258.39c0-8.6,5.38-12.88,12-12.88a13.92,13.92,0,0,1,7.55,2l-.92,5.84a9.79,9.79,0,0,0-6.21-2.21c-3.36,0-5.85,2.44-5.85,7.13s2.67,7.14,6.21,7.14a9.81,9.81,0,0,0,6.17-2.21l.83,5.47A13.66,13.66,0,0,1,88.6,271C81.7,271,76.87,266.4,76.87,258.39Z" style="fill:#374a63"/><path d="M98.67,238.38a3.77,3.77,0,1,1,3.77,3.63A3.58,3.58,0,0,1,98.67,238.38Zm.51,7.59h6.53v24.57H99.18Z" style="fill:#374a63"/><path d="M109.53,246h5.61l.55,3.31c1.75-2,4.09-3.82,7.41-3.82,5.1,0,9.15,3.82,9.15,12.15,0,9.16-5.06,13.2-10.67,13.2a16.47,16.47,0,0,1-5.52-.92v9.43h-6.53Zm16.19,12c0-4.6-1.93-6.72-4.46-6.72-2.07,0-3.68,1.24-5.2,3.13v10.26a9.58,9.58,0,0,0,4.37.92C123.46,265.57,125.72,263.18,125.72,258Z" style="fill:#374a63"/><path d="M133.35,264.23c0-5.88,4.74-8.51,14.59-9.47v-.65c0-2.53-1.48-3.49-4.1-3.49a20.38,20.38,0,0,0-8.14,2l-.78-5.11a24.27,24.27,0,0,1,9.84-2c6.49,0,9.71,2.3,9.71,8.28v16.75h-5.7l-.51-3.13a10.87,10.87,0,0,1-8,3.63C136.11,271,133.35,268.61,133.35,264.23Zm14.59-.45v-5.39c-6.58.83-8.15,2.76-8.15,5.06a2.59,2.59,0,0,0,2.86,2.76A7.87,7.87,0,0,0,147.94,263.78Z" style="fill:#374a63"/><path d="M158.19,234.75h6.54v35.79h-6.54Z" style="fill:#374a63"/><path d="M178.75,246h5.62l.55,3.31c1.75-2,4.09-3.82,7.41-3.82,5.1,0,9.15,3.82,9.15,12.15,0,9.16-5.06,13.2-10.67,13.2a16.47,16.47,0,0,1-5.52-.92v9.43h-6.54ZM195,258c0-4.6-1.93-6.72-4.46-6.72-2.07,0-3.68,1.24-5.2,3.13v10.26a9.58,9.58,0,0,0,4.37.92C192.69,265.57,195,263.18,195,258Z" style="fill:#374a63"/><path d="M203.87,246h5.61l.79,4.92c1.56-2.85,3.91-5.24,7.68-5.43L219,252a11.49,11.49,0,0,0-8.61,4.55v14h-6.53Z" style="fill:#374a63"/><path d="M219.05,258.3c0-8,5-12.84,11.64-12.84s11.69,4.84,11.69,12.79-5,12.79-11.74,12.79S219.05,266.26,219.05,258.3Zm17,0c0-4.37-1.94-7.5-5.34-7.5s-5.29,3-5.29,7.45,1.89,7.46,5.29,7.46S236,262.67,236,258.3Z" style="fill:#374a63"/><path d="M244.72,269.16V234.75h6.53v13.94a9.6,9.6,0,0,1,6.86-3.23c5.15,0,9.15,3.82,9.15,12.15,0,9-4.92,13.25-12.33,13.25A30.37,30.37,0,0,1,244.72,269.16Zm16-11.18c0-4.6-1.89-6.72-4.42-6.72-1.93,0-3.59,1.24-5.06,3v10.72a9.45,9.45,0,0,0,3.54.59C258.38,265.52,260.73,263.36,260.73,258Z" style="fill:#374a63"/><path d="M269.93,234.75h6.53v35.79h-6.53Z" style="fill:#374a63"/><path d="M279,258.3c0-8,4.83-12.84,11.32-12.84,7.45,0,10.72,5.57,10.72,12.56,0,.6,0,1.34-.05,2H285.61c.32,4.1,2.76,6.07,6.4,6.07a14.7,14.7,0,0,0,8.32-2.89l.74,4.92a16.83,16.83,0,0,1-9.8,2.94C284.23,271,279,267.13,279,258.3Zm15.74-2.58c-.32-3.77-1.8-5.84-4.56-5.84-2.34,0-4.18,1.93-4.6,5.84Z" style="fill:#374a63"/><path d="M303.5,246h5.62l.55,3.41c2.3-2.21,4.69-3.92,8-3.92s5.29,1.61,6.21,4c2.21-2.21,4.84-4,8.06-4,4.6,0,6.94,2.81,6.94,7.46v17.62h-6.53V254.67c0-2-.74-3.41-2.81-3.41-1.74,0-3.45,1.11-5.06,2.81v16.47H318V254.67c0-2-.78-3.41-2.85-3.41-1.75,0-3.41,1.11-5.06,2.81v16.47H303.5Z" style="fill:#374a63"/><path d="M341.09,264.23c0-5.88,4.74-8.51,14.58-9.47v-.65c0-2.53-1.47-3.49-4.09-3.49a20.43,20.43,0,0,0-8.15,2l-.78-5.11a24.28,24.28,0,0,1,9.85-2c6.48,0,9.7,2.3,9.7,8.28v16.75h-5.7l-.51-3.13a10.87,10.87,0,0,1-8,3.63C343.85,271,341.09,268.61,341.09,264.23Zm14.58-.45v-5.39c-6.58.83-8.14,2.76-8.14,5.06a2.58,2.58,0,0,0,2.85,2.76A7.85,7.85,0,0,0,355.67,263.78Z" style="fill:#374a63"/><path d="M374.67,258.94c0-9.2,5.06-13.25,10.67-13.25a16.77,16.77,0,0,1,5.52.92V234.75h6.53v35.79h-5.61l-.55-3.31c-1.75,2-4.1,3.81-7.41,3.81C378.71,271,374.67,267.23,374.67,258.94Zm16.19,3.18V251.86a9.58,9.58,0,0,0-4.37-.92c-3,0-5.24,2.39-5.24,7.59,0,4.6,1.88,6.72,4.46,6.72C387.73,265.25,389.34,264,390.86,262.12Z" style="fill:#374a63"/><path d="M399.74,258.3c0-8,4.83-12.84,11.31-12.84,7.46,0,10.72,5.57,10.72,12.56,0,.6,0,1.34,0,2H406.32c.32,4.1,2.76,6.07,6.39,6.07a14.76,14.76,0,0,0,8.33-2.89l.73,4.92A16.83,16.83,0,0,1,412,271C404.93,271,399.74,267.13,399.74,258.3Zm15.73-2.58c-.32-3.77-1.79-5.84-4.55-5.84-2.35,0-4.19,1.93-4.6,5.84Z" style="fill:#374a63"/><path d="M424.48,234.75H431v35.79h-6.54Z" style="fill:#374a63"/><path d="M570.45,131.89c0-6.95,5.59-10,17.22-11.19v-.76c0-3-1.74-4.13-4.84-4.13a24,24,0,0,0-9.61,2.34l-.93-6a28.82,28.82,0,0,1,11.63-2.34c7.66,0,11.46,2.72,11.46,9.78v19.77h-6.74l-.59-3.69c-2.39,2.39-5.27,4.29-9.46,4.29C573.71,139.93,570.45,137.05,570.45,131.89Zm17.22-.54V125c-7.77,1-9.62,3.26-9.62,6a3.06,3.06,0,0,0,3.37,3.26A9.28,9.28,0,0,0,587.67,131.35Z" style="fill:#374a63"/><path d="M599.45,110.33h6.63l.65,4c2.72-2.56,5.71-4.62,9.51-4.62,5.43,0,8.31,3.31,8.31,8.8v20.8h-7.71V120.59c0-2.39-1-4-3.53-4-2.12,0-4.19,1.31-6.14,3.32v19.44h-7.72Zm12.77-5c-2.28-1.09-3-1.41-3.91-1.41s-1.31.49-1.79,2.39h-4.13c.6-5.82,2.55-8.21,5.48-8.21a9.3,9.3,0,0,1,4.24,1.2c2.28,1.09,3,1.41,3.91,1.41s1.31-.49,1.8-2.39h4.12c-.59,5.81-2.55,8.21-5.48,8.21A9.17,9.17,0,0,1,612.22,105.33Z" style="fill:#374a63"/><path d="M627.16,124.89c0-9.4,5.87-15.16,13.74-15.16s13.8,5.7,13.8,15.1-5.87,15.1-13.85,15.1S627.16,134.28,627.16,124.89Zm20,0c0-5.17-2.28-8.86-6.3-8.86s-6.24,3.59-6.24,8.8,2.22,8.8,6.24,8.8S647.2,130.05,647.2,124.89Z" style="fill:#374a63"/><path d="M656.06,137.05l1-6.46A21.45,21.45,0,0,0,667.79,134c2.88,0,4.29-1,4.29-2.61s-1-2.39-5.43-3.53c-7.17-1.84-10.16-3.85-10.16-9.29,0-5.21,4-8.8,11-8.8a26.54,26.54,0,0,1,10.43,2.12l-1,6.41a21.28,21.28,0,0,0-9.39-2.66c-2.45,0-3.59.87-3.59,2.28s1,2.12,5.16,3.21c7.61,2,10.49,4,10.49,9.45,0,5.92-4.19,9.29-11.79,9.29A26.24,26.24,0,0,1,656.06,137.05Z" style="fill:#374a63"/><path d="M202.84,174.46l29.65-30.65c6.73-6.85,10-11.68,10-17.52,0-7.52-4.6-11.34-12.69-11.34s-15.61,3.71-22.79,9.1l-2.25-14.94a44.21,44.21,0,0,1,27.4-9c17.07,0,27.28,9,27.28,24.48,0,11.11-5.27,18.19-15.72,28.52l-19.65,19.65h35.82v14.15h-57Z" style="fill:#01a5d4"/><path d="M275.72,174.8c16.84-3.48,29.87-11,34.25-25a35.22,35.22,0,0,1-20.1,6.51c-15.05,0-25.49-9-25.49-26.61,0-18.08,13-29.64,30.76-29.64,18.87,0,32,12.46,32,36,0,30.32-20.55,47.16-49.19,52.66Zm35.59-38v-.23c-.11-15.49-6.85-23.35-16.28-23.35-8.42,0-14.26,5.72-14.26,15.49,0,9.21,4.72,14.37,14.15,14.37C300.87,143.13,306.26,140.78,311.31,136.85Z" style="fill:#01a5d4"/><path d="M359.26,208.82l-2.13-13a24.14,24.14,0,0,0,7.07.9c4.27,0,7.86-1.91,9.66-6.29l1.23-3.26L352.86,127h17.52l13,40.43L396.09,127h15.72l-22.34,62.66c-5.39,14.94-12.35,19.77-24.37,19.77A23.21,23.21,0,0,1,359.26,208.82Z" style="fill:#01a5d4"/><path d="M437.3,182.32l2.47-15.16a45.09,45.09,0,0,0,23.47,7.08c9,0,15.61-4.49,15.61-13.48s-6.74-13.47-17-13.47A38.79,38.79,0,0,0,451,149l-10.33-2.35,3-45h48.51v14.15h-35l-1.46,18.52a49.06,49.06,0,0,1,9.09-.89c19,0,30.66,9.43,30.66,26.61,0,18.64-13,28.52-32,28.52C453.25,188.5,444,186,437.3,182.32Z" style="fill:#01a5d4"/><path d="M510,174.8c16.84-3.48,29.86-11,34.24-25a35.17,35.17,0,0,1-20.1,6.51c-15,0-25.49-9-25.49-26.61,0-18.08,13-29.64,30.77-29.64,18.87,0,32,12.46,32,36,0,30.32-20.55,47.16-49.18,52.66Zm35.59-38v-.23c-.11-15.49-6.85-23.35-16.28-23.35-8.42,0-14.26,5.72-14.26,15.49,0,9.21,4.71,14.37,14.15,14.37C535.11,143.13,540.5,140.78,545.55,136.85Z" style="fill:#01a5d4"/><g id="adulto_mujer"><path d="M145.07,32.26a16.13,16.13,0,1,0-16.13-16.13A16.2,16.2,0,0,0,145.07,32.26Z" style="fill:#14486d"/><path d="M190.62,95.83,177.34,52.5s-4.75-12.65-15.19-12.65H128.31c-10.43,0-15.18,12.65-15.18,12.65L99.85,95.83s-2.53,7.91,4.43,9.81c6.64,1.89,8.85-5.7,8.85-5.7l10.75-36s.64-2.85,2.53-2.22c2.22.64,1.27,3.48,1.27,3.48l-19,68h17.4v48.71a8.22,8.22,0,0,0,16.44,0V133.15h4.75v48.71a8.23,8.23,0,0,0,16.45,0V133.15h17.39L162.47,65.47s-.95-2.85,1.27-3.48,2.53,2.21,2.53,2.21L177,100.26s1.9,7.91,8.85,5.69S190.62,95.83,190.62,95.83Z" style="fill:#14486d"/></g><g id="adulto_hombre"><path d="M51.68,32.58A16.13,16.13,0,1,0,35.55,16.45,16.21,16.21,0,0,0,51.68,32.58Z" style="fill:#14486d"/><path d="M70.66,38.59H33c-10.44,0-19.61,10.12-19.61,21.5v44.6a6.33,6.33,0,0,0,12.65,0V62.62s0-2.84,2.53-2.84,2.85,2.84,2.85,2.84V181.23a8.86,8.86,0,0,0,17.71,0v-66.1a2.41,2.41,0,0,1,2.53-2.53h0a2.42,2.42,0,0,1,2.53,2.53v66.1a8.86,8.86,0,0,0,17.71,0V62.62s.32-2.84,2.85-2.84,2.53,2.84,2.53,2.84v42.07a6.33,6.33,0,0,0,12.65,0V60.09C90,48.71,81.41,38.59,70.66,38.59Z" style="fill:#14486d"/></g><path d="M442.59,245.1c0-16,9.79-26.79,24.48-26.79A27.12,27.12,0,0,1,481.49,222l-1.57,9.93a20.17,20.17,0,0,0-12.31-4.42c-8.7,0-14.21,6.59-14.21,17.54s6,17.54,14.69,17.54a23.35,23.35,0,0,0,12.71-4.15l1.5,9.11a28.35,28.35,0,0,1-15,4.22C452,271.75,442.59,261.21,442.59,245.1Z" style="fill:#de1f26"/><path d="M484.75,252.78c0-11.76,7.35-19,17.21-19s17.27,7.14,17.27,18.9-7.35,18.9-17.34,18.9S484.75,264.54,484.75,252.78Zm25.09,0c0-6.46-2.85-11.08-7.88-11.08s-7.82,4.49-7.82,11,2.78,11,7.82,11S509.84,259.24,509.84,252.78Z" style="fill:#4c9b45"/><path d="M522.7,234.56H531l1.16,7.27c2.31-4.21,5.78-7.75,11.35-8l1.57,9.66a17,17,0,0,0-12.72,6.73v20.67H522.7Z" style="fill:#03a5d4"/><path d="M547,234.56h8.3l1.15,7.27c2.31-4.21,5.78-7.75,11.36-8l1.56,9.66a17,17,0,0,0-12.71,6.73v20.67H547Z" style="fill:#03a5d4"/><path d="M569.41,252.78c0-11.83,7.14-19,16.73-19,11,0,15.84,8.23,15.84,18.56,0,.89,0,2-.07,2.93H579.14c.47,6.05,4.07,9,9.45,9,4.42,0,8.36-1.63,12.3-4.28l1.09,7.27a24.84,24.84,0,0,1-14.48,4.35C577.1,271.61,569.41,265.84,569.41,252.78ZM592.67,249c-.48-5.57-2.66-8.63-6.74-8.63-3.46,0-6.18,2.85-6.79,8.63Z" style="fill:#ea6524"/><path d="M606.13,281.81l1.43-7.75a25,25,0,0,0,11.69,3c5.51,0,8.23-2.58,8.23-7.48V265.9c-2.31,2.38-5.57,4.76-10.13,4.76-7.55,0-13.53-5.64-13.53-17.47,0-12.92,7.27-19.11,18.22-19.11a44.59,44.59,0,0,1,15.1,2.52v32.57c0,9.79-5.58,15.3-17.14,15.3A35.91,35.91,0,0,1,606.13,281.81ZM627.48,258V242.85a13.41,13.41,0,0,0-5.23-.88c-5.31,0-8.71,3.26-8.71,10.81,0,6.46,2.72,9.59,6.53,9.59C622.92,262.37,625.3,260.53,627.48,258Z" style="fill:#4c7838"/><path d="M642.1,223.34a5.58,5.58,0,1,1,5.58,5.37A5.29,5.29,0,0,1,642.1,223.34Zm.75,11.22h9.66v36.31h-9.66Z" style="fill:#094c81"/><path d="M658.15,234.56h8.3l.81,5c3.4-3.26,6.94-5.78,11.83-5.78s7.82,2.38,9.18,5.85c3.27-3.27,7.14-5.85,11.9-5.85,6.8,0,10.27,4.15,10.27,11v26h-9.66V247.41c0-3-1.09-5-4.15-5-2.58,0-5.09,1.63-7.47,4.15v24.34H679.5V247.41c0-3-1.16-5-4.22-5-2.58,0-5,1.63-7.47,4.15v24.34h-9.66Z" style="fill:#f89c26"/><path d="M715.27,223.34a5.58,5.58,0,0,1,11.15,0,5.58,5.58,0,0,1-11.15,0Zm.75,11.22h9.65v36.31H716Z" style="fill:#ee4128"/><path d="M729.48,252.78c0-11.83,7.14-19,16.73-19,11,0,15.84,8.23,15.84,18.56,0,.89,0,2-.07,2.93H739.2c.48,6.05,4.08,9,9.46,9,4.42,0,8.36-1.63,12.3-4.28l1.09,7.27a24.84,24.84,0,0,1-14.48,4.35C737.17,271.61,729.48,265.84,729.48,252.78ZM752.74,249c-.48-5.57-2.66-8.63-6.74-8.63-3.46,0-6.18,2.85-6.8,8.63Z" style="fill:#02acd7"/><path d="M765.66,234.56H774l.82,5c3.4-3.2,7.14-5.78,11.9-5.78,6.8,0,10.4,4.15,10.4,11v26h-9.66V247.41c0-3-1.29-5-4.42-5-2.65,0-5.23,1.63-7.68,4.15v24.34h-9.65Z" style="fill:#49773d"/><path d="M804.08,260.19V242.45h-5v-7.89h5v-11.9h9.58v11.9h7.82v7.89h-7.82v16.18c0,2.92,1.36,4.49,4.69,4.49a16.59,16.59,0,0,0,3.34-.34v8.16a20,20,0,0,1-5.24.54C809.11,271.48,804.08,268.76,804.08,260.19Z" style="fill:#f26e26"/><path d="M823.39,252.78c0-11.76,7.34-19,17.2-19s17.27,7.14,17.27,18.9-7.34,18.9-17.34,18.9S823.39,264.54,823.39,252.78Zm25.09,0c0-6.46-2.86-11.08-7.89-11.08s-7.82,4.49-7.82,11,2.79,11,7.82,11S848.48,259.24,848.48,252.78Z" style="fill:#8e1939"/><text transform="translate(439.33 337.18)" style="font-size:68px;fill:#067dba;font-family:UNFPA-Bold;font-weight:700;letter-spacing:-0.04999138327205882em">Altavista</text></g></g></svg>